<svg width="27" height="25" viewBox="0 0 27 25" fill="none" xmlns="http://www.w3.org/2000/svg">
<path d="M1.37306 8.28967H6.70422V24.9813H1.37306V8.28967ZM4.03864 0C5.74538 0 7.12611 1.34731 7.12611 3.01272C7.12611 4.67814 5.74538 6.02545 4.03864 6.02545C2.3319 6.02545 0.951172 4.67814 0.951172 3.01272C0.951172 1.34731 2.3319 0 4.03864 0ZM10.041 24.9813H15.353V16.729C15.353 14.5584 15.7749 12.4439 18.5363 12.4439C21.2978 12.4439 21.2978 14.9326 21.2978 16.8787V25H26.6098V15.8496C26.6098 11.3585 25.6126 7.89671 20.2431 7.89671C17.6542 7.89671 15.9283 9.28144 15.1996 10.5913H15.1229V8.30838H10.0218V25L10.041 24.9813Z" fill="#3C3C3B"/>
</svg>
