<svg width="61" height="61" viewBox="0 0 61 61" fill="none" xmlns="http://www.w3.org/2000/svg">
<path d="M30.6514 56.9424C15.8264 56.9424 3.77637 44.8924 3.77637 30.0674C3.77637 15.2424 15.8264 3.19238 30.6514 3.19238C45.4764 3.19238 57.5264 15.2424 57.5264 30.0674C57.5264 44.8924 45.4764 56.9424 30.6514 56.9424ZM30.6514 6.94238C17.9014 6.94238 7.52637 17.3174 7.52637 30.0674C7.52637 42.8174 17.9014 53.1924 30.6514 53.1924C43.4014 53.1924 53.7764 42.8174 53.7764 30.0674C53.7764 17.3174 43.4014 6.94238 30.6514 6.94238Z" fill="#112A42"/>
<path d="M39.926 39.8928C39.601 39.8928 39.276 39.8178 38.976 39.6178L31.226 34.9928C29.301 33.8428 27.876 31.3178 27.876 29.0928V18.8428C27.876 17.8178 28.726 16.9678 29.751 16.9678C30.776 16.9678 31.626 17.8178 31.626 18.8428V29.0928C31.626 29.9928 32.376 31.3178 33.151 31.7678L40.901 36.3928C41.801 36.9178 42.076 38.0678 41.551 38.9678C41.176 39.5678 40.551 39.8928 39.926 39.8928Z" fill="#112A42"/>
</svg>
