<svg width="60" height="61" viewBox="0 0 60 61" fill="none" xmlns="http://www.w3.org/2000/svg">
<path d="M30 57.222C28.425 57.222 26.95 56.6222 25.85 55.4972L22.05 51.6971C21.75 51.3971 20.95 51.0721 20.55 51.0721H15.15C11.9 51.0721 9.27498 48.4469 9.27498 45.1969V39.7971C9.27498 39.3971 8.94998 38.5972 8.64998 38.2972L4.85001 34.4971C3.75001 33.3971 3.125 31.922 3.125 30.347C3.125 28.772 3.72501 27.2969 4.85001 26.1969L8.64998 22.3969C8.94998 22.0969 9.27498 21.2969 9.27498 20.8969V15.4972C9.27498 12.2472 11.9 9.62192 15.15 9.62192H20.55C20.95 9.62192 21.75 9.29692 22.05 8.99692L25.85 5.19687C28.05 2.99687 31.95 2.99687 34.15 5.19687L37.95 8.99692C38.25 9.29692 39.05 9.62192 39.45 9.62192H44.85C48.1 9.62192 50.725 12.2472 50.725 15.4972V20.8969C50.725 21.2969 51.05 22.0969 51.35 22.3969L55.15 26.1969C56.25 27.2969 56.875 28.772 56.875 30.347C56.875 31.922 56.275 33.3971 55.15 34.4971L51.35 38.2972C51.05 38.5972 50.725 39.3971 50.725 39.7971V45.1969C50.725 48.4469 48.1 51.0721 44.85 51.0721H39.45C39.05 51.0721 38.25 51.3971 37.95 51.6971L34.15 55.4972C33.05 56.6222 31.575 57.222 30 57.222ZM11.3 35.647C12.3 36.647 13.025 38.3971 13.025 39.7971V45.1969C13.025 46.3719 13.975 47.3221 15.15 47.3221H20.55C21.95 47.3221 23.7 48.047 24.7 49.047L28.5 52.847C29.3 53.647 30.7 53.647 31.5 52.847L35.3 49.047C36.3 48.047 38.05 47.3221 39.45 47.3221H44.85C46.025 47.3221 46.975 46.3719 46.975 45.1969V39.7971C46.975 38.3971 47.7 36.647 48.7 35.647L52.5 31.847C52.9 31.447 53.125 30.922 53.125 30.347C53.125 29.772 52.9 29.2471 52.5 28.8471L48.7 25.047C47.7 24.047 46.975 22.2969 46.975 20.8969V15.4972C46.975 14.3222 46.025 13.3719 44.85 13.3719H39.45C38.05 13.3719 36.3 12.6471 35.3 11.6471L31.5 7.84702C30.7 7.04702 29.3 7.04702 28.5 7.84702L24.7 11.6471C23.7 12.6471 21.95 13.3719 20.55 13.3719H15.15C13.975 13.3719 13.025 14.3222 13.025 15.4972V20.8969C13.025 22.2969 12.3 24.047 11.3 25.047L7.5 28.8471C7.1 29.2471 6.875 29.772 6.875 30.347C6.875 30.922 7.1 31.447 7.5 31.847L11.3 35.647Z" fill="#16222E"/>
<path d="M37.5006 40.3467C36.1006 40.3467 34.9756 39.2217 34.9756 37.8467C34.9756 36.4717 36.1006 35.3467 37.4756 35.3467C38.8506 35.3467 39.9756 36.4717 39.9756 37.8467C39.9756 39.2217 38.8756 40.3467 37.5006 40.3467Z" fill="#16222E"/>
<path d="M22.525 25.3467C21.125 25.3467 20 24.2217 20 22.8467C20 21.4717 21.125 20.3467 22.5 20.3467C23.875 20.3467 25 21.4717 25 22.8467C25 24.2217 23.9 25.3467 22.525 25.3467Z" fill="#16222E"/>
<path d="M22.4996 39.7214C22.0246 39.7214 21.5496 39.5464 21.1746 39.1714C20.4496 38.4464 20.4496 37.2463 21.1746 36.5213L36.1746 21.5213C36.8996 20.7963 38.0996 20.7963 38.8246 21.5213C39.5496 22.2463 39.5496 23.4464 38.8246 24.1714L23.8246 39.1714C23.4496 39.5464 22.9746 39.7214 22.4996 39.7214Z" fill="#16222E"/>
</svg>
