<svg width="60" height="60" viewBox="0 0 60 60" fill="none" xmlns="http://www.w3.org/2000/svg">
<path d="M43.9 44.925H16.1C6.15 44.925 3.125 41.9 3.125 31.95V16.1C3.125 6.15 6.15 3.125 16.1 3.125H43.875C53.825 3.125 56.85 6.15 56.85 16.1V31.925C56.875 41.9 53.85 44.925 43.9 44.925ZM16.1 6.875C8.25 6.875 6.875 8.25 6.875 16.1V31.925C6.875 39.775 8.25 41.15 16.1 41.15H43.875C51.725 41.15 53.1 39.775 53.1 31.925V16.1C53.1 8.25 51.725 6.875 43.875 6.875H16.1Z" fill="#16222E"/>
<path d="M30 56.8748C28.975 56.8748 28.125 56.0248 28.125 54.9998V43.0498C28.125 42.0248 28.975 41.1748 30 41.1748C31.025 41.1748 31.875 42.0248 31.875 43.0498V54.9998C31.875 56.0248 31.025 56.8748 30 56.8748Z" fill="#16222E"/>
<path d="M55 34.375H5C3.975 34.375 3.125 33.525 3.125 32.5C3.125 31.475 3.975 30.625 5 30.625H55C56.025 30.625 56.875 31.475 56.875 32.5C56.875 33.525 56.025 34.375 55 34.375Z" fill="#16222E"/>
<path d="M41.25 56.875H18.75C17.725 56.875 16.875 56.025 16.875 55C16.875 53.975 17.725 53.125 18.75 53.125H41.25C42.275 53.125 43.125 53.975 43.125 55C43.125 56.025 42.275 56.875 41.25 56.875Z" fill="#16222E"/>
</svg>
