<svg width="61" height="61" viewBox="0 0 61 61" fill="none" xmlns="http://www.w3.org/2000/svg">
<path d="M42.5723 54.4141H17.5723C6.54727 54.4141 3.19727 51.0641 3.19727 40.0391V20.0391C3.19727 9.01406 6.54727 5.66406 17.5723 5.66406H42.5723C53.5973 5.66406 56.9473 9.01406 56.9473 20.0391V40.0391C56.9473 51.0641 53.5973 54.4141 42.5723 54.4141ZM17.5723 9.41406C8.62227 9.41406 6.94727 11.1141 6.94727 20.0391V40.0391C6.94727 48.9641 8.62227 50.6641 17.5723 50.6641H42.5723C51.5223 50.6641 53.1973 48.9641 53.1973 40.0391V20.0391C53.1973 11.1141 51.5223 9.41406 42.5723 9.41406H17.5723Z" fill="#16222E"/>
<path d="M47.5723 21.9141H35.0723C34.0473 21.9141 33.1973 21.0641 33.1973 20.0391C33.1973 19.0141 34.0473 18.1641 35.0723 18.1641H47.5723C48.5973 18.1641 49.4473 19.0141 49.4473 20.0391C49.4473 21.0641 48.5973 21.9141 47.5723 21.9141Z" fill="#16222E"/>
<path d="M47.5723 31.9141H37.5723C36.5473 31.9141 35.6973 31.0641 35.6973 30.0391C35.6973 29.0141 36.5473 28.1641 37.5723 28.1641H47.5723C48.5973 28.1641 49.4473 29.0141 49.4473 30.0391C49.4473 31.0641 48.5973 31.9141 47.5723 31.9141Z" fill="#16222E"/>
<path d="M47.5723 41.9141H42.5723C41.5473 41.9141 40.6973 41.0641 40.6973 40.0391C40.6973 39.0141 41.5473 38.1641 42.5723 38.1641H47.5723C48.5973 38.1641 49.4473 39.0141 49.4473 40.0391C49.4473 41.0641 48.5973 41.9141 47.5723 41.9141Z" fill="#16222E"/>
<path d="M21.3224 30.1389C17.7974 30.1389 14.9224 27.2639 14.9224 23.7389C14.9224 20.2139 17.7974 17.3389 21.3224 17.3389C24.8474 17.3389 27.7224 20.2139 27.7224 23.7389C27.7224 27.2639 24.8474 30.1389 21.3224 30.1389ZM21.3224 21.0889C19.8724 21.0889 18.6724 22.2889 18.6724 23.7389C18.6724 25.1889 19.8724 26.3889 21.3224 26.3889C22.7724 26.3889 23.9724 25.1889 23.9724 23.7389C23.9724 22.2889 22.7724 21.0889 21.3224 21.0889Z" fill="#16222E"/>
<path d="M30.072 42.7395C29.122 42.7395 28.297 42.0145 28.197 41.0395C27.922 38.3395 25.747 36.1645 23.022 35.9145C21.872 35.8145 20.722 35.8145 19.572 35.9145C16.847 36.1645 14.672 38.3145 14.397 41.0395C14.297 42.0645 13.372 42.8395 12.347 42.7145C11.322 42.6145 10.572 41.6895 10.672 40.6645C11.122 36.1645 14.697 32.5895 19.222 32.1895C20.597 32.0645 21.997 32.0645 23.372 32.1895C27.872 32.6145 31.472 36.1895 31.922 40.6645C32.022 41.6895 31.272 42.6145 30.247 42.7145C30.197 42.7395 30.122 42.7395 30.072 42.7395Z" fill="#16222E"/>
</svg>
