<svg width="60" height="61" viewBox="0 0 60 61" fill="none" xmlns="http://www.w3.org/2000/svg">
<path d="M55 57.4785H5C3.975 57.4785 3.125 56.6285 3.125 55.6035C3.125 54.5785 3.975 53.7285 5 53.7285H55C56.025 53.7285 56.875 54.5785 56.875 55.6035C56.875 56.6285 56.025 57.4785 55 57.4785Z" fill="#64E1F6"/>
<path d="M7.52502 57.5037C7.02502 57.5037 6.54995 57.3037 6.19995 56.9537C5.84995 56.6037 5.65002 56.1287 5.65002 55.6287L5.625 18.2787C5.625 16.0037 6.77493 13.8537 8.67493 12.5787L18.6749 5.90371C20.9999 4.35371 24 4.35371 26.3 5.90371L36.3 12.5787C38.225 13.8537 39.35 15.9787 39.35 18.2787L39.375 55.5787C39.375 56.6037 38.55 57.4537 37.5 57.4537L7.52502 57.5037ZM22.5 8.47878C21.9 8.47878 21.3 8.65369 20.775 9.00369L10.775 15.6788C9.89999 16.2538 9.375 17.2287 9.375 18.2787L9.40002 53.7537L35.65 53.7037L35.625 18.2787C35.625 17.2287 35.1 16.2537 34.25 15.7037L24.25 9.02871C23.725 8.65371 23.1 8.47878 22.5 8.47878Z" fill="#64E1F6"/>
<path d="M49.9502 57.5035C48.9252 57.5035 48.0752 56.6535 48.0752 55.6285V45.6035C48.0752 44.5785 48.9252 43.7285 49.9502 43.7285C50.9752 43.7285 51.8252 44.5785 51.8252 45.6035V55.6285C51.8252 56.6535 51.0002 57.5035 49.9502 57.5035Z" fill="#64E1F6"/>
<path d="M50 47.4785C46.2 47.4785 43.125 44.4035 43.125 40.6035V35.6035C43.125 31.8035 46.2 28.7285 50 28.7285C53.8 28.7285 56.875 31.8035 56.875 35.6035V40.6035C56.875 44.4035 53.8 47.4785 50 47.4785ZM50 32.4785C48.275 32.4785 46.875 33.8785 46.875 35.6035V40.6035C46.875 42.3285 48.275 43.7285 50 43.7285C51.725 43.7285 53.125 42.3285 53.125 40.6035V35.6035C53.125 33.8785 51.725 32.4785 50 32.4785Z" fill="#64E1F6"/>
<path d="M37.5 37.4785H7.5C6.475 37.4785 5.625 36.6285 5.625 35.6035C5.625 34.5785 6.475 33.7285 7.5 33.7285H37.5C38.525 33.7285 39.375 34.5785 39.375 35.6035C39.375 36.6285 38.525 37.4785 37.5 37.4785Z" fill="#64E1F6"/>
<path d="M22.5 57.4785C21.475 57.4785 20.625 56.6285 20.625 55.6035V46.2285C20.625 45.2035 21.475 44.3535 22.5 44.3535C23.525 44.3535 24.375 45.2035 24.375 46.2285V55.6035C24.375 56.6285 23.525 57.4785 22.5 57.4785Z" fill="#64E1F6"/>
<path d="M22.5 28.7285C19.4 28.7285 16.875 26.2035 16.875 23.1035C16.875 20.0035 19.4 17.4785 22.5 17.4785C25.6 17.4785 28.125 20.0035 28.125 23.1035C28.125 26.2035 25.6 28.7285 22.5 28.7285ZM22.5 21.2285C21.475 21.2285 20.625 22.0785 20.625 23.1035C20.625 24.1285 21.475 24.9785 22.5 24.9785C23.525 24.9785 24.375 24.1285 24.375 23.1035C24.375 22.0785 23.525 21.2285 22.5 21.2285Z" fill="#64E1F6"/>
</svg>
