<svg width="60" height="61" viewBox="0 0 60 61" fill="none" xmlns="http://www.w3.org/2000/svg">
<path d="M38.75 47.9835H16.25C7.9 47.9835 3.125 43.2085 3.125 34.8585V21.3584C3.125 13.0084 7.9 8.2334 16.25 8.2334H23C23.6 8.2334 24.175 8.53354 24.525 9.00854C24.875 9.48354 24.975 10.1334 24.775 10.7084C24.5 11.4834 24.375 12.3334 24.375 13.2334V22.9835C24.375 24.8835 24.95 26.4583 26.05 27.5583C27.15 28.6583 28.725 29.2335 30.625 29.2335C31.65 29.2335 32.5 30.0835 32.5 31.1085V34.1083L39.325 29.5334C39.625 29.3334 40 29.2084 40.375 29.2084H46.875C47.775 29.2084 48.625 29.0833 49.4 28.8083C49.975 28.6083 50.6 28.7083 51.1 29.0583C51.6 29.4083 51.875 29.9833 51.875 30.5833V34.8334C51.875 43.2084 47.1 47.9835 38.75 47.9835ZM16.25 11.9834C9.95 11.9834 6.875 15.0584 6.875 21.3584V34.8585C6.875 41.1585 9.95 44.2335 16.25 44.2335H38.75C45.05 44.2335 48.125 41.1585 48.125 34.8585V32.9084C47.725 32.9584 47.3 32.9835 46.875 32.9835H40.95L34.2 37.4833C33.1 38.1833 31.725 38.2584 30.6 37.6334C29.475 37.0334 28.775 35.8585 28.775 34.5835V32.8333C26.675 32.5083 24.825 31.5835 23.425 30.2085C21.65 28.4335 20.65 25.8585 20.65 22.9835V13.2334C20.65 12.8084 20.675 12.3834 20.7 11.9834H16.25Z" fill="#64E1F6"/>
<path d="M32.25 38.0585C31.675 38.0585 31.1 37.9084 30.575 37.6334C29.45 37.0334 28.75 35.8585 28.75 34.5835V32.8333C26.65 32.5083 24.8 31.5835 23.4 30.2085C21.625 28.4335 20.625 25.8585 20.625 22.9835V13.2334C20.625 11.9084 20.825 10.6584 21.225 9.50842C22.625 5.58342 26.125 3.2334 30.625 3.2334H46.875C52.75 3.2334 56.875 7.3334 56.875 13.2334V22.9835C56.875 27.4835 54.55 30.9835 50.625 32.3835C49.425 32.7835 48.175 32.9835 46.875 32.9835H40.95L34.2 37.4833C33.6 37.8833 32.925 38.0585 32.25 38.0585ZM30.625 6.9834C27.75 6.9834 25.625 8.3584 24.775 10.7334C24.525 11.4834 24.375 12.3334 24.375 13.2334V22.9835C24.375 24.8835 24.95 26.4583 26.05 27.5583C27.15 28.6583 28.725 29.2335 30.625 29.2335C31.65 29.2335 32.5 30.0835 32.5 31.1085V34.1083L39.325 29.5334C39.625 29.3334 40 29.2084 40.375 29.2084H46.875C47.775 29.2084 48.625 29.0833 49.4 28.8083C51.775 27.9583 53.125 25.8334 53.125 22.9584V13.2084C53.125 9.35837 50.725 6.95837 46.875 6.95837H30.625V6.9834Z" fill="#64E1F6"/>
<path d="M36.5 56.9834H18.5C17.475 56.9834 16.625 56.1334 16.625 55.1084C16.625 54.0834 17.475 53.2334 18.5 53.2334H36.5C37.525 53.2334 38.375 54.0834 38.375 55.1084C38.375 56.1334 37.525 56.9834 36.5 56.9834Z" fill="#64E1F6"/>
<path d="M27.5 56.9833C26.475 56.9833 25.625 56.1333 25.625 55.1083V46.1084C25.625 45.0834 26.475 44.2334 27.5 44.2334C28.525 44.2334 29.375 45.0834 29.375 46.1084V55.1083C29.375 56.1333 28.525 56.9833 27.5 56.9833Z" fill="#64E1F6"/>
<path d="M38.5996 20.1084C37.5496 20.1084 36.7246 19.2584 36.7246 18.2334C36.7246 17.2084 37.5746 16.3584 38.5996 16.3584C39.6246 16.3584 40.4746 17.2084 40.4746 18.2334C40.4746 19.2584 39.6246 20.1084 38.5996 20.1084Z" fill="#64E1F6"/>
<path d="M45.625 20.1084C44.575 20.1084 43.75 19.2584 43.75 18.2334C43.75 17.2084 44.6 16.3584 45.625 16.3584C46.65 16.3584 47.5 17.2084 47.5 18.2334C47.5 19.2584 46.65 20.1084 45.625 20.1084Z" fill="#64E1F6"/>
<path d="M31.5508 20.1084C30.5008 20.1084 29.6758 19.2584 29.6758 18.2334C29.6758 17.2084 30.5258 16.3584 31.5508 16.3584C32.5758 16.3584 33.4258 17.2084 33.4258 18.2334C33.4258 19.2584 32.6008 20.1084 31.5508 20.1084Z" fill="#64E1F6"/>
</svg>
