<svg width="60" height="60" viewBox="0 0 60 60" fill="none" xmlns="http://www.w3.org/2000/svg">
<path d="M24.9754 56.8746C24.4754 56.8746 24.0754 56.7746 23.7754 56.6496C22.7754 56.2746 21.0754 55.0496 21.0754 51.1746V35.0496H15.2254C11.8754 35.0496 10.6754 33.4746 10.2504 32.5496C9.82544 31.5996 9.45044 29.6746 11.6504 27.1496L30.5754 5.64959C33.1254 2.74959 35.2004 2.94959 36.2004 3.32459C37.2004 3.69959 38.9004 4.92459 38.9004 8.79959V24.9246H44.7504C48.1004 24.9246 49.3004 26.4996 49.7254 27.4246C50.1504 28.3746 50.5254 30.2996 48.3254 32.8246L29.4004 54.3246C27.6254 56.3496 26.0754 56.8746 24.9754 56.8746ZM34.8254 6.84959C34.7504 6.94959 34.2254 7.19959 33.4004 8.14959L14.4754 29.6496C13.7754 30.4496 13.6754 30.9496 13.6754 31.0496C13.7254 31.0746 14.1754 31.3246 15.2254 31.3246H22.9504C23.9754 31.3246 24.8254 32.1746 24.8254 33.1996V51.1996C24.8254 52.4496 25.0504 52.9996 25.1504 53.1496C25.2254 53.0496 25.7504 52.7996 26.5754 51.8496L45.5004 30.3496C46.2004 29.5496 46.3004 29.0496 46.3004 28.9496C46.2504 28.9246 45.8004 28.6746 44.7504 28.6746H37.0254C36.0004 28.6746 35.1504 27.8246 35.1504 26.7996V8.79959C35.1754 7.54959 34.9254 7.02459 34.8254 6.84959Z" fill="#64E1F7"/>
</svg>
