<svg width="25" height="24" viewBox="0 0 25 24" fill="none" xmlns="http://www.w3.org/2000/svg">
    <path
        d="M15.06 18.8201C14.87 18.8201 14.68 18.7501 14.53 18.6001C14.24 18.3101 14.24 17.8301 14.53 17.5401L20.07 12.0001L14.53 6.46012C14.24 6.17012 14.24 5.69012 14.53 5.40012C14.82 5.11012 15.3 5.11012 15.59 5.40012L21.66 11.4701C21.95 11.7601 21.95 12.2401 21.66 12.5301L15.59 18.6001C15.44 18.7501 15.25 18.8201 15.06 18.8201Z"
        fill="#0074b8" />
    <path
        d="M20.9589 12.75H4.12891C3.71891 12.75 3.37891 12.41 3.37891 12C3.37891 11.59 3.71891 11.25 4.12891 11.25H20.9589C21.3689 11.25 21.7089 11.59 21.7089 12C21.7089 12.41 21.3689 12.75 20.9589 12.75Z"
        fill="#0074b8" />
</svg>