<svg width="29" height="21" viewBox="0 0 29 21" fill="none" xmlns="http://www.w3.org/2000/svg">
<g clip-path="url(#clip0_1433_604)">
<path d="M-0.0119087 11.6231L-0.0232318 11.5518C0.0393213 11.5314 0.0987129 11.5071 0.160853 11.4816C0.19896 11.466 0.238101 11.4499 0.279639 11.4341C0.383749 11.3944 0.495813 11.3596 0.611906 11.3575M-0.0119087 11.6231L8.87445 9.88668M-0.0119087 11.6231H0V11.5481H0.00151042H0.0765104V11.596L0 11.6981L-0.0119087 11.6231ZM0.611906 11.3575L0.613229 11.4325L0.611801 11.3575C0.611836 11.3575 0.611871 11.3575 0.611906 11.3575ZM0.611906 11.3575C1.14341 11.3474 1.67171 11.348 2.19909 11.3486C2.88691 11.3494 3.57317 11.3501 4.26292 11.3271M4.26292 11.3271L4.26542 11.4021L4.26292 11.3271ZM4.26292 11.3271C5.93909 11.271 7.47785 10.796 8.83074 9.82573M8.83074 9.82573C8.83074 9.82573 8.83074 9.82573 8.83074 9.82574L8.87445 9.88668M8.83074 9.82573L8.87445 9.88668M8.83074 9.82573C8.90695 9.77106 8.99393 9.70924 9.09072 9.67842C9.19274 9.64593 9.3036 9.64817 9.4244 9.71343L9.42448 9.71347C9.54217 9.77724 9.61252 9.86325 9.64765 9.96572C9.68164 10.0649 9.68045 10.1732 9.66871 10.2791C9.65321 10.4187 9.64375 10.5588 9.63417 10.7006C9.63245 10.7261 9.63073 10.7516 9.62896 10.7772C9.61744 10.9445 9.60426 11.1138 9.57925 11.2825M8.87445 9.88668C9.03003 9.77507 9.18484 9.66926 9.38875 9.77942C9.59341 9.8903 9.61682 10.0664 9.59417 10.2708C9.57847 10.4122 9.56889 10.5541 9.55932 10.6959C9.54631 10.8885 9.53332 11.0809 9.50505 11.2716M9.57925 11.2825L9.50505 11.2716M9.57925 11.2825C9.57925 11.2826 9.57925 11.2826 9.57924 11.2826L9.50505 11.2716M9.57925 11.2825C9.532 11.6036 9.46938 11.9234 9.40834 12.2351C9.38906 12.3335 9.36994 12.4312 9.35151 12.5278M9.50505 11.2716C9.45807 11.5908 9.396 11.9078 9.3351 12.2188C9.31483 12.3223 9.29469 12.4252 9.27527 12.5272M8.89983 20.3259C8.81272 20.2948 8.72575 20.2636 8.63884 20.2323C7.72672 19.9046 6.82251 19.5796 5.8607 19.4564C5.17291 19.3683 4.47765 19.3141 3.78474 19.2968L12.5017 10.7353M8.89983 20.3259C8.89981 20.3259 8.89979 20.3259 8.89977 20.3259L8.92505 20.2553L8.89983 20.3259ZM8.89983 20.3259C8.99972 20.3617 9.1072 20.3925 9.21423 20.3889C9.32526 20.385 9.43176 20.3442 9.52716 20.2459L9.52719 20.2459C9.62598 20.144 9.66489 20.0339 9.66129 19.9203C9.65783 19.8109 9.61516 19.7047 9.56504 19.6066C9.38271 19.2499 9.20269 18.8919 9.02413 18.5368C8.98967 18.4683 8.95525 18.3998 8.92089 18.3315C9.39715 18.2864 9.83577 18.3935 10.248 18.6764L10.2481 18.6764C10.5789 18.9033 10.9287 19.1066 11.2756 19.3083C11.3891 19.3743 11.5024 19.4402 11.6145 19.5066M11.6145 19.5066C11.6146 19.5066 11.6146 19.5067 11.6146 19.5067L11.6529 19.4422L11.6145 19.5066ZM11.6145 19.5066C11.7751 19.6021 11.9187 19.6511 12.0553 19.622C12.1926 19.5928 12.3005 19.4896 12.4017 19.3381C12.6874 18.9117 12.9693 18.4823 13.2488 18.0524L13.2488 18.0524C13.3559 17.8875 13.4134 17.7403 13.3808 17.5998C13.3482 17.4595 13.2318 17.3522 13.064 17.2503L13.0639 17.2502C12.8625 17.1282 12.661 17.0068 12.4596 16.8856C12.1339 16.6895 11.8086 16.4935 11.4843 16.2952C10.9153 15.9467 10.2957 15.7337 9.62082 15.6908L9.61607 15.7656L9.62082 15.6908C9.3528 15.6738 9.08089 15.6791 8.86837 15.6833C8.80233 15.6846 8.74203 15.6858 8.68936 15.6862C8.54501 15.5371 8.42876 15.4167 8.32133 15.3055C8.29484 15.2781 8.26889 15.2512 8.24319 15.2246H8.24362H8.24414H8.24466H8.24518H8.24569H8.24621H8.24673H8.24725H8.24777H8.24829H8.24881H8.24933H8.24984H8.25036H8.25088H8.2514H8.25192H8.25244H8.25296H8.25348H8.254H8.25452H8.25504H8.25556H8.25608H8.2566H8.25712H8.25764H8.25816H8.25868H8.2592H8.25972H8.26024H8.26076H8.26128H8.2618H8.26232H8.26284H8.26336H8.26388H8.2644H8.26492H8.26544H8.26596H8.26649H8.26701H8.26753H8.26805H8.26857H8.26909H8.26961H8.27013H8.27065H8.27117H8.2717H8.27222H8.27274H8.27326H8.27378H8.2743H8.27482H8.27534H8.27587H8.27639H8.27691H8.27743H8.27795H8.27847H8.279H8.27952H8.28004H8.28056H8.28108H8.2816H8.28213H8.28265H8.28317H8.28369H8.28421H8.28474H8.28526H8.28578H8.2863H8.28682H8.28734H8.28787H8.28839H8.28891H8.28943H8.28996H8.29048H8.291H8.29152H8.29204H8.29257H8.29309H8.29361H8.29413H8.29466H8.29518H8.2957H8.29622H8.29675H8.29727H8.29779H8.29831H8.29883H8.29936H8.29988H8.3004H8.30092H8.30145H8.30197H8.30249H8.30301H8.30354H8.30406H8.30458H8.3051H8.30563H8.30615H8.30667H8.30719H8.30772H8.30824H8.30876H8.30928H8.3098H8.31033H8.31085H8.31137H8.31189H8.31242H8.31294H8.31346H8.31398H8.31451H8.31503H8.31555H8.31607H8.3166H8.31712H8.31764H8.31816H8.31869H8.31921H8.31973H8.32025H8.32078H8.3213H8.32182H8.32234H8.32286H8.32339H8.32391C8.54022 15.2246 8.75695 15.2256 8.97392 15.2266C9.45537 15.2288 9.93805 15.2309 10.4202 15.2224C11.7189 15.1996 12.7809 14.7032 13.5639 13.6932C13.9359 13.2136 14.2996 12.7275 14.6621 12.242C14.7687 12.0992 14.8309 11.9673 14.8095 11.8351C14.7881 11.703 14.6876 11.597 14.5417 11.4944C14.5417 11.4944 14.5417 11.4944 14.5416 11.4944L14.4985 11.5557C14.0574 11.2448 13.6134 10.9375 13.1678 10.6331M13.1678 10.6331L13.2102 10.5713C13.2102 10.5713 13.2102 10.5712 13.2101 10.5712L13.1678 10.6331ZM13.1678 10.6331C12.8771 10.4338 12.7117 10.4607 12.5017 10.7353M12.5017 10.7353L12.4421 10.6898C12.4421 10.6898 12.4421 10.6898 12.4421 10.6898C12.327 10.8404 12.2154 10.9919 12.1043 11.1427C11.8724 11.4574 11.6428 11.7692 11.3878 12.0632C11.3016 12.1624 11.1962 12.2661 11.0831 12.3489C10.9692 12.4323 10.8529 12.4906 10.7442 12.5062L10.7549 12.5805M12.5017 10.7353C12.3884 10.8836 12.2776 11.0339 12.167 11.1841C11.9341 11.5002 11.7014 11.8161 11.4444 12.1123C11.267 12.3167 11.0064 12.5442 10.7549 12.5805M10.7549 12.5805C10.3904 12.6324 10.0161 12.6211 9.66519 12.6105C9.55317 12.6071 9.44353 12.6038 9.33735 12.6026C9.34202 12.5778 9.34674 12.5528 9.35151 12.5278M10.7549 12.5805L10.7444 12.5062C10.3866 12.5572 10.0227 12.5462 9.67417 12.5356C9.56489 12.5323 9.45712 12.5291 9.35151 12.5278" fill="white" stroke="white" stroke-width="0.15"/>
<path d="M19.4958 19.3357C19.5439 19.0168 19.606 18.6997 19.6684 18.3809C19.6893 18.2738 19.7103 18.1666 19.7308 18.059C19.7056 18.059 19.6801 18.0589 19.6545 18.0588M19.4958 19.3357L20.06 10.3578C19.8598 10.2984 19.6688 10.2621 19.5124 10.4324M19.4958 19.3357C19.4691 19.5143 19.4574 19.6947 19.4457 19.8754C19.4368 20.0114 19.428 20.1475 19.4127 20.2829M19.4958 19.3357L19.4127 20.2829M19.6545 18.0588C19.6593 18.0338 19.664 18.0088 19.6688 17.9839C19.5711 17.9834 19.4707 17.9821 19.3684 17.9808C19.0539 17.9768 18.7205 17.9726 18.3887 17.9906M19.6545 18.0588C19.635 18.1608 19.6151 18.2627 19.5951 18.3647C19.5326 18.6843 19.47 19.0039 19.4217 19.3245L19.4216 19.3246C19.3977 19.4844 19.3857 19.6451 19.3752 19.8035C19.3737 19.826 19.3723 19.8484 19.3708 19.8708C19.362 20.0069 19.3532 20.141 19.3382 20.2745C19.326 20.381 19.3137 20.5 19.3389 20.6092C19.3656 20.7247 19.4331 20.826 19.5685 20.8984L19.5686 20.8984C19.6997 20.9682 19.8197 20.9665 19.9291 20.9283C20.0295 20.8933 20.1209 20.8272 20.2017 20.7688L20.2103 20.7626L20.2104 20.7626C21.4406 19.8741 22.8388 19.3954 24.3632 19.3171C25.3846 19.265 26.4087 19.2654 27.435 19.2658C27.7776 19.266 28.1205 19.2661 28.4636 19.2643H28.4637C28.6708 19.2629 28.8607 19.2256 29.0065 19.0711L29.0759 19.1378V18.9617V11.6239V11.5945L29.0559 11.573C28.8754 11.3778 28.6541 11.3241 28.3991 11.3264L28.399 11.3264C28.2549 11.3278 28.1108 11.3294 27.9669 11.331C27.0247 11.3414 26.0846 11.3517 25.1456 11.3228L25.1455 11.3228C24.4127 11.3011 23.6722 11.2685 22.9692 11.1151C22.2622 10.9607 21.5712 10.7458 20.8767 10.5297C20.6124 10.4475 20.3477 10.3652 20.0813 10.2859L20.0813 10.2859C19.9808 10.2561 19.8722 10.2285 19.7659 10.2341C19.6553 10.2398 19.5495 10.2811 19.4572 10.3817M19.6545 18.0588C19.5598 18.0583 19.463 18.057 19.3647 18.0558C19.0512 18.0518 18.722 18.0476 18.3928 18.0655M18.3887 17.9906C18.0428 18.0094 17.7717 18.1971 17.5685 18.4674C17.2204 18.9298 16.8722 19.3922 16.5226 19.8531C16.2877 20.1619 16.1291 20.1894 15.8149 19.9734M18.3887 17.9906L18.3928 18.0655M18.3887 17.9906L18.3927 18.0655C18.3927 18.0655 18.3928 18.0655 18.3928 18.0655M15.8149 19.9734C15.3701 19.6676 14.9261 19.361 14.485 19.0501C14.2267 18.8682 14.1943 18.6979 14.3785 18.4501C14.4715 18.3252 14.5638 18.1998 14.6562 18.0744C14.9615 17.6598 15.267 17.245 15.5952 16.8477M15.8149 19.9734L15.7724 20.0352C15.9317 20.1447 16.0717 20.2078 16.2111 20.184C16.3499 20.1603 16.4635 20.0546 16.5823 19.8985L16.5823 19.8984C16.9321 19.4374 17.2803 18.9749 17.6284 18.5126L17.6285 18.5125C17.8223 18.2546 18.0749 18.0828 18.3928 18.0655M15.8149 19.9734L15.7724 20.0352C15.3276 19.7294 14.8832 19.4226 14.4418 19.1114M15.5952 16.8477C16.3224 15.9672 17.2876 15.5077 18.4597 15.4801M15.5952 16.8477L15.5373 16.7999M15.5952 16.8477L15.5373 16.7999C15.5373 16.7999 15.5373 16.7999 15.5373 16.7999M18.4597 15.4801C18.9661 15.4682 19.4733 15.4706 19.9805 15.4731C20.2099 15.4742 20.4393 15.4753 20.6687 15.4751H20.8208C20.7941 15.4501 20.7674 15.4251 20.7406 15.4001M18.4597 15.4801L18.4579 15.4052C17.2648 15.4332 16.2789 15.902 15.5373 16.7999M18.4597 15.4801L19.4572 10.3817M20.7406 15.4001H20.7411H20.7416H20.7422H20.7427H20.7432H20.7437H20.7443H20.7448H20.7453H20.7458H20.7464H20.7469H20.7474H20.7479H20.7484H20.749H20.7495H20.75H20.7505H20.7511H20.7516H20.7521H20.7526H20.7532H20.7537H20.7542H20.7547H20.7553H20.7558H20.7563H20.7568H20.7574H20.7579H20.7584H20.7589H20.7594H20.76H20.7605H20.761H20.7615H20.7621H20.7626H20.7631H20.7636H20.7642H20.7647H20.7652H20.7657H20.7662H20.7668H20.7673H20.7678H20.7683H20.7689H20.7694H20.7699H20.7704H20.7709H20.7715H20.772H20.7725H20.773H20.7735H20.7741H20.7746H20.7751H20.7756H20.7761H20.7767H20.7772H20.7777H20.7782H20.7787H20.7793H20.7798H20.7803H20.7808H20.7813H20.7819H20.7824H20.7829H20.7834H20.7839H20.7845H20.785H20.7855H20.786H20.7865H20.7871H20.7876H20.7881H20.7886H20.7891H20.7896H20.7902H20.7907H20.7912H20.7917H20.7922H20.7928H20.7933H20.7938H20.7943H20.7948H20.7953H20.7959H20.7964H20.7969H20.7974H20.7979H20.7984H20.799H20.7995H20.8H20.8005H20.801H20.8015H20.8021H20.8026H20.8031H20.8036H20.8041H20.8046H20.8051H20.8057H20.8062H20.8067H20.8072H20.8077H20.8082H20.8088H20.8093H20.8098H20.8103H20.8108H20.8113H20.8118H20.8123H20.8129H20.8134H20.8139H20.8144H20.8149H20.8154H20.8159H20.8165H20.817H20.8175H20.818H20.8185H20.819H20.8195H20.82H20.8206H20.8211H20.8216H20.8221H20.8226H20.8231H20.8236H20.8241H20.8246H20.8252H20.8257H20.8262H20.8267H20.8272H20.8277H20.8282H20.8287H20.8292H20.8297H20.8303H20.8308H20.8313H20.8318H20.8323H20.8328H20.8333H20.8338H20.8343H20.8348H20.8353H20.8359H20.8364H20.8369H20.8374H20.8379H20.8384H20.8389H20.8394H20.8399H20.8404H20.8409H20.8414H20.8419H20.8424H20.843H20.8435H20.844H20.8445H20.845H20.8455H20.846H20.8465H20.847H20.8475H20.848H20.8485H20.849H20.8495H20.85H20.8504C20.7267 15.2844 20.6028 15.1685 20.4629 15.0376C20.4123 14.9902 20.3595 14.9408 20.3039 14.8888C20.1894 14.8809 20.0649 14.8772 19.9342 14.8733C19.6164 14.8637 19.2612 14.853 18.9204 14.7801C18.4506 14.6793 17.9884 14.4923 17.5625 14.2727M20.7406 15.4001C20.636 15.3023 20.5295 15.2026 20.4117 15.0924C20.367 15.0505 20.3207 15.0072 20.2722 14.9619C20.17 14.9555 20.058 14.9522 19.9396 14.9486C19.6195 14.9389 19.2525 14.9278 18.9047 14.8534L18.9046 14.8534C18.4265 14.7509 17.9579 14.561 17.5281 14.3394L17.5625 14.2727M20.7406 15.4001L19.4305 10.9984M17.5625 14.2727C17.1517 14.0616 16.76 13.8165 16.3683 13.5715C16.2142 13.475 16.0601 13.3786 15.9048 13.2842C15.5989 13.098 15.5604 12.9298 15.7568 12.6276C16.0407 12.1892 16.3277 11.7529 16.6185 11.3195C16.8118 11.0303 16.99 10.9941 17.3065 11.1782M17.5625 14.2727L17.5282 14.3395C17.1144 14.1268 16.7185 13.8791 16.3259 13.6334C16.1723 13.5373 16.0193 13.4416 15.8659 13.3483L15.8658 13.3483C15.7091 13.2529 15.5997 13.1503 15.5693 13.016C15.5389 12.8817 15.5934 12.7415 15.6939 12.5868C15.978 12.148 16.2652 11.7114 16.5562 11.2777C16.6564 11.1278 16.7637 11.0261 16.9013 10.9979C17.0375 10.97 17.1817 11.0188 17.3442 11.1134L17.3065 11.1782M17.3065 11.1782C17.4228 11.2457 17.5394 11.3128 17.6561 11.38C18.0731 11.6202 18.4905 11.8606 18.8977 12.116M17.3065 11.1782L17.3441 11.1133C17.46 11.1805 17.5763 11.2475 17.6928 11.3146C18.11 11.5549 18.529 11.7962 18.9375 12.0524M18.8977 12.116C19.2801 12.3554 19.6879 12.3881 20.118 12.3591C20.1057 12.3348 20.0935 12.3105 20.0812 12.2863M18.8977 12.116L18.9375 12.0524M18.8977 12.116L18.9375 12.0524C18.9375 12.0524 18.9375 12.0524 18.9375 12.0524M20.0812 12.2863C20.1082 12.2847 20.1352 12.2828 20.1624 12.2807C20.1088 12.1744 20.0555 12.0688 20.0024 11.9636C19.8327 11.6274 19.6654 11.2959 19.4973 10.9644M20.0812 12.2863C20.0324 12.1895 19.9838 12.0933 19.9354 11.9974C19.7658 11.6612 19.5985 11.3298 19.4305 10.9984M20.0812 12.2863C19.67 12.311 19.2914 12.2739 18.9375 12.0524M19.4973 10.9644C19.4052 10.7832 19.3569 10.6013 19.5124 10.4324M19.4973 10.9644L19.4305 10.9984M19.4973 10.9644L19.4304 10.9983M19.5124 10.4324L19.4572 10.3817M19.5124 10.4324L19.4573 10.3816C19.4572 10.3817 19.4572 10.3817 19.4572 10.3817M19.4572 10.3817C19.3659 10.4808 19.332 10.588 19.3371 10.6973C19.342 10.8026 19.3829 10.9049 19.4304 10.9983M19.4572 10.3817L19.4304 10.9983M14.4418 19.1114C14.4418 19.1114 14.4418 19.1114 14.4418 19.1114L14.485 19.0501L14.4418 19.1114ZM14.4418 19.1114C14.3074 19.0168 14.2147 18.9139 14.192 18.7881C14.1691 18.6614 14.2216 18.5354 14.3183 18.4053L14.3184 18.4053C14.4108 18.2811 14.5028 18.1562 14.5949 18.031C14.9005 17.6161 15.2077 17.199 15.5373 16.7999M19.4127 20.2829C19.3878 20.4996 19.372 20.7083 19.6038 20.8322C19.8237 20.9492 19.9925 20.8274 20.1615 20.7053L20.1664 20.7018C21.4088 19.8046 22.821 19.3212 24.3594 19.2422C25.3829 19.19 26.4098 19.1904 27.4366 19.1908C27.7788 19.1909 28.1211 19.1911 28.4632 19.1893L19.4127 20.2829ZM19.4304 10.9983L19.4305 10.9984M21.8415 14.9017C21.8919 14.8703 21.9416 14.8393 21.9906 14.8086C22.1804 14.6899 22.3615 14.5767 22.5484 14.4706C22.6512 14.4122 22.7331 14.3414 22.788 14.2517C22.8433 14.1614 22.868 14.0575 22.865 13.939L22.865 13.9389C22.8582 13.6778 22.8582 13.416 22.865 13.155L22.865 13.1548C22.8679 13.0285 22.8405 12.9185 22.777 12.8267C22.7139 12.7355 22.6199 12.6692 22.502 12.6212L21.8415 14.9017ZM21.8415 14.9017C21.8817 14.9229 21.9211 14.9439 21.9599 14.9644C22.1407 15.0604 22.308 15.1491 22.4788 15.2331C22.5993 15.2923 22.6955 15.3683 22.7597 15.4681C22.8244 15.5685 22.8526 15.6869 22.8476 15.8235L22.8476 15.8236C22.8363 16.1214 22.8311 16.4185 22.849 16.7127L22.849 16.7128C22.8585 16.8729 22.8244 17.0048 22.7443 17.1111C22.6654 17.216 22.5479 17.2878 22.4061 17.3405L22.406 17.3405C22.2409 17.4016 22.0821 17.4672 21.9219 17.5334C21.7989 17.5842 21.6751 17.6354 21.5469 17.6851C21.08 17.8662 20.78 18.0998 20.5991 18.4148C20.4292 18.7107 20.3591 19.0874 20.3669 19.5799C20.3828 19.5733 20.3977 19.5665 20.413 19.5583C21.7888 18.8072 23.274 18.4326 24.8476 18.3939C25.5491 18.3765 26.2515 18.3779 26.9529 18.3793C27.2712 18.3799 27.5894 18.3805 27.9071 18.3794L27.9073 18.3794L27.908 18.3794H27.9086H27.9093H27.9099H27.9105H27.9112H27.9118H27.9125H27.9131H27.9137H27.9144H27.915H27.9157H27.9163H27.917H27.9176H27.9182H27.9189H27.9195H27.9202H27.9208H27.9215H27.9221H27.9227H27.9234H27.924H27.9247H27.9253H27.9259H27.9266H27.9272H27.9279H27.9285H27.9292H27.9298H27.9304H27.9311H27.9317H27.9324H27.933H27.9337H27.9343H27.9349H27.9356H27.9362H27.9369H27.9375H27.9382H27.9388H27.9394H27.9401H27.9407H27.9414H27.942H27.9427H27.9433H27.9439H27.9446H27.9452H27.9459H27.9465H27.9472H27.9478H27.9484H27.9491H27.9497H27.9504H27.951H27.9517H27.9523H27.9529H27.9536H27.9542H27.9549H27.9555H27.9562H27.9568H27.9574H27.9581H27.9587H27.9594H27.96H27.9607H27.9613H27.9619H27.9626H27.9632H27.9639H27.9645H27.9652H27.9658H27.9665H27.9671H27.9677H27.9684H27.969H27.9697H27.9703H27.971H27.9716H27.9722H27.9729H27.9735H27.9742H27.9748H27.9755H27.9761H27.9768H27.9774H27.978H27.9787H27.9793H27.98H27.9806H27.9813H27.9819H27.9826H27.9832H27.9838H27.9845H27.9851H27.9858H27.9864H27.9871H27.9877H27.9884H27.989H27.9896H27.9903H27.9909H27.9916H27.9922H27.9929H27.9935H27.9942H27.9948H27.9955H27.9961H27.9967H27.9974H27.998H27.9987H27.9993H28H28.0006H28.0013H28.0019H28.0026H28.0032H28.0038H28.0045H28.0051H28.0058H28.0064H28.0071H28.0077H28.0084H28.009H28.0097H28.0103H28.011H28.0116H28.0122H28.0129H28.0135H28.0142H28.0148H28.0155H28.0161H28.0168H28.0174H28.0181H28.0187H28.0194H28.02H28.0206H28.0213H28.0219H28.0226H28.0232H28.0239H28.0245H28.0252H28.0258H28.0265H28.0271H28.0278H28.0284H28.0291H28.0297H28.0304H28.031H28.0317H28.0323H28.0329H28.0336H28.0342H28.0349H28.0355H28.0362H28.0368H28.0375H28.0381H28.0388H28.0394H28.0401H28.0407H28.0414H28.042H28.0427H28.0433H28.044H28.0446H28.0453H28.0459H28.0466H28.0472H28.0479H28.0485H28.0491H28.0498H28.0504H28.0511H28.0517H28.0524H28.053H28.0537H28.0543H28.055H28.0556H28.0563H28.0569H28.0576H28.0582H28.0589H28.0595H28.0602H28.0608H28.0615H28.0621H28.0628H28.0634H28.0641H28.0647H28.0654H28.066H28.0667H28.0673H28.068H28.0686H28.0693H28.0699H28.0706H28.0712H28.0719H28.0725H28.0732H28.0738H28.0745H28.0751H28.0758H28.0764H28.0771H28.0777H28.0784H28.079H28.0797H28.0803H28.081H28.0816H28.0823H28.0829H28.0836H28.0843H28.0849H28.0856H28.0862H28.0869H28.0875H28.0882H28.0888H28.0895H28.0901H28.0908H28.0914H28.0921H28.0927H28.0934H28.094H28.0947H28.0953H28.096H28.0966H28.0973H28.0979H28.0986H28.0992H28.0999H28.1006H28.1012H28.1019H28.1025H28.1032H28.1038H28.1045H28.1051H28.1058H28.1064H28.1071H28.1077H28.1084H28.109H28.1097H28.1104H28.111H28.1117H28.1123H28.113H28.1136H28.1143H28.1149H28.1156H28.1162H28.1169H28.1175H28.1182H28.1189H28.1195H28.1202H28.1208H28.1215H28.1221H28.1228H28.1234H28.1241H28.1248H28.1254H28.1261H28.1267H28.1274H28.128H28.1287H28.1293H28.13H28.1306H28.1313H28.132H28.1326H28.1333H28.1339H28.1346H28.1352H28.1359H28.1366H28.1372H28.1379H28.1385H28.1392H28.1398H28.1405H28.1411H28.1418H28.1425H28.1431H28.1438H28.1444H28.1451H28.1457H28.1464H28.1471H28.1477H28.1484H28.149H28.1497H28.1503H28.151H28.1517H28.1523H28.153H28.1536H28.1543H28.155H28.1556H28.1563H28.1569H28.1576H28.1582H28.1589H28.1596H28.1602H28.1609H28.1615H28.1622H28.1629H28.1635H28.1642H28.1648H28.1655H28.1661V12.1946H28.166H28.1654H28.1647H28.1641H28.1634H28.1628H28.1621H28.1615H28.1608H28.1602H28.1595H28.1589H28.1582H28.1576H28.1569H28.1563H28.1556H28.155H28.1543H28.1537H28.153H28.1524H28.1517H28.1511H28.1505H28.1498H28.1492H28.1485H28.1479H28.1472H28.1466H28.1459H28.1453H28.1447H28.144H28.1434H28.1427H28.1421H28.1414H28.1408H28.1402H28.1395H28.1389H28.1382H28.1376H28.137H28.1363H28.1357H28.135H28.1344H28.1338H28.1331H28.1325H28.1319H28.1312H28.1306H28.1299H28.1293H28.1287H28.128H28.1274H28.1268H28.1261H28.1255H28.1249H28.1242H28.1236H28.123H28.1223H28.1217H28.121H28.1204H28.1198H28.1192H28.1185H28.1179H28.1173H28.1166H28.116H28.1154H28.1147H28.1141H28.1135H28.1128H28.1122H28.1116H28.1109H28.1103H28.1097H28.1091H28.1084H28.1078H28.1072H28.1065H28.1059H28.1053H28.1047H28.104H28.1034H28.1028H28.1022H28.1015H28.1009H28.1003H28.0997H28.099H28.0984H28.0978H28.0972H28.0965H28.0959H28.0953H28.0947H28.094H28.0934H28.0928H28.0922H28.0915H28.0909H28.0903H28.0897H28.089H28.0884H28.0878H28.0872H28.0866H28.0859H28.0853H28.0847H28.0841H28.0835H28.0828H28.0822H28.0816H28.081H28.0804H28.0797H28.0791H28.0785H28.0779H28.0773H28.0767H28.076H28.0754H28.0748H28.0742H28.0736H28.0729H28.0723H28.0717H28.0711H28.0705H28.0699H28.0693H28.0686H28.068H28.0674H28.0668H28.0662H28.0656H28.0649H28.0643H28.0637H28.0631H28.0625H28.0619H28.0613H28.0606H28.06H28.0594H28.0588H28.0582H28.0576H28.057H28.0564H28.0558H28.0551H28.0545H28.0539H28.0533H28.0527H28.0521H28.0515H28.0509H28.0503H28.0496H28.049H28.0484H28.0478H28.0472H28.0466H28.046H28.0454H28.0448H28.0442H28.0435H28.0429H28.0423H28.0417H28.0411H28.0405H28.0399H28.0393H28.0387H28.0381H28.0375H28.0369H28.0363H28.0356H28.035H28.0344H28.0338H28.0332H28.0326H28.032H28.0314H28.0308H28.0302H28.0296H28.029H28.0284H28.0278H28.0272H28.0266H28.026H28.0254H28.0248H28.0241H28.0235H28.0229H28.0223H28.0217H28.0211H28.0205H28.0199H28.0193H28.0187H28.0181H28.0175H28.0169H28.0163H28.0157H28.0151H28.0145H28.0139H28.0133H28.0127H28.0121H28.0115H28.0109H28.0103H28.0097H28.0091H28.0085H28.0079H28.0073H28.0067H28.0061H28.0055H28.0049H28.0043H28.0037H28.0031H28.0025H28.0019H28.0013H28.0007H28.0001H27.9995H27.9989H27.9983H27.9977H27.9971H27.9965H27.9959H27.9953H27.9947H27.9941H27.9935H27.9929H27.9923H27.9917H27.9911H27.9905H27.9899H27.9893H27.9887H27.9881H27.9875H27.9869H27.9863H27.9857H27.9851H27.9845H27.9839H27.9833H27.9827H27.9821H27.9815H27.9809H27.9803H27.9797H27.9792H27.9786H27.978H27.9774H27.9768H27.9762H27.9756H27.975H27.9744H27.9738H27.9732H27.9726H27.972H27.9714H27.9708H27.9702H27.9696H27.969H27.9684H27.9678H27.9672H27.9666H27.966H27.9654H27.9649H27.9643H27.9637H27.9631H27.9625H27.9619H27.9613H27.9607H27.9601H27.9595H27.9589H27.9583H27.9577H27.9571H27.9565H27.9559H27.9553H27.9547H27.9542H27.9536H27.953H27.9524H27.9518H27.9512H27.9506H27.95H27.9494H27.9488H27.9482H27.9476H27.947H27.9464H27.9458H27.9452H27.9447H27.9441H27.9435H27.9429H27.9423H27.9417H27.9411H27.9405H27.9399H27.9393H27.9387H27.9381H27.9375H27.9369H27.9363H27.9358H27.9352H27.9346H27.934H27.9334H27.9328H27.9322H27.9316H27.931H27.9304H27.9298H27.9292H27.9286H27.928H27.9274H27.9269H27.9263H27.9257H27.9251H27.9245H27.9239H27.9233H27.9227H27.9221H27.9215H27.9209C27.6499 12.1946 27.3782 12.1971 27.1059 12.1997C26.4808 12.2055 25.8534 12.2114 25.2287 12.1866L25.2286 12.1866C24.4192 12.1539 23.6032 12.0965 22.803 11.9668C22.2956 11.8846 21.7952 11.749 21.2902 11.612C21.1127 11.5639 20.9347 11.5156 20.7555 11.4695C20.9112 11.8002 21.1677 12.043 21.5232 12.2019C21.8473 12.3465 22.1728 12.4868 22.5019 12.6212L21.8415 14.9017ZM21.9487 16.2723C21.9409 16.2702 21.9329 16.2675 21.9247 16.2648C21.9071 16.2588 21.889 16.2527 21.871 16.2527C21.5336 16.2527 21.1961 16.2513 20.8587 16.2499C20.0457 16.2466 19.2327 16.2433 18.4204 16.2592L21.8906 16.3324M21.9487 16.2723L21.8788 16.2994C21.8833 16.3109 21.8872 16.3219 21.8906 16.3324M21.9487 16.2723C22.0409 16.5092 21.9487 16.631 21.7131 16.7209M21.9487 16.2723L21.7131 16.7209M21.8906 16.3324C21.8898 16.3322 21.8889 16.3319 21.888 16.3316C21.877 16.3282 21.8726 16.3277 21.871 16.3277C21.5329 16.3277 21.1951 16.3263 20.8574 16.3249C20.0448 16.3216 19.2332 16.3183 18.4219 16.3342L18.4218 16.3342C17.7162 16.3477 17.0647 16.5723 16.5877 17.063L16.5877 17.063C16.2555 17.4047 15.964 17.7788 15.6667 18.1603C15.5499 18.3102 15.4322 18.4612 15.3108 18.6119C15.4251 18.6889 15.5331 18.7617 15.639 18.8332C15.775 18.9249 15.9076 19.0144 16.0458 19.1073C16.1261 18.9991 16.2051 18.8934 16.283 18.7891C16.4685 18.5409 16.6477 18.3012 16.8217 18.0572L16.8218 18.0572C17.2609 17.442 17.8752 17.1569 18.6361 17.1539H18.6361C18.8761 17.153 19.1154 17.1532 19.3546 17.1534C19.6995 17.1537 20.0441 17.154 20.3893 17.151L20.3894 17.151C20.482 17.1503 20.5783 17.1348 20.6578 17.1018C20.7949 17.0438 20.9299 16.9817 21.0661 16.919C21.0996 16.9036 21.1331 16.8882 21.1668 16.8728C21.3368 16.795 21.5091 16.718 21.6864 16.6508C21.7999 16.6075 21.8611 16.5625 21.8888 16.5144C21.9113 16.4752 21.919 16.4202 21.8906 16.3324ZM21.7131 16.7209C21.5039 16.8002 21.301 16.8936 21.0979 16.9869C20.9615 17.0497 20.8251 17.1124 20.6868 17.1709L21.7131 16.7209ZM21.6081 13.2335L21.5918 13.3067C21.7234 13.3361 21.8179 13.391 21.8666 13.4567C21.9113 13.5171 21.9251 13.5968 21.8742 13.7034C21.8398 13.7754 21.7698 13.8626 21.6878 13.9319C21.6032 14.0035 21.522 14.0424 21.4673 14.0427L21.4672 14.0427C21.3724 14.0432 21.2775 14.0441 21.1826 14.0449C20.4279 14.0516 19.674 14.0583 18.9504 13.9265L18.9504 13.9265C18.6832 13.8778 18.4254 13.7634 18.1664 13.6253C18.0508 13.5637 17.936 13.4979 17.8202 13.4316C17.8064 13.4237 17.7926 13.4158 17.7788 13.4079C17.6494 13.3338 17.5187 13.2597 17.3867 13.1921L17.3867 13.1921C17.2148 13.1043 17.0534 13.0021 16.8809 12.8929C16.8194 12.8539 16.7564 12.8141 16.6911 12.7737C16.8479 12.5361 16.9949 12.3126 17.1512 12.0748C17.2651 12.1438 17.378 12.2113 17.4897 12.2782C17.7793 12.4513 18.0618 12.6203 18.338 12.7999C18.7957 13.0977 19.2889 13.246 19.8461 13.2244L19.8462 13.2244C20.287 13.2071 20.729 13.2135 21.172 13.2244C21.2696 13.2268 21.3633 13.2505 21.4658 13.2763C21.5062 13.2865 21.548 13.297 21.5919 13.3067L21.6081 13.2335ZM21.6081 13.2335C21.8906 13.2965 22.0643 13.4792 21.9419 13.7357L19.8432 13.1494C20.2865 13.132 20.7306 13.1386 21.1739 13.1494C21.2805 13.1521 21.3862 13.1787 21.4917 13.2054C21.5306 13.2151 21.5693 13.2249 21.6081 13.2335Z" fill="white" stroke="white" stroke-width="0.15"/>
<path d="M23.3786 0.0768291C23.5299 0.160901 23.6847 0.238753 23.8394 0.316585C23.9435 0.368914 24.0475 0.421233 24.1504 0.475427M23.3786 0.0768291L16.8876 8.32273C17.088 8.43051 17.2902 8.53575 17.4925 8.64104C17.5554 8.67381 17.6184 8.70659 17.6813 8.73944C17.8724 8.83873 18.0529 8.83221 18.2424 8.72133M23.3786 0.0768291C23.1754 -0.035503 22.998 -0.022458 22.7978 0.0942224L23.3786 0.0768291ZM24.1504 0.475427C24.5106 0.66458 24.5612 0.854457 24.3294 1.17551M24.1504 0.475427L24.1853 0.409064C24.3687 0.505333 24.4974 0.613176 24.5346 0.757271C24.5721 0.902729 24.5089 1.05503 24.3902 1.21941M24.1504 0.475427L22.9942 6.03867M24.3294 1.17551C23.8394 1.85418 23.3479 2.53227 22.8564 3.21032C22.5722 3.60244 22.288 3.99455 22.0041 4.38676C21.9637 4.44215 21.9247 4.49825 21.8819 4.55991C21.8767 4.56743 21.8714 4.57504 21.8661 4.58274C21.8885 4.59446 21.9108 4.60615 21.9331 4.61779M24.3294 1.17551L24.3902 1.21941M24.3294 1.17551L24.3902 1.21941M21.9331 4.61779C21.9192 4.63771 21.9049 4.65833 21.8898 4.67983C21.9824 4.72824 22.0739 4.77588 22.1645 4.82306C22.4261 4.95932 22.6805 5.09179 22.933 5.22816C23.3303 5.44268 23.3423 5.74851 22.9564 5.9739M21.9331 4.61779C22.0224 4.66451 22.1109 4.71057 22.1986 4.75624C22.4604 4.89263 22.7156 5.02552 22.9686 5.16217C23.176 5.27415 23.3076 5.42305 23.3134 5.59442C23.3192 5.76692 23.1965 5.92055 22.9942 6.03867M21.9331 4.61779C21.9368 4.61244 21.9404 4.60714 21.9441 4.60189C21.9866 4.54061 22.0248 4.48563 22.0647 4.43096L22.0649 4.43074C22.3487 4.03863 22.6329 3.64657 22.9171 3.25447C23.4086 2.57635 23.9002 1.89814 24.3902 1.21941M22.9564 5.9739C22.1373 6.45294 21.3172 6.9302 20.4971 7.40744C19.7452 7.84497 18.9934 8.28249 18.2424 8.72133M22.9564 5.9739L22.9942 6.03867M22.9564 5.9739L22.9943 6.03864C22.9943 6.03865 22.9943 6.03866 22.9942 6.03867M18.2424 8.72133L18.2803 8.78608C18.2803 8.78608 18.2803 8.78607 18.2803 8.78606L18.2424 8.72133ZM18.8856 4.04721C18.9627 4.08758 19.0404 4.1283 19.119 4.16954L24.1853 0.409024C24.0795 0.353325 23.9746 0.300592 23.8704 0.248217C23.7173 0.171225 23.5657 0.0950054 23.415 0.0112719L23.4149 0.0111948C23.3037 -0.0502721 23.1951 -0.0797497 23.0841 -0.0752936C22.9737 -0.0708613 22.8673 -0.0331125 22.7601 0.0293881C21.8582 0.553852 20.9546 1.07551 20.0509 1.59723C19.3873 1.98033 18.7236 2.36347 18.0606 2.74777L18.0605 2.74778C17.8576 2.86545 17.7342 3.01881 17.7395 3.1912C17.7448 3.36257 17.8763 3.51134 18.0837 3.62294C18.347 3.76515 18.6121 3.90398 18.8856 4.04721ZM19.1699 3.18462C19.5328 2.97185 19.8694 2.77463 20.2067 2.57741C20.4512 2.43482 20.6963 2.2929 20.9415 2.15092C21.5838 1.77895 22.2269 1.40658 22.861 1.02071L22.861 1.0207C22.9805 0.947932 23.0742 0.920106 23.1574 0.926687C23.226 0.932109 23.2967 0.96166 23.3767 1.02604C23.1819 1.29516 22.9869 1.56472 22.7917 1.83454C22.5233 2.20548 22.2546 2.57692 21.9856 2.94841C21.8548 3.12911 21.7237 3.30978 21.5927 3.49044C21.3844 3.77763 21.1761 4.06482 20.9684 4.35221C20.8943 4.45442 20.8379 4.5453 20.8039 4.62841C20.7697 4.71225 20.7561 4.79326 20.7748 4.87248C20.7934 4.95166 20.8416 5.01816 20.9096 5.078C20.9769 5.13734 21.0677 5.19374 21.1792 5.25248L21.1794 5.25257C21.4078 5.37222 21.6358 5.49296 21.8853 5.6252C21.7832 5.68553 21.6827 5.74501 21.5832 5.80385C21.3448 5.94493 21.1127 6.0823 20.8795 6.21861C20.6001 6.38179 20.3197 6.544 20.0391 6.70629C19.4238 7.06225 18.8077 7.41865 18.1998 7.78676C18.0807 7.8588 17.9867 7.88937 17.9027 7.88407C17.8336 7.87971 17.7615 7.85038 17.6795 7.78105C17.7793 7.64331 17.879 7.50572 17.9786 7.36828C18.6841 6.3946 19.3846 5.42778 20.084 4.46042C20.1599 4.35539 20.2179 4.26284 20.2527 4.17875C20.2877 4.09382 20.3015 4.01181 20.281 3.93143C20.2606 3.85142 20.2093 3.78474 20.1381 3.72433C20.0672 3.66427 19.9715 3.60615 19.8534 3.54417L19.8533 3.54415C19.6339 3.42919 19.4145 3.31369 19.1699 3.18462Z" fill="white" stroke="white" stroke-width="0.15"/>
<path d="M4.76482 0.416681C4.60914 0.500142 4.50036 0.603413 4.4663 0.736499C4.43203 0.870393 4.47946 1.01023 4.57869 1.15192L11.3026 8.73086L11.3268 8.80184C11.3268 8.80183 11.3269 8.80181 11.3269 8.8018C11.5213 8.73551 11.7056 8.63331 11.8831 8.53493C11.9525 8.49641 12.0209 8.45848 12.0885 8.42352M4.76482 0.416681L4.80026 0.482781L4.76478 0.416702C4.76479 0.416695 4.76481 0.416688 4.76482 0.416681ZM4.76482 0.416681C4.82312 0.385383 4.88178 0.353016 4.94092 0.320382C5.16042 0.199273 5.38659 0.0744801 5.62558 -0.0130566L5.62572 -0.0131084C5.71187 -0.0444669 5.81833 -0.0613531 5.9209 -0.0605696C6.02233 -0.0597947 6.12917 -0.0416608 6.21124 0.00532517L6.21131 0.00536566C7.7977 0.915873 9.37266 1.84373 10.9465 2.77282L10.9465 2.77283C11.1424 2.88852 11.2584 3.04272 11.2535 3.21333C11.2487 3.3832 11.1248 3.53248 10.9262 3.64099L10.9262 3.64099C10.6783 3.77645 10.4267 3.90731 10.1665 4.04264C10.0728 4.09142 9.97787 4.14078 9.88163 4.19115C9.88349 4.19391 9.88534 4.19666 9.88718 4.19939C9.92354 4.25346 9.95652 4.30248 9.99124 4.351C10.4753 5.0197 10.9596 5.6881 11.4438 6.35641C11.7295 6.75059 12.0151 7.14474 12.3006 7.5389L12.3006 7.53897C12.4379 7.72904 12.5168 7.89415 12.4795 8.04912C12.4423 8.20396 12.297 8.31567 12.0885 8.42352M12.0885 8.42352L12.054 8.3569M12.0885 8.42352C12.0885 8.42351 12.0885 8.42351 12.0885 8.4235L12.054 8.3569M12.054 8.3569C12.4717 8.14093 12.5147 7.96337 12.2398 7.58289L12.054 8.3569ZM7.06945 4.61725L5.28464 2.13692L5.28463 2.13691C5.21992 2.04694 5.15489 1.95696 5.08979 1.86689C4.91836 1.62969 4.74648 1.39187 4.57872 1.15197L7.06945 4.61725ZM7.06945 4.61725C6.97586 4.66654 6.88391 4.71483 6.79323 4.76246C6.52922 4.90111 6.27599 5.03411 6.02441 5.16947C6.02441 5.16947 6.02441 5.16947 6.02442 5.16946L7.06945 4.61725ZM7.20198 5.67985L7.20262 5.68021C7.55248 5.88438 7.90299 6.08784 8.25358 6.29134C9.12068 6.79466 9.98828 7.29828 10.848 7.81352C10.9682 7.88552 11.0546 7.89899 11.1275 7.88425C11.1894 7.87173 11.2507 7.83726 11.3213 7.78065C11.1172 7.49718 10.9136 7.21445 10.7104 6.93227C10.0972 6.08077 9.48749 5.23417 8.87864 4.38641C8.75392 4.21308 8.6833 4.0581 8.7199 3.91141C8.75634 3.76535 8.89129 3.65945 9.08256 3.56075C9.08258 3.56073 9.08261 3.56072 9.08264 3.5607L9.11703 3.62735L7.20198 5.67985ZM7.20198 5.67985C7.17467 5.66427 7.14862 5.64773 7.11792 5.62769C7.2239 5.57134 7.32772 5.51624 7.43008 5.46191C7.57185 5.38667 7.71081 5.31291 7.84881 5.23938C8.04608 5.13472 8.1841 5.0252 8.2219 4.87691C8.26008 4.72714 8.18827 4.56994 8.06087 4.39367C7.63472 3.80382 7.20753 3.21423 6.78034 2.62464C6.43239 2.14442 6.08445 1.6642 5.73707 1.18385L5.6763 1.2278M7.20198 5.67985L6.18237 0.959854M6.18237 0.959854L6.14527 1.02182C6.02427 0.949381 5.92998 0.9193 5.84674 0.924181C5.77833 0.928192 5.70784 0.956459 5.62801 1.02233C5.63402 1.03143 5.64 1.04051 5.64597 1.04959C5.67551 1.09446 5.7049 1.13911 5.73719 1.18401L5.6763 1.2278M6.18237 0.959854L6.14527 1.02182C7.05583 1.56696 7.97421 2.1006 8.90709 2.64267C9.21301 2.82043 9.52049 2.99911 9.82977 3.17938L6.18237 0.959854ZM5.6763 1.2278C5.64333 1.18195 5.61218 1.13466 5.58189 1.08866C5.5643 1.06195 5.54699 1.03568 5.52979 1.01038M5.6763 1.2278L5.52979 1.01038M5.52979 1.01038H5.53049H5.52979ZM5.52979 1.01038L5.53021 1.01009L5.52979 1.00965M5.52979 1.01038V1.00965M5.52979 1.00965H5.53085L8.94438 2.5776C8.01165 2.03561 7.0939 1.50233 6.1838 0.957474C5.9308 0.806007 5.74427 0.803108 5.52979 1.00965Z" fill="white" stroke="white" stroke-width="0.15"/>
</g>
<defs>
<clipPath id="clip0_1433_604">
<rect width="29" height="20.88" fill="white"/>
</clipPath>
</defs>
</svg>
