<svg width="25" height="25" viewBox="0 0 25 25" fill="none" xmlns="http://www.w3.org/2000/svg">
<path d="M15.6257 23.6978H9.37565C3.7194 23.6978 1.30273 21.2812 1.30273 15.6249V9.37492C1.30273 3.71867 3.7194 1.302 9.37565 1.302H15.6257C21.2819 1.302 23.6986 3.71867 23.6986 9.37492V15.6249C23.6986 21.2812 21.2819 23.6978 15.6257 23.6978ZM9.37565 2.8645C4.57357 2.8645 2.86523 4.57283 2.86523 9.37492V15.6249C2.86523 20.427 4.57357 22.1353 9.37565 22.1353H15.6257C20.4277 22.1353 22.1361 20.427 22.1361 15.6249V9.37492C22.1361 4.57283 20.4277 2.8645 15.6257 2.8645H9.37565Z" fill="#1A1A1A"/>
<path d="M11.084 9.89583C10.8861 9.89583 10.6882 9.82292 10.5319 9.66667C9.79232 8.92708 8.58398 8.92708 7.8444 9.66667C7.54232 9.96875 7.04232 9.96875 6.74023 9.66667C6.43815 9.36458 6.43815 8.86458 6.74023 8.5625C8.08398 7.21875 10.2819 7.21875 11.6361 8.5625C11.9382 8.86458 11.9382 9.36458 11.6361 9.66667C11.4798 9.82292 11.2819 9.89583 11.084 9.89583Z" fill="#1A1A1A"/>
<path d="M13.9173 9.89583C13.7194 9.89583 13.5215 9.82292 13.3652 9.66667C13.0632 9.36458 13.0632 8.86458 13.3652 8.5625C14.709 7.21875 16.9069 7.21875 18.2611 8.5625C18.5632 8.86458 18.5632 9.36458 18.2611 9.66667C17.959 9.96875 17.459 9.96875 17.1569 9.66667C16.4173 8.92708 15.209 8.92708 14.4694 9.66667C14.3236 9.82292 14.1257 9.89583 13.9173 9.89583Z" fill="#1A1A1A"/>
<path d="M16.25 19.2188H8.75C7.80208 19.2188 7.03125 18.4479 7.03125 17.5C7.03125 14.4896 9.47917 12.0312 12.5 12.0312C15.5208 12.0312 17.9688 14.4896 17.9688 17.5C17.9688 18.4479 17.1979 19.2188 16.25 19.2188ZM12.5 13.5938C10.3438 13.5938 8.59375 15.3437 8.59375 17.5C8.59375 17.5833 8.66667 17.6563 8.75 17.6563H16.25C16.3333 17.6563 16.4062 17.5833 16.4062 17.5C16.4062 15.3437 14.6562 13.5938 12.5 13.5938Z" fill="#1A1A1A"/>
</svg>
