<svg width="25" height="25" viewBox="0 0 25 25" fill="none" xmlns="http://www.w3.org/2000/svg">
<path d="M22.9173 23.698H2.08398C1.6569 23.698 1.30273 23.3438 1.30273 22.9167C1.30273 22.4897 1.6569 22.1355 2.08398 22.1355H22.9173C23.3444 22.1355 23.6986 22.4897 23.6986 22.9167C23.6986 23.3438 23.3444 23.698 22.9173 23.698Z" fill="#1A1A1A"/>
<path d="M3.85352 22.9166H2.29102L2.3431 10.3853C2.3431 9.4999 2.74935 8.67701 3.44727 8.13535L10.7389 2.45825C11.7702 1.65617 13.2181 1.65617 14.2598 2.45825L21.5514 8.12492C22.2389 8.66659 22.6556 9.51032 22.6556 10.3853V22.9166H21.0931V10.3957C21.0931 9.99991 20.9056 9.61451 20.5931 9.36451L13.3014 3.69784C12.8327 3.33325 12.1764 3.33325 11.6973 3.69784L4.40561 9.37493C4.09311 9.61452 3.9056 9.99991 3.9056 10.3957L3.85352 22.9166Z" fill="#1A1A1A"/>
<path d="M14.0625 8.59375H10.9375C10.5104 8.59375 10.1562 8.23958 10.1562 7.8125C10.1562 7.38542 10.5104 7.03125 10.9375 7.03125H14.0625C14.4896 7.03125 14.8438 7.38542 14.8438 7.8125C14.8438 8.23958 14.4896 8.59375 14.0625 8.59375Z" fill="#1A1A1A"/>
<path d="M12.5007 19.9791C10.0298 19.9791 8.02148 17.9708 8.02148 15.4999C8.02148 13.0291 10.0298 11.0208 12.5007 11.0208C14.9715 11.0208 16.9798 13.0291 16.9798 15.4999C16.9798 17.9708 14.9715 19.9791 12.5007 19.9791ZM12.5007 11.6458C10.3757 11.6458 8.64648 13.3749 8.64648 15.4999C8.64648 17.6249 10.3757 19.3541 12.5007 19.3541C14.6257 19.3541 16.3548 17.6249 16.3548 15.4999C16.3548 13.3749 14.6257 11.6458 12.5007 11.6458Z" fill="#1A1A1A" stroke="#1A1A1A" stroke-width="0.75"/>
<path d="M11.3212 16.9916C11.2421 16.9916 11.1629 16.9624 11.1004 16.8999C10.9796 16.7791 10.9796 16.5791 11.1004 16.4582L13.4587 14.0999C13.5796 13.9791 13.7796 13.9791 13.9004 14.0999C14.0212 14.2207 14.0212 14.4207 13.9004 14.5416L11.5421 16.8999C11.4837 16.9624 11.4004 16.9916 11.3212 16.9916Z" fill="#1A1A1A" stroke="#1A1A1A" stroke-width="0.75"/>
<path d="M13.6796 16.9916C13.6004 16.9916 13.5212 16.9624 13.4587 16.8999L11.1004 14.5416C10.9796 14.4207 10.9796 14.2207 11.1004 14.0999C11.2212 13.9791 11.4212 13.9791 11.5421 14.0999L13.9004 16.4582C14.0212 16.5791 14.0212 16.7791 13.9004 16.8999C13.8379 16.9624 13.7587 16.9916 13.6796 16.9916Z" fill="#1A1A1A" stroke="#1A1A1A" stroke-width="0.75"/>
</svg>
