<svg width="25" height="25" viewBox="0 0 25 25" fill="none" xmlns="http://www.w3.org/2000/svg">
<path d="M14.1348 23.3124C13.8952 23.3124 13.6557 23.2707 13.4265 23.1874C12.6452 22.8957 12.1452 22.1666 12.1452 21.3332V14.6145H9.70773C8.91606 14.6145 8.22855 14.1666 7.90564 13.4478C7.58272 12.7291 7.70772 11.9166 8.22855 11.3228L16.114 2.36449C16.6661 1.73949 17.5202 1.52074 18.3015 1.82282C19.0827 2.11449 19.5827 2.84365 19.5827 3.67699V10.3957H22.0202C22.8119 10.3957 23.4994 10.8437 23.8223 11.5624C24.1452 12.2812 24.0202 13.0937 23.4994 13.6874L15.614 22.6457C15.2285 23.0832 14.6869 23.3124 14.1348 23.3124ZM17.5827 3.2499C17.489 3.2499 17.3744 3.28115 17.2806 3.39574L9.39521 12.3645C9.22855 12.552 9.29107 12.7395 9.32232 12.8124C9.35357 12.8853 9.45773 13.0624 9.70773 13.0624H12.9265C13.3536 13.0624 13.7077 13.4166 13.7077 13.8437V21.3437C13.7077 21.6041 13.8952 21.7082 13.9786 21.7395C14.0619 21.7707 14.2702 21.8228 14.4369 21.6249L22.3223 12.6562C22.489 12.4687 22.4265 12.2812 22.3952 12.2082C22.364 12.1353 22.2598 11.9582 22.0098 11.9582H18.7911C18.364 11.9582 18.0098 11.6041 18.0098 11.177V3.67699C18.0098 3.41657 17.8223 3.3124 17.739 3.28115C17.7077 3.26032 17.6452 3.2499 17.5827 3.2499Z" fill="#1A1A1A"/>
<path d="M8.85417 4.948H1.5625C1.13542 4.948 0.78125 4.59383 0.78125 4.16675C0.78125 3.73966 1.13542 3.3855 1.5625 3.3855H8.85417C9.28125 3.3855 9.63542 3.73966 9.63542 4.16675C9.63542 4.59383 9.28125 4.948 8.85417 4.948Z" fill="#1A1A1A"/>
<path d="M7.8125 21.6145H1.5625C1.13542 21.6145 0.78125 21.2603 0.78125 20.8333C0.78125 20.4062 1.13542 20.052 1.5625 20.052H7.8125C8.23958 20.052 8.59375 20.4062 8.59375 20.8333C8.59375 21.2603 8.23958 21.6145 7.8125 21.6145Z" fill="#1A1A1A"/>
<path d="M4.6875 13.2812H1.5625C1.13542 13.2812 0.78125 12.9271 0.78125 12.5C0.78125 12.0729 1.13542 11.7188 1.5625 11.7188H4.6875C5.11458 11.7188 5.46875 12.0729 5.46875 12.5C5.46875 12.9271 5.11458 13.2812 4.6875 13.2812Z" fill="#1A1A1A"/>
</svg>
