<svg width="29" height="18" viewBox="0 0 29 18" fill="none" xmlns="http://www.w3.org/2000/svg">
<path d="M7.13851 11.5591C7.08348 11.4337 7.04087 11.3325 6.99472 11.234C6.06359 9.25326 5.12802 7.27526 4.20487 5.29099C4.11877 5.10645 4.04776 4.88249 4.0664 4.68541C4.11433 4.17388 4.64514 3.94724 5.16885 4.19628C6.61126 4.88338 8.05189 5.57676 9.49342 6.26745C10.1414 6.57741 10.7894 6.88737 11.464 7.20987C11.8164 6.2128 12.1581 5.24709 12.499 4.28049C12.9259 3.06932 13.3502 1.85636 13.7772 0.645192C13.9378 0.186525 14.1633 -0.00697508 14.5201 0.000191599C14.8654 0.00735827 15.0731 0.193692 15.232 0.643401C15.9634 2.71905 16.6939 4.7947 17.4245 6.86945C17.4608 6.97247 17.5017 7.0746 17.5523 7.20897C18.3485 6.82914 19.1269 6.45826 19.9045 6.08559C21.2058 5.46209 22.5071 4.83949 23.8057 4.21151C24.0702 4.0834 24.3303 4.02607 24.5992 4.17747C24.9498 4.37545 25.0501 4.77051 24.8495 5.19961C24.2113 6.56487 23.5678 7.92833 22.926 9.29179C22.5754 10.0371 22.2257 10.7825 21.8591 11.5627C22.5514 11.8136 23.2154 12.0545 23.8794 12.2937C25.3715 12.8294 26.8645 13.3634 28.3566 13.9C28.8075 14.0621 29.0179 14.3013 28.9984 14.6471C28.9762 15.0529 28.7125 15.2482 28.3619 15.3736C25.9804 16.2229 23.6015 17.0766 21.2209 17.9267C20.7407 18.0978 20.3563 17.9438 20.2063 17.5308C20.0599 17.1276 20.2676 16.7496 20.7451 16.5776C22.4662 15.9568 24.1883 15.3396 25.9103 14.7205C25.9715 14.699 26.0301 14.6704 26.1464 14.6202C25.4017 14.3515 24.7102 14.0997 24.0178 13.8507C22.9642 13.4717 21.9106 13.0928 20.8561 12.7157C20.1451 12.4612 20.0084 12.1298 20.3359 11.4337C21.0726 9.86781 21.8103 8.30189 22.5479 6.73597C22.5994 6.62668 22.6455 6.5147 22.7192 6.34449C22.5719 6.40451 22.4742 6.43855 22.381 6.48245C20.7895 7.24391 19.198 8.00716 17.6064 8.76862C17.0037 9.05708 16.6407 8.90747 16.417 8.27591C15.824 6.60159 15.2347 4.92638 14.6435 3.25207C14.6106 3.15801 14.5743 3.06484 14.5077 2.88478C14.4411 3.05588 14.3976 3.1589 14.3603 3.26372C13.7727 4.92728 13.1869 6.59264 12.5975 8.2562C12.3658 8.91106 12.0099 9.05976 11.3903 8.76324C9.80853 8.00626 8.22764 7.24749 6.64588 6.48962C6.54912 6.44303 6.44971 6.40182 6.29082 6.33016C6.36272 6.50305 6.4071 6.62309 6.46125 6.73866C7.20331 8.31443 7.94715 9.88931 8.68922 11.4651C8.99368 12.1128 8.85165 12.4657 8.18149 12.7076C6.43018 13.3401 4.6771 13.9671 2.84945 14.6229C3.40422 14.8254 3.89509 15.0063 4.38684 15.1837C5.63929 15.6334 6.89264 16.0813 8.14509 16.5292C8.21788 16.5552 8.29244 16.5776 8.36345 16.609C8.762 16.7845 8.93953 17.1635 8.7984 17.5344C8.65549 17.9115 8.28179 18.0925 7.87348 17.95C6.82607 17.5854 5.78398 17.2074 4.74012 16.8338C3.37227 16.3447 2.00531 15.8547 0.638345 15.3646C0.212279 15.2141 0.00634764 14.9812 0.000134178 14.6462C-0.00607928 14.3004 0.203403 14.063 0.649885 13.9026C2.69589 13.169 4.741 12.4335 6.78612 11.6989C6.89796 11.6586 7.00714 11.612 7.1394 11.56L7.13851 11.5591Z" fill="white"/>
<path d="M11.7926 12.189C11.9745 12.5814 12.1192 12.8797 12.2532 13.1825C12.4716 13.677 12.3145 14.0586 11.8148 14.2557C11.6603 14.3166 11.5023 14.3704 11.3461 14.4268C11.1907 14.4832 11.0345 14.5406 10.8073 14.6239C11.1686 14.7583 11.4712 14.8702 11.773 14.9831C12.255 15.1641 12.4601 15.5278 12.3109 15.9363C12.1636 16.343 11.7695 16.5016 11.2928 16.3322C10.3626 16.0026 9.43411 15.6684 8.50742 15.3325C8.12574 15.1936 7.95353 14.9643 7.95709 14.6239C7.96064 14.2888 8.14171 14.0622 8.5234 13.9251C9.22108 13.6743 9.92054 13.4271 10.6537 13.1655C10.3129 12.4398 9.97557 11.7411 9.65514 11.0343C9.435 10.5487 9.67378 10.0489 10.1664 9.98347C10.3395 9.96018 10.5401 10.0202 10.7052 10.0946C11.3701 10.3973 12.026 10.7207 12.7193 11.0531C12.7787 10.9071 12.8355 10.7799 12.8817 10.6491C13.0832 10.0811 13.2811 9.51136 13.4826 8.94251C13.6406 8.49907 13.8519 8.3208 14.2078 8.32528C14.5487 8.32976 14.7599 8.50803 14.9099 8.92907C15.1567 9.62245 15.4008 10.3167 15.6591 11.0495C15.8624 10.9572 16.0506 10.8748 16.2352 10.787C16.7465 10.5443 17.2569 10.2997 17.7664 10.0533C18.0815 9.90105 18.3762 9.93061 18.622 10.1823C18.8679 10.435 18.8875 10.7333 18.7374 11.0495C18.409 11.7429 18.0841 12.4381 17.7451 13.1601C18.3948 13.3939 19.0188 13.6179 19.6437 13.8427C19.7689 13.8875 19.8967 13.9278 20.0174 13.9816C20.2961 14.107 20.4515 14.3256 20.4524 14.6373C20.4532 14.95 20.3041 15.1883 20.0201 15.2931C19.0117 15.6675 18.0007 16.0339 16.9835 16.3815C16.5965 16.5141 16.2183 16.2964 16.1029 15.9309C15.9849 15.5573 16.1535 15.191 16.5379 15.0324C16.8725 14.8944 17.2151 14.7789 17.6164 14.6311C17.2471 14.4949 16.9462 14.3856 16.6471 14.2718C16.087 14.0586 15.9361 13.6851 16.189 13.1323C16.3177 12.8501 16.4535 12.5706 16.6266 12.2024C16.2529 12.3736 15.96 12.5097 15.6653 12.6423C15.1363 12.8797 14.7653 12.7229 14.5629 12.1756C14.451 11.8728 14.3445 11.5673 14.2087 11.1893C14.0747 11.5583 13.9655 11.8629 13.8528 12.1666C13.6424 12.7328 13.2714 12.8869 12.7255 12.6324C12.445 12.5017 12.1663 12.3655 11.7926 12.1863V12.189Z" fill="white"/>
</svg>
