<svg width="25" height="25" viewBox="0 0 25 25" fill="none" xmlns="http://www.w3.org/2000/svg">
<path d="M22.9173 23.698H2.08398C1.6569 23.698 1.30273 23.3438 1.30273 22.9167C1.30273 22.4897 1.6569 22.1355 2.08398 22.1355H22.9173C23.3444 22.1355 23.6986 22.4897 23.6986 22.9167C23.6986 23.3438 23.3444 23.698 22.9173 23.698Z" fill="#1A1A1A"/>
<path d="M3.85352 22.9166H2.29102L2.3431 10.3853C2.3431 9.4999 2.74935 8.67701 3.44727 8.13535L10.7389 2.45825C11.7702 1.65617 13.2181 1.65617 14.2598 2.45825L21.5514 8.12492C22.2389 8.66659 22.6556 9.51032 22.6556 10.3853V22.9166H21.0931V10.3957C21.0931 9.99991 20.9056 9.61451 20.5931 9.36451L13.3014 3.69784C12.8327 3.33325 12.1764 3.33325 11.6973 3.69784L4.4056 9.37493C4.0931 9.61452 3.9056 9.99991 3.9056 10.3957L3.85352 22.9166Z" fill="#1A1A1A"/>
<path d="M15.1048 23.6978H9.89648C9.4694 23.6978 9.11523 23.3437 9.11523 22.9166V19.2708C9.11523 17.9791 10.1673 16.927 11.459 16.927H13.5423C14.834 16.927 15.8861 17.9791 15.8861 19.2708V22.9166C15.8861 23.3437 15.5319 23.6978 15.1048 23.6978ZM10.6777 22.1353H14.3236V19.2708C14.3236 18.8437 13.9694 18.4895 13.5423 18.4895H11.459C11.0319 18.4895 10.6777 18.8437 10.6777 19.2708V22.1353Z" fill="#1A1A1A"/>
<path d="M9.89648 15.1041H7.81315C6.81315 15.1041 5.99023 14.2812 5.99023 13.2812V11.7187C5.99023 10.7187 6.81315 9.89575 7.81315 9.89575H9.89648C10.8965 9.89575 11.7194 10.7187 11.7194 11.7187V13.2812C11.7194 14.2812 10.8965 15.1041 9.89648 15.1041ZM7.81315 11.4583C7.66732 11.4583 7.55273 11.5728 7.55273 11.7187V13.2812C7.55273 13.427 7.66732 13.5416 7.81315 13.5416H9.89648C10.0423 13.5416 10.1569 13.427 10.1569 13.2812V11.7187C10.1569 11.5728 10.0423 11.4583 9.89648 11.4583H7.81315Z" fill="#1A1A1A"/>
<path d="M17.1875 15.1041H15.1042C14.1042 15.1041 13.2812 14.2812 13.2812 13.2812V11.7187C13.2812 10.7187 14.1042 9.89575 15.1042 9.89575H17.1875C18.1875 9.89575 19.0104 10.7187 19.0104 11.7187V13.2812C19.0104 14.2812 18.1875 15.1041 17.1875 15.1041ZM15.1042 11.4583C14.9583 11.4583 14.8437 11.5728 14.8437 11.7187V13.2812C14.8437 13.427 14.9583 13.5416 15.1042 13.5416H17.1875C17.3333 13.5416 17.4479 13.427 17.4479 13.2812V11.7187C17.4479 11.5728 17.3333 11.4583 17.1875 11.4583H15.1042Z" fill="#1A1A1A"/>
<path d="M19.7917 8.073C19.3646 8.073 19.0104 7.72926 19.0104 7.30217L18.9896 4.948H15.1875C14.7604 4.948 14.4062 4.59383 14.4062 4.16675C14.4062 3.73966 14.7604 3.3855 15.1875 3.3855H19.7708C20.1979 3.3855 20.5521 3.72924 20.5521 4.15632L20.5833 7.28132C20.5729 7.71882 20.2292 8.073 19.7917 8.073C19.8021 8.073 19.7917 8.073 19.7917 8.073Z" fill="#1A1A1A"/>
</svg>
