<svg width="25" height="25" viewBox="0 0 25 25" fill="none" xmlns="http://www.w3.org/2000/svg">
<path d="M17.2602 15.359C17.7749 15.359 18.2896 15.3577 18.8043 15.359C19.2602 15.3609 19.5764 15.647 19.5795 16.0559C19.5827 16.4661 19.2664 16.7629 18.815 16.7641C17.7624 16.7666 16.7091 16.7666 15.6565 16.7641C15.2069 16.7629 14.8895 16.4648 14.8926 16.0553C14.8964 15.6477 15.2138 15.3602 15.6684 15.359C16.1988 15.3571 16.7292 15.359 17.2595 15.359H17.2602Z" fill="#64E1F6"/>
<path d="M17.2533 17.7026C17.7755 17.7026 18.2984 17.7008 18.8206 17.7033C19.2589 17.7058 19.572 17.9938 19.5789 18.3939C19.5858 18.8041 19.2689 19.1072 18.8206 19.1078C17.7598 19.1103 16.6991 19.1109 15.639 19.1078C15.2063 19.1065 14.8926 18.806 14.8926 18.4052C14.8926 18.0051 15.2063 17.7058 15.639 17.7033C16.1769 17.6995 16.7154 17.7026 17.2533 17.7026Z" fill="#64E1F6"/>
<path d="M5.84503 7.24948C5.52819 7.24948 5.24015 7.25199 4.95273 7.24948C4.51817 7.24447 4.20508 6.94767 4.20508 6.54629C4.20508 6.14553 4.51942 5.84873 4.95336 5.84434C5.24077 5.84121 5.52881 5.84434 5.84503 5.84434V5.34465C5.84503 4.53814 6.05543 4.2 6.55386 4.20439C7.0498 4.20877 7.25143 4.54127 7.25143 5.35655V5.84434C7.55825 5.84434 7.84441 5.84246 8.1312 5.84434C8.57078 5.8481 8.88449 6.13426 8.89138 6.53502C8.89827 6.94579 8.5808 7.24573 8.13183 7.24948C7.85068 7.25199 7.57015 7.24948 7.25143 7.24948C7.25143 7.56508 7.25831 7.87378 7.24955 8.18186C7.23389 8.72976 6.68724 9.05725 6.21823 8.80177C5.97027 8.66715 5.84879 8.45049 5.84629 8.16996C5.84315 7.87441 5.84566 7.57823 5.84566 7.24948H5.84503Z" fill="#64E1F6"/>
<path d="M17.2089 7.24977C16.7643 7.24977 16.3198 7.25227 15.8758 7.24914C15.4412 7.24601 15.1281 6.95108 15.125 6.55096C15.1225 6.1502 15.4356 5.84651 15.8664 5.84463C16.7787 5.8415 17.6911 5.84087 18.6034 5.84463C19.0342 5.84651 19.3467 6.15208 19.3423 6.55346C19.3379 6.94607 19.0305 7.24351 18.6122 7.24852C18.1444 7.25353 17.6767 7.24977 17.2089 7.24977Z" fill="#64E1F6"/>
<path d="M7.51474 17.239C7.75206 17.4626 7.96121 17.6485 8.15908 17.847C8.49471 18.1839 8.51349 18.6141 8.21481 18.9059C7.91612 19.1983 7.49596 19.1708 7.15532 18.8326C6.9612 18.6404 6.77084 18.4444 6.55857 18.2296C6.3225 18.4626 6.10397 18.6924 5.86978 18.9059C5.454 19.2841 4.83909 19.1069 4.70008 18.5734C4.63057 18.3073 4.71386 18.0787 4.90296 17.889C5.1121 17.6792 5.32939 17.4763 5.56546 17.2484C5.32375 17.0042 5.09332 16.7863 4.87917 16.5527C4.4997 16.1388 4.67691 15.522 5.21041 15.383C5.47654 15.3135 5.70572 15.3962 5.89545 15.5847C6.10585 15.7938 6.3081 16.0105 6.53728 16.2478C6.78086 16.0067 6.99877 15.7757 7.23171 15.5621C7.65 15.1783 8.28556 15.3711 8.4083 15.9153C8.46653 16.1726 8.38262 16.3956 8.20103 16.5778C7.99189 16.7876 7.7746 16.9898 7.51537 17.2384L7.51474 17.239Z" fill="#64E1F6"/>
<path d="M17.8 24.4993H16.6748C16.6146 24.4855 16.5552 24.4642 16.4944 24.4586C15.3967 24.3502 14.3848 23.9939 13.4387 23.431C13.2947 23.3452 13.1093 23.2876 12.9427 23.287C9.52382 23.2788 6.10428 23.282 2.68535 23.2801C1.70351 23.2801 0.898248 22.7159 0.607076 21.8324C0.565748 21.7078 0.535692 21.5794 0.5 21.4523C0.500626 15.0778 0.500626 8.70334 0.500626 2.32887C0.513776 2.29318 0.531309 2.25811 0.540075 2.22117C0.797434 1.14164 1.5908 0.501686 2.68723 0.50106C8.82564 0.500433 14.9647 0.500433 21.1037 0.503564C21.3047 0.503564 21.5113 0.524854 21.7055 0.573696C22.6691 0.8154 23.2847 1.65448 23.2853 2.71459C23.2866 6.14228 23.2853 9.57059 23.2897 12.9983C23.2897 13.1154 23.3185 13.2488 23.3792 13.3471C24.249 14.7553 24.6147 16.2782 24.4688 17.93C24.2152 20.8086 22.1288 23.3746 19.3523 24.1762C18.8463 24.3221 18.3185 24.3934 17.8006 24.4993H17.8ZM11.3773 17.225C11.3729 20.4529 14.001 23.0879 17.2289 23.0929C20.4575 23.0972 23.0931 20.4698 23.0974 17.2425C23.1018 14.0139 20.475 11.3796 17.2458 11.3752C14.016 11.3708 11.3817 13.9977 11.3773 17.225ZM11.1782 1.90682H10.9321C8.19758 1.90682 5.46307 1.90682 2.72793 1.90682C2.18003 1.90682 1.90764 2.17859 1.90764 2.72586C1.90764 5.46789 1.90764 8.20991 1.90764 10.9513C1.90764 11.0265 1.91453 11.101 1.91766 11.1755H11.1782V1.90682ZM12.604 11.59C15.7054 9.40904 18.785 9.40841 21.8789 11.5963V11.3546C21.8789 8.48794 21.8789 5.6213 21.8789 2.75467C21.8789 2.1717 21.6172 1.90745 21.0392 1.90745C18.3128 1.90745 15.5858 1.90745 12.8595 1.90745C12.7768 1.90745 12.6942 1.90745 12.604 1.90745V11.5906V11.59ZM1.90702 12.6032C1.90702 12.694 1.90702 12.7635 1.90702 12.833C1.90702 15.5744 1.90702 18.3164 1.90702 21.0578C1.90702 21.6032 2.18066 21.8743 2.73044 21.8743C5.61335 21.8743 8.49627 21.8743 11.3786 21.8743C11.4518 21.8743 11.5257 21.8674 11.6271 21.8624C11.5727 21.7873 11.5395 21.7372 11.5025 21.6896C9.65407 19.3064 9.45432 16.0703 11.0185 13.4973C11.1982 13.2018 11.1932 12.92 11.1782 12.6038H1.90702V12.6032Z" fill="#64E1F6"/>
</svg>
