<svg width="292" height="23" viewBox="0 0 292 23" fill="none" xmlns="http://www.w3.org/2000/svg">
<g clip-path="url(#clip0_4265_1495)">
<path d="M157.1 6.6002C156.9 6.5002 156.8 6.3002 156.6 6.2002L155.5 7.3002C155.6 7.4002 155.8 7.6002 155.9 7.7002L157.1 6.6002Z" fill="#B5B5B5"/>
<path d="M134.499 8.7002L134.199 9.9002L145.399 9.4002C145.399 9.2002 145.299 9.0002 145.299 8.8002L134.499 8.7002Z" fill="#B5B5B5"/>
<path d="M145.2 7.4002L135.6 5.7002C135.4 6.1002 135.2 6.4002 135.1 6.8002L145.2 7.9002V7.4002Z" fill="#B5B5B5"/>
<path d="M137.399 3.09961C137.199 3.39961 136.899 3.69961 136.699 4.09961L145.399 6.59961C145.399 6.39961 145.499 6.29961 145.599 6.09961L137.399 3.09961Z" fill="#B5B5B5"/>
<path d="M139.801 1.2002C139.501 1.4002 139.201 1.6002 138.801 1.9002L145.801 5.5002L146.101 5.2002L139.801 1.2002Z" fill="#B5B5B5"/>
<path d="M142.7 0.400391C142.5 0.400391 142.4 0.400391 142.2 0.500391C142 0.500391 141.8 0.600391 141.6 0.600391L146.7 4.80039C146.8 4.70039 146.9 4.70039 147 4.60039L142.7 0.400391Z" fill="#B5B5B5"/>
<path d="M154.499 4.49961C154.299 4.39961 154.199 4.29961 153.999 4.09961L153.199 5.59961C153.299 5.69961 153.499 5.79961 153.599 5.89961L154.499 4.49961Z" fill="#B5B5B5"/>
<path d="M151.9 2.8C151.7 2.7 151.5 2.6 151.4 2.5L151 4.6C151.1 4.6 151.3 4.7 151.4 4.7L151.9 2.8Z" fill="#B5B5B5"/>
<path d="M153.2 3.5998C153 3.4998 152.9 3.3998 152.7 3.2998L152 4.9998C152.1 5.0998 152.3 5.0998 152.4 5.1998L153.2 3.5998Z" fill="#B5B5B5"/>
<path d="M155.801 5.49961C155.601 5.39961 155.501 5.19961 155.301 5.09961L154.301 6.39961C154.401 6.49961 154.601 6.59961 154.701 6.69961L155.801 5.49961Z" fill="#B5B5B5"/>
<path d="M149.1 1.4998C148.9 1.3998 148.7 1.3998 148.5 1.2998L149.1 4.1998H149.4L149.1 1.4998Z" fill="#B5B5B5"/>
<path d="M147.399 0.999805C147.199 0.899805 146.899 0.899805 146.699 0.799805L148.299 4.2998H148.599L147.399 0.999805Z" fill="#B5B5B5"/>
<path d="M150.5 2.10039C150.3 2.00039 150.1 1.90039 150 1.90039V4.40039C150.1 4.40039 150.2 4.50039 150.4 4.50039L150.5 2.10039Z" fill="#B5B5B5"/>
<path d="M145.4 0.500391C145.2 0.500391 144.9 0.400391 144.7 0.400391H144.4L147.4 4.40039C147.5 4.40039 147.6 4.30039 147.7 4.30039L145.4 0.500391Z" fill="#B5B5B5"/>
<path d="M170.3 4.4998C170.2 4.0998 170.1 3.6998 169.9 3.2998L157.5 9.4998C157.6 9.6998 157.7 9.7998 157.9 9.9998L170.3 4.4998Z" fill="#B5B5B5"/>
<path d="M170.9 7.8C170.9 7.4 170.8 7 170.7 6.6V6.5L158.4 10.8C158.5 11 158.6 11.2 158.7 11.3L170.9 7.8Z" fill="#B5B5B5"/>
<path d="M188.501 2.2998C194.201 2.2998 198.401 6.3998 198.401 11.8998C198.401 17.3998 194.201 21.4998 188.501 21.4998H180.801V2.2998H188.501ZM188.401 18.7998C192.501 18.7998 195.201 15.7998 195.201 11.8998C195.201 7.9998 192.501 4.9998 188.401 4.9998H183.701V18.7998H188.401Z" fill="#B5B5B5"/>
<path d="M202.1 2.2998H215.5V4.9998H205V10.2998H214V12.9998H205V18.7998H215.8V21.4998H202.1V2.2998Z" fill="#B5B5B5"/>
<path d="M233.4 21.3998H219.5V2.2998H222.5V18.7998H233.4V21.3998Z" fill="#B5B5B5"/>
<path d="M236.999 15.8C237.899 17.7 239.699 19 242.299 19C244.499 19 246.199 17.9 246.199 16.3C246.199 14.7 244.699 14 241.799 13.1C238.199 11.9 235.299 10.7 235.299 7.3C235.299 3.9 238.599 2 241.799 2C245.299 2 247.599 3.9 248.699 6L246.399 7.6C245.599 6.1 243.999 4.7 241.799 4.7C239.999 4.7 238.299 5.6 238.299 7.3C238.299 9 239.899 9.4 242.599 10.4C246.199 11.6 249.199 12.6 249.199 16.3C249.199 20 245.599 21.7 242.299 21.7C238.499 21.7 235.799 19.8 234.699 17.3L236.999 15.8Z" fill="#B5B5B5"/>
<path d="M252.699 14.4998V2.2998H255.599V14.3998C255.599 17.1998 257.599 18.9998 260.699 18.9998C263.799 18.9998 265.799 17.1998 265.799 14.3998V2.2998H268.699V14.4998C268.699 18.8998 265.599 21.6998 260.599 21.6998C255.899 21.6998 252.699 18.8998 252.699 14.4998Z" fill="#B5B5B5"/>
<path d="M281.3 2.2998C287 2.2998 291.2 6.3998 291.2 11.8998C291.2 17.3998 287 21.4998 281.3 21.4998H273.6V2.2998H281.3ZM281.3 18.7998C285.4 18.7998 288.1 15.7998 288.1 11.8998C288.1 7.9998 285.4 4.9998 281.3 4.9998H276.6V18.7998H281.3Z" fill="#B5B5B5"/>
<path d="M134.699 18.5C134.799 18.9 134.899 19.3 135.099 19.7L147.499 13.5C147.399 13.3 147.299 13.2 147.099 13L134.699 18.5Z" fill="#B5B5B5"/>
<path d="M134 11.9998V13.2998L145.9 10.8998C145.8 10.6998 145.7 10.4998 145.7 10.2998L134 11.9998Z" fill="#B5B5B5"/>
<path d="M134.102 15.2998C134.102 15.6998 134.202 16.0998 134.302 16.4998V16.5998L146.702 12.2998C146.602 12.0998 146.502 11.8998 146.402 11.7998L134.102 15.2998Z" fill="#B5B5B5"/>
<path d="M147.9 16.3998C148.1 16.4998 148.2 16.6998 148.4 16.7998L149.5 15.6998L149.1 15.2998L147.9 16.3998Z" fill="#B5B5B5"/>
<path d="M170.499 14.2996C170.599 13.8996 170.699 13.4996 170.799 13.0996L159.699 13.6996C159.699 13.8996 159.799 14.0996 159.799 14.2996H170.499Z" fill="#B5B5B5"/>
<path d="M159.801 15.7002L169.401 17.4002C169.601 17.0002 169.801 16.7002 169.901 16.3002L159.801 15.2002V15.7002Z" fill="#B5B5B5"/>
<path d="M167.6 19.9C167.9 19.6 168.1 19.3 168.4 19L159.7 16.5C159.7 16.7 159.6 16.8 159.5 17L167.6 19.9Z" fill="#B5B5B5"/>
<path d="M165.2 21.7996C165.5 21.5996 165.9 21.3996 166.2 21.1996L159.2 17.5996L158.9 17.8996L165.2 21.7996Z" fill="#B5B5B5"/>
<path d="M162.3 22.6998C162.5 22.6998 162.6 22.6998 162.8 22.5998C163 22.5998 163.2 22.4998 163.4 22.4998L158.4 18.2998C158.3 18.3998 158.2 18.3998 158.1 18.4998L162.3 22.6998Z" fill="#B5B5B5"/>
<path d="M171 11.0998V9.7998L159.1 12.1998C159.2 12.3998 159.3 12.5998 159.3 12.7998L171 11.0998Z" fill="#B5B5B5"/>
<path d="M150.5 18.6002C150.7 18.7002 150.8 18.8002 151 19.0002L151.8 17.5002C151.7 17.4002 151.5 17.3002 151.4 17.2002L150.5 18.6002Z" fill="#B5B5B5"/>
<path d="M153.1 20.3004C153.3 20.4004 153.4 20.5004 153.6 20.6004L154 18.5004C153.9 18.5004 153.7 18.4004 153.6 18.4004L153.1 20.3004Z" fill="#B5B5B5"/>
<path d="M151.801 19.5004C152.001 19.6004 152.101 19.7004 152.301 19.8004L153.001 18.1004C152.901 18.0004 152.701 18.0004 152.601 17.9004L151.801 19.5004Z" fill="#B5B5B5"/>
<path d="M149.199 17.6004C149.399 17.7004 149.499 17.9004 149.699 18.0004L150.699 16.7004C150.599 16.6004 150.399 16.5004 150.299 16.4004L149.199 17.6004Z" fill="#B5B5B5"/>
<path d="M155.9 21.6004C156.1 21.7004 156.3 21.7004 156.5 21.8004L155.9 18.9004H155.6L155.9 21.6004Z" fill="#B5B5B5"/>
<path d="M157.6 22.0998C157.8 22.1998 158.1 22.1998 158.3 22.2998L156.7 18.7998H156.4L157.6 22.0998Z" fill="#B5B5B5"/>
<path d="M154.5 20.9C154.7 21 154.9 21.1 155 21.1V18.6C154.9 18.6 154.8 18.5 154.6 18.5L154.5 20.9Z" fill="#B5B5B5"/>
<path d="M159.601 22.4996C159.801 22.4996 160.101 22.5996 160.301 22.5996H160.601L157.601 18.5996C157.501 18.5996 157.401 18.6996 157.301 18.6996L159.601 22.4996Z" fill="#B5B5B5"/>
<path d="M169.701 0H168.401L156.601 8.5L149.801 13.1L149.301 13.4L148.601 13.8L136.001 21.8L135.301 23H136.701L149.101 14L156.001 9.4L156.801 8.8L169.001 1.2L169.701 0Z" fill="#B5B5B5"/>
</g>
<path d="M5.53 17.112C2.954 17.112 1.386 15.614 1.386 12.772V7.2H2.786V12.716C2.786 14.886 3.78 15.866 5.544 15.866C7.308 15.866 8.316 14.886 8.316 12.716V7.2H9.674V12.772C9.674 15.614 8.12 17.112 5.53 17.112ZM16.3102 9.51C18.1162 9.51 19.3902 10.546 19.3902 12.73V17H18.0462V12.884C18.0462 11.428 17.3182 10.714 16.0442 10.714C14.6162 10.714 13.6922 11.568 13.6922 13.178V17H12.3482V9.58H13.6362V10.7C14.1822 9.944 15.1342 9.51 16.3102 9.51ZM24.5795 9.51C26.6095 9.51 27.7575 10.49 27.7575 12.52V17H26.4835V16.02C26.0355 16.692 25.2095 17.084 24.0475 17.084C22.3675 17.084 21.3035 16.188 21.3035 14.9C21.3035 13.71 22.0735 12.73 24.2855 12.73H26.4135V12.464C26.4135 11.33 25.7555 10.672 24.4255 10.672C23.5435 10.672 22.6475 10.98 22.0735 11.47L21.5135 10.462C22.2835 9.846 23.3895 9.51 24.5795 9.51ZM24.2715 16.048C25.2795 16.048 26.0775 15.586 26.4135 14.732V13.696H24.3415C23.0115 13.696 22.6335 14.214 22.6335 14.844C22.6335 15.586 23.2495 16.048 24.2715 16.048ZM40.7105 13.332C40.7105 13.444 40.6965 13.612 40.6825 13.738H34.6625C34.8305 15.04 35.8805 15.908 37.3505 15.908C38.2185 15.908 38.9465 15.614 39.4925 15.012L40.2345 15.88C39.5625 16.664 38.5405 17.084 37.3085 17.084C34.9145 17.084 33.3185 15.502 33.3185 13.29C33.3185 11.092 34.9005 9.51 37.0425 9.51C39.1845 9.51 40.7105 11.05 40.7105 13.332ZM37.0425 10.644C35.7545 10.644 34.8025 11.512 34.6625 12.772H39.4225C39.2825 11.526 38.3445 10.644 37.0425 10.644ZM51.8587 9.51C53.6647 9.51 54.8967 10.546 54.8967 12.73V17H53.5527V12.884C53.5527 11.428 52.8527 10.714 51.6347 10.714C50.2907 10.714 49.4087 11.568 49.4087 13.178V17H48.0647V12.884C48.0647 11.428 47.3647 10.714 46.1467 10.714C44.8027 10.714 43.9207 11.568 43.9207 13.178V17H42.5767V9.58H43.8647V10.686C44.3967 9.93 45.3067 9.51 46.4267 9.51C47.5607 9.51 48.5127 9.958 49.0027 10.882C49.5627 10.042 50.5987 9.51 51.8587 9.51ZM61.3037 9.51C63.4737 9.51 65.0557 11.022 65.0557 13.29C65.0557 15.572 63.4737 17.084 61.3037 17.084C60.2537 17.084 59.3297 16.678 58.7137 15.88V19.716H57.3697V9.58H58.6577V10.756C59.2597 9.93 60.2117 9.51 61.3037 9.51ZM61.1917 15.908C62.6197 15.908 63.6977 14.872 63.6977 13.29C63.6977 11.722 62.6197 10.686 61.1917 10.686C59.7777 10.686 58.6997 11.722 58.6997 13.29C58.6997 14.872 59.7777 15.908 61.1917 15.908ZM68.2007 10.826C68.6767 9.958 69.6007 9.51 70.9027 9.51V10.812C70.7907 10.798 70.6927 10.798 70.5947 10.798C69.1527 10.798 68.2567 11.68 68.2567 13.304V17H66.9127V9.58H68.2007V10.826ZM79.1968 13.332C79.1968 13.444 79.1828 13.612 79.1688 13.738H73.1488C73.3168 15.04 74.3668 15.908 75.8368 15.908C76.7048 15.908 77.4328 15.614 77.9788 15.012L78.7208 15.88C78.0488 16.664 77.0268 17.084 75.7948 17.084C73.4008 17.084 71.8048 15.502 71.8048 13.29C71.8048 11.092 73.3868 9.51 75.5288 9.51C77.6708 9.51 79.1968 11.05 79.1968 13.332ZM75.5288 10.644C74.2408 10.644 73.2888 11.512 73.1488 12.772H77.9088C77.7688 11.526 76.8308 10.644 75.5288 10.644ZM83.1911 17.084C81.9591 17.084 80.7411 16.706 80.1251 16.216L80.6851 15.152C81.3151 15.6 82.3231 15.922 83.2891 15.922C84.5351 15.922 85.0531 15.544 85.0531 14.914C85.0531 13.248 80.3631 14.69 80.3631 11.736C80.3631 10.406 81.5531 9.51 83.4571 9.51C84.4231 9.51 85.5151 9.762 86.1591 10.182L85.5851 11.246C84.9131 10.812 84.1711 10.658 83.4431 10.658C82.2671 10.658 81.6931 11.092 81.6931 11.68C81.6931 13.43 86.3971 12.002 86.3971 14.886C86.3971 16.23 85.1651 17.084 83.1911 17.084ZM90.7787 9.51C92.8087 9.51 93.9567 10.49 93.9567 12.52V17H92.6827V16.02C92.2347 16.692 91.4087 17.084 90.2467 17.084C88.5667 17.084 87.5027 16.188 87.5027 14.9C87.5027 13.71 88.2727 12.73 90.4847 12.73H92.6127V12.464C92.6127 11.33 91.9547 10.672 90.6247 10.672C89.7427 10.672 88.8467 10.98 88.2727 11.47L87.7127 10.462C88.4827 9.846 89.5887 9.51 90.7787 9.51ZM90.4707 16.048C91.4787 16.048 92.2767 15.586 92.6127 14.732V13.696H90.5407C89.2107 13.696 88.8327 14.214 88.8327 14.844C88.8327 15.586 89.4487 16.048 90.4707 16.048ZM105.86 6.612H107.204V17H105.916V15.824C105.314 16.664 104.362 17.084 103.27 17.084C101.1 17.084 99.5177 15.558 99.5177 13.29C99.5177 11.022 101.1 9.51 103.27 9.51C104.32 9.51 105.244 9.902 105.86 10.7V6.612ZM103.382 15.908C104.796 15.908 105.874 14.872 105.874 13.29C105.874 11.708 104.796 10.686 103.382 10.686C101.954 10.686 100.876 11.708 100.876 13.29C100.876 14.872 101.954 15.908 103.382 15.908ZM116.453 13.332C116.453 13.444 116.439 13.612 116.425 13.738H110.405C110.573 15.04 111.623 15.908 113.093 15.908C113.961 15.908 114.689 15.614 115.235 15.012L115.977 15.88C115.305 16.664 114.283 17.084 113.051 17.084C110.657 17.084 109.061 15.502 109.061 13.29C109.061 11.092 110.643 9.51 112.785 9.51C114.927 9.51 116.453 11.05 116.453 13.332ZM112.785 10.644C111.497 10.644 110.545 11.512 110.405 12.772H115.165C115.025 11.526 114.087 10.644 112.785 10.644Z" fill="#999999"/>
<defs>
<clipPath id="clip0_4265_1495">
<rect width="157.2" height="23" fill="white" transform="translate(134)"/>
</clipPath>
</defs>
</svg>
