<svg width="27" height="24" viewBox="0 0 27 24" fill="none" xmlns="http://www.w3.org/2000/svg">
<path d="M13.2356 11.62C13.2029 11.62 13.1812 11.62 13.1485 11.62C13.0941 11.61 13.0179 11.61 12.9526 11.62C9.79593 11.53 7.41211 9.25 7.41211 6.44C7.41211 3.58 9.94832 1.25 13.0614 1.25C16.1745 1.25 18.7108 3.58 18.7108 6.44C18.6999 9.25 16.3052 11.53 13.2682 11.62C13.2574 11.62 13.2465 11.62 13.2356 11.62ZM13.0614 2.75C10.8518 2.75 9.04486 4.41 9.04486 6.44C9.04486 8.44 10.7429 10.05 12.909 10.12C12.9635 10.11 13.1159 10.11 13.2574 10.12C15.3908 10.03 17.0671 8.42 17.078 6.44C17.078 4.41 15.2711 2.75 13.0614 2.75Z" fill="#F2F2F2"/>
<path d="M13.2468 22.55C11.1133 22.55 8.96898 22.05 7.34711 21.05C5.8341 20.13 5.00684 18.87 5.00684 17.5C5.00684 16.13 5.8341 14.86 7.34711 13.93C10.6126 11.94 15.9027 11.94 19.1465 13.93C20.6486 14.85 21.4867 16.11 21.4867 17.48C21.4867 18.85 20.6595 20.12 19.1465 21.05C17.5137 22.05 15.3803 22.55 13.2468 22.55ZM8.25057 15.19C7.20561 15.83 6.63959 16.65 6.63959 17.51C6.63959 18.36 7.21649 19.18 8.25057 19.81C10.9609 21.48 15.5326 21.48 18.243 19.81C19.288 19.17 19.854 18.35 19.854 17.49C19.854 16.64 19.2771 15.82 18.243 15.19C15.5326 13.53 10.9609 13.53 8.25057 15.19Z" fill="#F2F2F2"/>
</svg>
