<svg width="27" height="22" viewBox="0 0 27 22" fill="none" xmlns="http://www.w3.org/2000/svg">
<path d="M13.4143 12.7233C10.8152 12.6831 8.1059 12.5334 5.44054 11.9428C4.3041 11.6911 3.18031 11.3858 2.17792 10.7676C1.86588 10.5755 1.57023 10.329 1.33266 10.0512C0.879125 9.52022 0.898488 8.8887 1.33489 8.34059C1.71098 7.86918 2.21218 7.55416 2.7588 7.33968C3.46629 7.06264 4.19463 6.83699 4.91998 6.60836C5.1084 6.54879 5.20521 6.47357 5.26256 6.27324C5.67588 4.83593 6.11601 3.4068 6.52858 1.96949C6.82871 0.923903 8.00313 -0.140304 9.52013 0.4376C10.101 0.658783 10.6663 0.924648 11.2516 1.13317C12.823 1.69246 14.3727 1.69022 15.9165 0.977524C16.5443 0.687827 17.2131 0.443559 17.8886 0.30653C19.101 0.0607717 20.3082 0.820387 20.6924 2.07599C20.9829 3.02253 21.1519 4.00631 21.3739 4.9737C21.4677 5.38106 21.5742 5.78545 21.6472 6.19653C21.6911 6.44378 21.811 6.5473 22.0508 6.6039C23.0115 6.83104 23.9551 7.11775 24.8055 7.63608C25.096 7.81332 25.3775 8.02855 25.6069 8.27803C26.1438 8.86189 26.123 9.56789 25.592 10.1592C25.2107 10.5837 24.7273 10.8615 24.2165 11.0938C23.0234 11.6367 21.7574 11.9309 20.475 12.1565C18.179 12.5602 15.8599 12.6935 13.412 12.7225L13.4143 12.7233ZM13.7196 9.45097C16.2733 9.43309 18.6787 9.22457 21.0678 8.82912C21.4066 8.77327 21.4342 8.71667 21.3545 8.38452C20.9918 6.86902 20.6366 5.35127 20.2717 3.83651C20.1391 3.28691 20.0296 2.72613 19.8323 2.19961C19.515 1.3551 18.6534 0.946245 17.7925 1.20615C17.2429 1.37223 16.6948 1.56064 16.172 1.79672C14.2082 2.68145 12.2726 2.5474 10.3423 1.69692C9.96845 1.53234 9.59162 1.36999 9.20511 1.24115C8.39411 0.970076 7.63524 1.32829 7.39172 2.14748C6.78924 4.1761 6.2225 6.21515 5.64013 8.24973C5.57236 8.4873 5.6446 8.61613 5.89706 8.66379C8.52518 9.16127 11.1756 9.43086 13.7196 9.45097ZM4.93935 7.48639C4.00845 7.74406 3.14904 8.00546 2.39687 8.52379C1.69608 9.00711 1.67672 9.48001 2.41623 9.90748C3.04552 10.2709 3.72917 10.5703 4.424 10.7818C6.85254 11.5205 9.36299 11.7574 11.8846 11.8393C14.9678 11.9398 18.0397 11.811 21.0737 11.1854C22.1484 10.9642 23.2111 10.6939 24.1911 10.1815C24.4518 10.0453 24.7035 9.87248 24.918 9.67289C25.2442 9.36905 25.239 9.06297 24.9165 8.75763C24.7363 8.58709 24.5337 8.41431 24.3088 8.32048C23.6259 8.03376 22.9274 7.78428 22.2333 7.52363C22.17 7.49979 22.0977 7.49905 21.9935 7.48118C22.0828 7.80439 22.1662 8.08738 22.2385 8.37335C22.3889 8.96541 22.0694 9.49044 21.467 9.60363C19.4905 9.9745 17.4931 10.1793 15.4861 10.259C12.1639 10.3908 8.86999 10.1123 5.60587 9.48075C4.96318 9.35639 4.62507 8.84402 4.7703 8.20579C4.81945 7.98982 4.87083 7.77385 4.93786 7.48714L4.93935 7.48639Z" fill="white" stroke="white" stroke-width="0.5"/>
<path d="M16.2161 20.9109C15.3626 20.9094 14.7758 20.4462 14.2575 19.8534C13.9357 19.4847 13.5299 19.3641 13.1389 19.5532C13.0093 19.6158 12.8827 19.7126 12.7926 19.8251C12.1387 20.6383 11.3277 20.9637 10.2665 20.8558C8.94089 20.721 7.68157 20.435 6.54661 19.7223C4.93727 18.7125 4.01232 17.2409 3.71295 15.3791C3.62134 14.8079 3.77923 14.265 4.15159 13.8114C4.47629 13.4167 4.89482 13.2611 5.41612 13.3408C7.21835 13.6148 9.02802 13.833 10.8533 13.8703C12.351 13.9008 13.8516 13.9581 15.3477 13.9038C16.9526 13.845 18.5545 13.6781 20.1557 13.5411C20.6911 13.4957 21.2206 13.378 21.7568 13.3289C22.3004 13.279 22.7086 13.5404 22.9893 13.9931C23.3728 14.6113 23.3743 15.2711 23.1889 15.954C22.4799 18.565 20.7157 20.0485 18.1442 20.6435C17.5141 20.7895 16.8595 20.8252 16.2161 20.9116V20.9109ZM16.4268 20.0619C16.931 19.9904 17.4441 19.9561 17.9386 19.8422C20.3001 19.2985 21.8894 17.9327 22.4248 15.5042C22.4874 15.2219 22.4367 14.8928 22.3593 14.6068C22.2587 14.2344 22.0376 14.1302 21.6563 14.1816C21.2422 14.2374 20.8311 14.3149 20.4156 14.3543C19.0192 14.4869 17.6236 14.6798 16.2243 14.7148C14.1614 14.7654 12.0926 14.7565 10.0312 14.6664C8.49406 14.5994 6.96291 14.3715 5.43102 14.1994C4.98493 14.1495 4.74587 14.2538 4.63417 14.685C4.57459 14.9136 4.53661 15.1713 4.57906 15.3992C4.82556 16.7166 5.44815 17.8255 6.51086 18.6588C7.71284 19.6016 9.10771 19.9658 10.615 20.0284C11.2287 20.0537 11.6725 19.8258 12.0538 19.3916C12.097 19.3425 12.1395 19.2933 12.1827 19.2449C12.914 18.4198 14.0951 18.4138 14.8287 19.239C15.2554 19.7186 15.6948 20.1565 16.4268 20.0611V20.0619Z" fill="white" stroke="white" stroke-width="0.5"/>
<path d="M9.61019 18.7018C8.63386 18.6609 7.72679 18.1574 7.09005 17.1908C6.6745 16.56 6.85547 15.9732 7.54657 15.6663C8.26448 15.3476 9.02707 15.3141 9.78818 15.4079C10.235 15.463 10.6714 15.6045 11.1093 15.7199C11.2322 15.7527 11.3446 15.8279 11.4586 15.8897C12.3671 16.3775 12.2137 17.2831 11.7572 17.8216C11.2478 18.4218 10.6066 18.704 9.60945 18.7026L9.61019 18.7018ZM9.17676 16.1884C8.74408 16.2502 8.38214 16.2777 8.03213 16.3589C7.69551 16.4371 7.66572 16.554 7.86307 16.8229C8.2399 17.3375 8.73067 17.6815 9.36071 17.8163C10.1337 17.9817 10.8449 17.7151 11.1927 17.129C11.3402 16.8795 11.3111 16.7484 11.0587 16.6032C10.9552 16.5436 10.8427 16.4855 10.7265 16.4632C10.1911 16.3612 9.65338 16.2718 9.17602 16.1884H9.17676Z" fill="white" stroke="white" stroke-width="0.5"/>
<path d="M18.0886 15.3113C18.5861 15.4111 19.1007 15.4617 19.5788 15.6211C20.4367 15.9071 20.6222 16.5728 20.0986 17.3101C19.2295 18.5344 17.6388 19.0431 16.3802 18.4711C15.8045 18.2097 15.3518 17.8106 15.1894 17.1537C15.068 16.6622 15.243 16.2965 15.6303 16.0136C16.1009 15.6695 16.6498 15.5258 17.2136 15.4401C17.4973 15.3969 17.7863 15.3858 18.073 15.3597C18.0782 15.3433 18.0834 15.3277 18.0879 15.3113H18.0886ZM17.4869 17.8597C18.3269 17.8232 18.957 17.462 19.4261 16.8111C19.6108 16.555 19.5743 16.4552 19.2712 16.3502C19.2102 16.3293 19.1469 16.3025 19.0836 16.2995C18.5831 16.2794 18.0782 16.2184 17.5829 16.2615C17.1458 16.2995 16.7072 16.4217 16.2916 16.5676C15.9401 16.6912 15.9125 16.8938 16.1218 17.1991C16.4592 17.6914 16.944 17.8701 17.4869 17.8597Z" fill="white" stroke="white" stroke-width="0.5"/>
</svg>
