<svg width="24" height="22" viewBox="0 0 24 22" fill="none" xmlns="http://www.w3.org/2000/svg">
<path d="M18.2228 21.6699C17.6459 21.6699 16.9057 21.4999 15.9805 20.9999L12.7259 19.2299C12.3884 19.0499 11.7353 19.0499 11.4088 19.2299L8.14326 20.9999C6.21662 22.0499 5.08458 21.6299 4.57298 21.2899C4.07227 20.9499 3.28855 20.0799 3.80014 18.0799L4.57298 15.0099C4.66006 14.6899 4.4859 14.1399 4.22466 13.8999L1.52518 11.4199C0.175434 10.1799 0.284285 9.11995 0.46933 8.59995C0.654375 8.07995 1.24217 7.15995 3.11439 6.86995L6.58671 6.33995C6.91326 6.28995 7.38131 5.96995 7.52282 5.69995L9.44947 2.16995C10.3203 0.559946 11.4632 0.319946 12.0619 0.319946C12.6605 0.319946 13.8035 0.559946 14.6743 2.16995L16.59 5.68995C16.7424 5.95995 17.2105 6.27995 17.537 6.32995L21.0094 6.85995C22.8925 7.14995 23.4803 8.06995 23.6544 8.58995C23.8286 9.10995 23.9374 10.1699 22.5986 11.4099L19.8991 13.8999C19.6378 14.1399 19.4746 14.6799 19.5508 15.0099L20.3236 18.0799C20.8243 20.0799 20.0515 20.9499 19.5508 21.2899C19.2786 21.4699 18.8432 21.6699 18.2228 21.6699ZM12.0619 17.5899C12.5952 17.5899 13.1286 17.7099 13.5531 17.9399L16.8077 19.7099C17.7547 20.2299 18.3534 20.2299 18.582 20.0799C18.8106 19.9299 18.9739 19.3999 18.7344 18.4199L17.9615 15.3499C17.7547 14.5199 18.0922 13.4499 18.7453 12.8399L21.4448 10.3599C21.9781 9.86995 22.2176 9.38995 22.1087 9.05995C21.989 8.72995 21.4883 8.45995 20.7481 8.34995L17.2758 7.81995C16.4376 7.68995 15.5233 7.06995 15.1423 6.36995L13.2266 2.84995C12.8782 2.20995 12.4428 1.82995 12.0619 1.82995C11.6809 1.82995 11.2455 2.20995 10.9081 2.84995L8.98141 6.36995C8.60044 7.06995 7.68609 7.68995 6.84795 7.81995L3.38651 8.34995C2.64633 8.45995 2.14562 8.72995 2.02589 9.05995C1.90615 9.38995 2.15651 9.87995 2.68987 10.3599L5.38936 12.8399C6.04246 13.4399 6.37989 14.5199 6.17308 15.3499L5.40024 18.4199C5.14989 19.4099 5.32405 19.9299 5.55263 20.0799C5.78122 20.2299 6.36901 20.2199 7.32689 19.7099L10.5815 17.9399C10.9951 17.7099 11.5285 17.5899 12.0619 17.5899Z" fill="#F9FAFB"/>
</svg>
