<svg width="350" height="172" viewBox="0 0 350 172" fill="none" xmlns="http://www.w3.org/2000/svg">
<path d="M323.103 3.62621L323.155 3.62771H323.2C323.205 3.62792 323.216 3.62858 323.238 3.63045C323.285 3.6346 323.34 3.64079 323.454 3.65419C326.353 4.00228 329.327 4.87035 332.21 6.27523L332.213 6.27697C344.386 12.1913 349.275 24.6814 344.904 33.6803L293.301 139.819C293.301 139.819 293.301 139.819 293.301 139.819C284.775 157.353 267.023 168.474 247.572 168.474L-77.8736 168.5C-77.8737 168.5 -77.8737 168.5 -77.8738 168.5C-90.1319 168.5 -98.1796 155.625 -92.7938 144.554L-92.793 144.552L-38.9985 33.8282C-38.9983 33.8279 -38.9982 33.8277 -38.9981 33.8274C-30.0651 15.4536 -11.4346 3.77985 8.98866 3.75542C8.98907 3.75542 8.98948 3.75542 8.98988 3.75542L318.798 3.50004L323.103 3.62621Z" stroke="#F9FAFB" stroke-width="7"/>
</svg>
