<svg width="146" height="172" viewBox="0 0 146 172" fill="none" xmlns="http://www.w3.org/2000/svg">
<path d="M119.103 3.62621L119.155 3.62771H119.2C119.205 3.62792 119.216 3.62858 119.238 3.63045C119.285 3.6346 119.34 3.64079 119.454 3.65419C122.353 4.00228 125.327 4.87035 128.21 6.27523L128.213 6.27697C140.386 12.1913 145.275 24.6814 140.904 33.6803L89.3009 139.819C89.3009 139.819 89.3008 139.819 89.3008 139.819C80.7747 157.353 63.0227 168.474 43.5718 168.474L-281.874 168.5C-281.874 168.5 -281.874 168.5 -281.874 168.5C-294.132 168.5 -302.18 155.625 -296.794 144.554L-296.793 144.552L-242.998 33.8282C-242.998 33.8279 -242.998 33.8277 -242.998 33.8274C-234.065 15.4536 -215.435 3.77985 -195.011 3.75542C-195.011 3.75542 -195.011 3.75542 -195.01 3.75542L114.798 3.50004L119.103 3.62621Z" stroke="#009FBB" stroke-width="7"/>
</svg>
