<svg width="77" height="78" viewBox="0 0 77 78" fill="none" xmlns="http://www.w3.org/2000/svg">
<path d="M53.0442 43.5197C51.5013 42.5801 49.4836 41.5407 47.6637 42.3003C46.2592 42.88 45.369 45.0988 44.4591 46.2183C43.9843 46.798 43.4305 46.8979 42.7183 46.5981C37.4565 44.4792 33.4409 40.941 30.533 36.0435C30.0385 35.2839 30.1374 34.6842 30.7308 33.9846C31.6012 32.9451 32.709 31.7658 32.9463 30.3465C33.1837 28.9472 32.5309 27.3081 31.9573 26.0487C31.2254 24.4496 30.3945 22.1707 28.812 21.2712C27.3482 20.4316 25.4294 20.9114 24.1436 21.9708C21.9083 23.8099 20.8204 26.7084 20.8599 29.5669C20.8599 30.3865 20.9588 31.1861 21.1566 31.9856C21.6116 33.8647 22.4622 35.6437 23.4513 37.3029C24.1832 38.5622 24.9745 39.8016 25.8448 40.981C28.6538 44.839 32.1551 48.1972 36.2103 50.6959C38.228 51.9553 40.4039 53.0547 42.6788 53.7943C45.2108 54.6339 47.4659 55.5134 50.1957 54.9937C53.064 54.454 55.8729 52.6549 57.0203 49.8764C57.3565 49.0568 57.5346 48.1373 57.3368 47.2577C56.9411 45.4586 54.5278 44.3792 53.0838 43.5197H53.0442Z" fill="#A0E838"/>
<path d="M39.0392 0.202148C18.2885 0.202148 1.41502 17.2533 1.41502 38.2224C1.41502 44.6391 3.03709 50.9558 6.14276 56.5928L0.683105 77.1822L21.1766 71.645C26.6758 74.6635 32.8278 76.2626 39.059 76.2626C59.8096 76.2626 76.6831 59.2115 76.6831 38.2424C76.6831 17.2733 59.7898 0.202148 39.0392 0.202148ZM39.0392 69.0664C33.5795 69.0664 28.199 67.5671 23.4515 64.7086L22.1657 63.929L10.732 67.0274L13.7784 55.5334L12.9871 54.2141C10.0595 49.3766 8.51653 43.8395 8.51653 38.2224C8.51653 21.2112 22.2052 7.37842 39.0392 7.37842C55.8731 7.37842 69.5618 21.2112 69.5618 38.2224C69.5618 55.2336 55.8731 69.0664 39.0392 69.0664Z" fill="#A0E838"/>
</svg>
