<svg width="24" height="24" viewBox="0 0 24 24" fill="none" xmlns="http://www.w3.org/2000/svg">
<g clip-path="url(#clip0_4265_1847)">
<path d="M0.000376683 23.9999C0.257275 23.0668 0.502119 22.178 0.74621 21.2884C1.04379 20.2045 1.34438 19.1217 1.63142 18.0348C1.66155 17.9213 1.64498 17.7664 1.58923 17.6637C-0.859968 13.1743 -0.281006 7.82536 3.12534 3.99686C5.19974 1.66585 7.82258 0.326647 10.9434 0.0495573C16.217 -0.418524 20.9865 2.44523 23.0715 7.28095C25.0607 11.8952 23.7736 17.4919 19.9751 20.7948C17.996 22.5156 15.7081 23.5213 13.0935 23.7537C10.7969 23.9578 8.61437 23.5221 6.56295 22.4671C6.40211 22.3844 6.26387 22.3671 6.08909 22.4133C4.1503 22.9258 2.20962 23.43 0.269329 23.9364C0.197382 23.9552 0.124682 23.9706 0 24.0003L0.000376683 23.9999ZM2.87146 21.17C2.94792 21.1535 2.98672 21.1467 3.02477 21.1369C4.1002 20.8572 5.17789 20.585 6.24955 20.2917C6.51022 20.2203 6.7125 20.2444 6.95056 20.3805C9.86232 22.0453 12.8976 22.2904 15.9808 20.9651C20.2708 19.1214 22.5844 14.7733 21.825 10.1616C21.0886 5.69023 17.0924 2.17905 12.5349 2.00798C10.0183 1.91361 7.75365 2.62457 5.80243 4.21605C3.54911 6.05416 2.31698 8.44495 2.13579 11.3407C2.00094 13.4931 2.5509 15.485 3.72992 17.2979C3.83388 17.4577 3.85724 17.5964 3.8045 17.7833C3.48922 18.8965 3.18825 20.0135 2.87108 21.1704L2.87146 21.17Z" fill="#F9FAFB"/>
<path d="M8.17899 6.41145C8.71313 6.27197 8.95345 6.61071 9.13501 7.07917C9.39944 7.76231 9.68723 8.4368 9.97953 9.10865C10.0873 9.35679 10.0809 9.57335 9.91813 9.78765C9.68082 10.0997 9.45406 10.42 9.20545 10.7227C9.04498 10.9182 9.02653 11.0953 9.15611 11.3133C10.1321 12.9556 11.4998 14.1403 13.283 14.8459C13.5158 14.9381 13.7057 14.8975 13.8635 14.7016C14.1675 14.3249 14.4824 13.9568 14.7743 13.571C14.9359 13.3579 15.1269 13.2793 15.3612 13.3879C16.217 13.7846 17.0706 14.1861 17.9132 14.6087C18.0138 14.6591 18.0997 14.8508 18.0974 14.9757C18.0741 16.2333 17.703 16.8446 16.3372 17.4127C15.5657 17.7338 14.7679 17.6526 13.975 17.4322C11.1047 16.6344 8.98999 14.8358 7.29529 12.4687C6.75739 11.7175 6.27184 10.9415 6.07408 10.0275C5.79684 8.74735 6.12117 7.63786 7.06853 6.71674C7.371 6.42235 7.73752 6.36145 8.17899 6.41145Z" fill="#F9FAFB"/>
</g>
<defs>
<clipPath id="clip0_4265_1847">
<rect width="24" height="24" fill="white"/>
</clipPath>
</defs>
</svg>
