<svg width="27" height="25" viewBox="0 0 27 25" fill="none" xmlns="http://www.w3.org/2000/svg">
    <path
        d="M21.8939 5.83272C21.8939 6.63977 21.2351 7.28173 20.4068 7.28173C19.5785 7.28173 18.9196 6.63977 18.9196 5.83272C18.9196 5.02568 19.5785 4.38371 20.4068 4.38371C21.2351 4.38371 21.8939 5.02568 21.8939 5.83272ZM20.0491 12.3258C20.0491 15.6823 17.2442 18.4153 13.7992 18.4153C10.3542 18.4153 7.54922 15.6823 7.54922 12.3258C7.54922 8.96919 10.3542 6.23624 13.7992 6.23624C17.2442 6.23624 20.0491 8.96919 20.0491 12.3258ZM17.8089 12.3258C17.8089 10.1798 16.0205 8.41893 13.7992 8.41893C11.5778 8.41893 9.78941 10.1614 9.78941 12.3258C9.78941 14.4901 11.5778 16.2326 13.7992 16.2326C16.0205 16.2326 17.8089 14.4901 17.8089 12.3258ZM26.4496 7.42847C26.4496 3.31988 23.0423 0 18.8255 0H8.41518C4.19836 0 0.791016 3.31988 0.791016 7.42847V17.5715C0.791016 21.6801 4.19836 25 8.41518 25H18.8255C23.0423 25 26.4496 21.6801 26.4496 17.5715V7.42847ZM23.9459 17.4615C23.9459 20.2861 21.5927 22.5605 18.7125 22.5605H8.54696C5.64789 22.5605 3.31358 20.2678 3.31358 17.4615V7.55686C3.31358 4.73221 5.66672 2.45781 8.54696 2.45781H18.7125C21.6116 2.45781 23.9459 4.75055 23.9459 7.55686V17.4615Z"
        fill="#FFFF" />
</svg>