<svg width="12" height="25" viewBox="0 0 12 25" fill="none" xmlns="http://www.w3.org/2000/svg">
    <path fill-rule="evenodd" clip-rule="evenodd"
        d="M2.48666 12.5936V24.6819C2.48666 24.8503 2.63186 25 2.79522 25H7.15141C7.31476 25 7.45997 24.8503 7.45997 24.6819V12.4064H10.6182C10.7816 12.4064 10.9086 12.2754 10.9268 12.1257L11.2353 8.42066C11.2353 8.23353 11.1083 8.08383 10.9268 8.08383H7.45997V5.46407C7.45997 4.84656 7.95004 4.34132 8.54902 4.34132H10.9812C11.1446 4.34132 11.2898 4.19162 11.2898 4.0232V0.318114C11.2898 0.149701 11.1446 0 10.9812 0H6.87915C4.42879 0 2.48666 2.00225 2.48666 4.49102V8.06512H0.308563C0.145206 8.06512 0 8.21482 0 8.38323V12.0883C0 12.2567 0.145206 12.4064 0.308563 12.4064H2.48666V12.6123V12.5936Z"
        fill="#FFFF" />
</svg>