<svg width="61" height="63" viewBox="0 0 61 63" fill="none" xmlns="http://www.w3.org/2000/svg">
<path d="M40.667 59.4739H20.667C11.542 59.4739 6.29199 53.9839 6.29199 44.4419V18.2995C6.29199 8.75749 11.542 3.26758 20.667 3.26758H40.667C49.792 3.26758 55.042 8.75749 55.042 18.2995V44.4419C55.042 53.9839 49.792 59.4739 40.667 59.4739ZM20.667 7.18895C13.517 7.18895 10.042 10.8227 10.042 18.2995V44.4419C10.042 51.9187 13.517 55.5525 20.667 55.5525H40.667C47.817 55.5525 51.292 51.9187 51.292 44.4419V18.2995C51.292 10.8227 47.817 7.18895 40.667 7.18895H20.667Z" fill="#A0E838"/>
<path d="M23.167 29.044C22.742 29.044 22.317 28.9656 21.917 28.7826C20.767 28.2598 20.042 27.0833 20.042 25.8024V5.22826C20.042 4.15642 20.892 3.26758 21.917 3.26758H39.417C40.442 3.26758 41.292 4.15642 41.292 5.22826V25.7762C41.292 27.0833 40.567 28.2598 39.417 28.7565C38.292 29.2793 36.9671 29.0441 36.0421 28.1552L30.667 23.0051L25.2919 28.1814C24.6919 28.7565 23.942 29.044 23.167 29.044ZM30.667 18.8485C31.417 18.8485 32.1919 19.136 32.7919 19.7111L37.542 24.2861V7.18895H23.792V24.2861L28.5421 19.7111C29.1421 19.136 29.917 18.8485 30.667 18.8485Z" fill="#A0E838"/>
<path d="M44.417 38.56H33.792C32.767 38.56 31.917 37.6712 31.917 36.5994C31.917 35.5275 32.767 34.6387 33.792 34.6387H44.417C45.442 34.6387 46.292 35.5275 46.292 36.5994C46.292 37.6712 45.442 38.56 44.417 38.56Z" fill="#A0E838"/>
<path d="M44.417 49.0171H23.167C22.142 49.0171 21.292 48.1282 21.292 47.0564C21.292 45.9845 22.142 45.0957 23.167 45.0957H44.417C45.442 45.0957 46.292 45.9845 46.292 47.0564C46.292 48.1282 45.442 49.0171 44.417 49.0171Z" fill="#A0E838"/>
</svg>
