<svg width="61" height="61" viewBox="0 0 61 61" fill="none" xmlns="http://www.w3.org/2000/svg">
<path d="M33.292 40.8424H28.592C25.267 40.8424 22.542 38.0424 22.542 34.5924C22.542 33.5674 23.392 32.7174 24.417 32.7174C25.442 32.7174 26.292 33.5674 26.292 34.5924C26.292 35.9674 27.317 37.0924 28.592 37.0924H33.292C34.267 37.0924 35.042 36.2174 35.042 35.1424C35.042 33.7924 34.667 33.5924 33.817 33.2924L26.292 30.6674C24.692 30.1174 22.542 28.9424 22.542 25.2674C22.542 22.1424 25.017 19.5674 28.042 19.5674H32.742C36.067 19.5674 38.792 22.3674 38.792 25.8174C38.792 26.8424 37.942 27.6924 36.917 27.6924C35.892 27.6924 35.042 26.8424 35.042 25.8174C35.042 24.4424 34.017 23.3174 32.742 23.3174H28.042C27.067 23.3174 26.292 24.1924 26.292 25.2674C26.292 26.6174 26.667 26.8174 27.517 27.1174L35.042 29.7424C36.642 30.2924 38.792 31.4674 38.792 35.1424C38.792 38.2924 36.317 40.8424 33.292 40.8424Z" fill="#A0E838"/>
<path d="M30.667 43.3428C29.642 43.3428 28.792 42.4928 28.792 41.4678V18.9678C28.792 17.9428 29.642 17.0928 30.667 17.0928C31.692 17.0928 32.542 17.9428 32.542 18.9678V41.4678C32.542 42.4928 31.692 43.3428 30.667 43.3428Z" fill="#A0E838"/>
<path d="M30.667 57.0928C15.842 57.0928 3.79199 45.0428 3.79199 30.2178C3.79199 15.3928 15.842 3.34277 30.667 3.34277C31.692 3.34277 32.542 4.19277 32.542 5.21777C32.542 6.24277 31.692 7.09277 30.667 7.09277C17.917 7.09277 7.54199 17.4678 7.54199 30.2178C7.54199 42.9678 17.917 53.3428 30.667 53.3428C43.417 53.3428 53.792 42.9678 53.792 30.2178C53.792 29.1928 54.642 28.3428 55.667 28.3428C56.692 28.3428 57.542 29.1928 57.542 30.2178C57.542 45.0428 45.492 57.0928 30.667 57.0928Z" fill="#A0E838"/>
<path d="M53.167 19.5928H43.167C42.142 19.5928 41.292 18.7428 41.292 17.7178V7.71777C41.292 6.69277 42.142 5.84277 43.167 5.84277C44.192 5.84277 45.042 6.69277 45.042 7.71777V15.8428H53.167C54.192 15.8428 55.042 16.6928 55.042 17.7178C55.042 18.7428 54.192 19.5928 53.167 19.5928Z" fill="#A0E838"/>
<path d="M43.1666 19.5924C42.6916 19.5924 42.2166 19.4174 41.8416 19.0424C41.1166 18.3174 41.1166 17.1174 41.8416 16.3924L54.3416 3.89238C55.0666 3.16738 56.2666 3.16738 56.9916 3.89238C57.7166 4.61738 57.7166 5.81738 56.9916 6.54238L44.4916 19.0424C44.1166 19.4174 43.6416 19.5924 43.1666 19.5924Z" fill="#A0E838"/>
</svg>
