<svg width="60" height="61" viewBox="0 0 60 61" fill="none" xmlns="http://www.w3.org/2000/svg">
<path d="M43.9 45.8898H16.1C6.15 45.8898 3.125 42.8648 3.125 32.9148V17.0648C3.125 7.11484 6.15 4.08984 16.1 4.08984H43.875C53.825 4.08984 56.85 7.11484 56.85 17.0648V32.8898C56.875 42.8648 53.85 45.8898 43.9 45.8898ZM16.1 7.83984C8.25 7.83984 6.875 9.21484 6.875 17.0648V32.8898C6.875 40.7398 8.25 42.1148 16.1 42.1148H43.875C51.725 42.1148 53.1 40.7398 53.1 32.8898V17.0648C53.1 9.21484 51.725 7.83984 43.875 7.83984H16.1Z" fill="#A0E838"/>
<path d="M30 57.8396C28.975 57.8396 28.125 56.9896 28.125 55.9646V44.0146C28.125 42.9896 28.975 42.1396 30 42.1396C31.025 42.1396 31.875 42.9896 31.875 44.0146V55.9646C31.875 56.9896 31.025 57.8396 30 57.8396Z" fill="#A0E838"/>
<path d="M55 35.3398H5C3.975 35.3398 3.125 34.4898 3.125 33.4648C3.125 32.4398 3.975 31.5898 5 31.5898H55C56.025 31.5898 56.875 32.4398 56.875 33.4648C56.875 34.4898 56.025 35.3398 55 35.3398Z" fill="#A0E838"/>
<path d="M41.25 57.8398H18.75C17.725 57.8398 16.875 56.9898 16.875 55.9648C16.875 54.9398 17.725 54.0898 18.75 54.0898H41.25C42.275 54.0898 43.125 54.9398 43.125 55.9648C43.125 56.9898 42.275 57.8398 41.25 57.8398Z" fill="#A0E838"/>
</svg>
