<svg width="61" height="61" viewBox="0 0 61 61" fill="none" xmlns="http://www.w3.org/2000/svg">
<path d="M25.3084 57.2027C24.8084 57.2027 24.4084 57.1027 24.1084 56.9777C23.1084 56.6028 21.4084 55.378 21.4084 51.5036V35.3813H15.5584C12.2084 35.3813 11.0084 33.8065 10.5834 32.8817C10.1584 31.9318 9.78345 30.0071 11.9834 27.4826L30.9084 5.98609C33.4584 3.08656 35.5334 3.28653 36.5334 3.66147C37.5334 4.03641 39.2334 5.26121 39.2334 9.13557V25.2579H45.0834C48.4334 25.2579 49.6334 26.8327 50.0584 27.7575C50.4834 28.7074 50.8584 30.632 48.6584 33.1566L29.7334 54.6531C27.9584 56.6778 26.4084 57.2027 25.3084 57.2027ZM35.1584 7.18589C35.0834 7.28587 34.5584 7.53583 33.7334 8.48568L14.8084 29.9821C14.1084 30.782 14.0084 31.2819 14.0084 31.3819C14.0584 31.4069 14.5084 31.6569 15.5584 31.6569H23.2834C24.3084 31.6569 25.1584 32.5067 25.1584 33.5316V51.5286C25.1584 52.7784 25.3834 53.3283 25.4834 53.4783C25.5584 53.3783 26.0834 53.1283 26.9084 52.1785L45.8335 30.682C46.5335 29.8822 46.6334 29.3822 46.6334 29.2823C46.5835 29.2573 46.1334 29.0073 45.0834 29.0073H37.3584C36.3334 29.0073 35.4834 28.1574 35.4834 27.1326V9.13557C35.5084 7.88577 35.2584 7.36086 35.1584 7.18589Z" fill="#A0E838"/>
</svg>
