<svg width="180" height="168" viewBox="0 0 180 168" fill="none" xmlns="http://www.w3.org/2000/svg">
<g clip-path="url(#clip0_5752_8327)">
<path d="M31.3632 147.056H26.2947V155.514C26.2947 157.341 27.2421 157.971 28.9316 157.971C29.4947 157.971 29.9895 157.903 30.3737 157.761L30.0947 160.286C29.6737 160.496 28.9684 160.565 28.3368 160.565C25.4526 160.565 23.1316 158.916 23.1316 155.829V147.056H20V144.494H23.1316V141.266L26.3 139.617V144.494H31.9316L31.3684 147.056H31.3632Z" fill="#004993"/>
<path d="M42.8359 147.829C42.5569 147.761 42.1306 147.687 41.6727 147.687C39.5991 147.687 37.4148 148.669 37.4148 152.354V160.392H34.2148V144.495H37.4148V147.724H37.4517C38.0517 145.44 39.8464 144.285 42.0622 144.285C42.5201 144.285 43.2569 144.39 43.6096 144.532L42.8359 147.829Z" fill="#004993"/>
<path d="M56.9064 160.392V158.323H56.8696C56.1643 159.725 54.7222 160.78 51.9433 160.78C48.459 160.78 45.8906 158.57 45.8906 155.026V144.5H49.0906V154.711C49.0906 156.36 50.1117 158.045 52.7854 158.045C55.459 158.045 56.6222 156.36 56.6222 154.711V144.5H59.8222V160.397H56.9012L56.9064 160.392Z" fill="#004993"/>
<path d="M67.9226 160.603C66.091 160.603 64.5805 160.147 63.491 159.443L63.1016 156.109C64.2647 157.054 66.091 157.9 67.991 157.9C69.47 157.9 70.4542 157.091 70.4542 156.073C70.4542 154.986 69.6805 154.387 68.2384 153.862C65.1437 152.739 63.3805 151.3 63.3805 148.775C63.3805 146.25 65.5279 144.281 68.6595 144.281C70.4542 144.281 72.1752 144.911 72.7752 145.3L72.1437 147.967C71.4068 147.473 70.3121 146.948 68.6279 146.948C67.3279 146.948 66.4805 147.652 66.4805 148.67C66.4805 149.689 67.1858 150.109 68.7331 150.67C71.8647 151.794 73.6595 153.232 73.6595 155.968C73.6595 158.493 71.7226 160.598 67.9226 160.598V160.603Z" fill="#004993"/>
<path d="M86.6053 147.056H81.5369V155.514C81.5369 157.341 82.4843 157.971 84.1738 157.971C84.7369 157.971 85.2317 157.903 85.6159 157.761L85.3369 160.286C84.9159 160.496 84.2106 160.565 83.579 160.565C80.6948 160.565 78.3738 158.916 78.3738 155.829V147.056H75.2422V144.494H78.3738V141.266L81.5422 139.617V144.494H87.1738L86.6106 147.056H86.6053Z" fill="#004993"/>
<path d="M107.927 138.599C107.19 138.284 106.306 138.074 105.606 138.074C103.106 138.074 101.874 139.581 101.874 142.463V144.5H107.048L106.416 147.062H101.879V160.397H98.6793V147.062H95.9688V144.5H98.6793V142.29C98.6793 137.796 101.248 135.412 105.4 135.412C106.632 135.412 107.721 135.585 108.569 135.937L107.937 138.604L107.927 138.599Z" fill="#004993"/>
<path d="M120.34 160.392V158.323H120.303C119.598 159.725 118.156 160.78 115.377 160.78C111.893 160.78 109.324 158.57 109.324 155.026V144.5H112.524V154.711C112.524 156.36 113.545 158.045 116.219 158.045C118.893 158.045 120.056 156.36 120.056 154.711V144.5H123.256V160.397H120.335L120.34 160.392Z" fill="#004993"/>
<path d="M137.868 160.393V150.182C137.868 148.533 136.847 146.848 134.174 146.848C131.5 146.848 130.337 148.533 130.337 150.182V160.393H127.137V144.496H130.058V146.564H130.095C130.8 145.163 132.242 144.107 135.021 144.107C138.505 144.107 141.074 146.318 141.074 149.861V160.388H137.874L137.868 160.393Z" fill="#004993"/>
<path d="M156.794 160.393V158.639H156.757C156.052 159.658 154.541 160.781 151.936 160.781C148.42 160.781 144.23 157.973 144.23 152.465C144.23 147.551 147.715 144.113 152.325 144.113C154.052 144.113 156.02 144.816 156.62 145.446V135.408H159.82V160.398H156.794V160.393ZM156.62 148.565C156.125 148.003 154.788 146.984 152.646 146.984C149.799 146.984 147.473 149.195 147.473 152.497C147.473 155.799 149.794 158.041 152.646 158.041C154.688 158.041 155.988 156.954 156.62 156.004V148.565Z" fill="#004993"/>
<path d="M156.801 28.2184H23.5953C21.9269 28.2184 20.5742 26.8639 20.5742 25.1891V5.12886C20.5795 3.45411 21.9269 2.09961 23.5953 2.09961H156.801C158.469 2.09961 159.822 3.45411 159.822 5.12886V25.1891C159.822 26.8639 158.469 28.2184 156.801 28.2184Z" fill="#004993"/>
<path d="M90.1992 89.964V41.2598L20.5781 75.0698V113.867C20.5781 117.054 23.6571 119.632 27.4571 119.632C28.4097 119.632 29.315 119.474 30.1413 119.18L31.2308 118.687L90.1992 89.964Z" fill="#004993"/>
<path d="M90.205 41.2598L90.1992 41.2656H90.205V41.2598Z" fill="#004993"/>
<path opacity="0.5" d="M90.207 41.2637V89.9679L149.175 118.691L150.265 119.184C151.091 119.478 151.997 119.636 152.949 119.636C156.749 119.636 159.828 117.053 159.828 113.871V75.0737L153.497 71.9972L90.207 41.2637Z" fill="#004993"/>
</g>
<defs>
<clipPath id="clip0_5752_8327">
<rect width="139.821" height="158.681" fill="white" transform="translate(20 2.09961)"/>
</clipPath>
</defs>
</svg>
