<svg width="92" height="22" viewBox="0 0 92 22" fill="none" xmlns="http://www.w3.org/2000/svg">
<g id="Capa_1" clip-path="url(#clip0_91_317)">
<path id="Vector" fill-rule="evenodd" clip-rule="evenodd" d="M22.8391 3.14469C22.8391 3.48983 22.7232 3.77107 22.5558 3.95003C22.3885 4.11621 22.0924 4.23126 21.7448 4.23126C21.3971 4.23126 21.1654 4.11621 20.9337 3.95003C20.7663 3.78385 20.6504 3.48983 20.6504 3.14469V0.115051H19.8394V3.14469C19.8394 3.54097 19.8909 3.88612 20.0711 4.11621C20.2385 4.34631 20.4702 4.57641 20.7663 4.74259C21.0495 4.85764 21.3457 4.97269 21.6933 4.97269C22.0409 4.97269 22.3885 4.92156 22.6202 4.74259C22.9034 4.62754 23.1352 4.39745 23.3154 4.11621C23.4828 3.83498 23.5472 3.48983 23.5472 3.14469V0.115051H22.852V3.14469H22.8391Z" fill="#14213D"/>
<path id="Vector_2" fill-rule="evenodd" clip-rule="evenodd" d="M27.7958 3.65602L25.4397 0.115051H24.6287V4.85764H25.4397V1.31668L27.7958 4.85764H28.6068V0.115051H27.7958V3.65602Z" fill="#14213D"/>
<path id="Vector_3" fill-rule="evenodd" clip-rule="evenodd" d="M30.7311 3.25975L31.5422 1.03546L32.3532 3.25975H30.7439H30.7311ZM31.0787 0.115064L29.3535 4.85766H30.1646L30.5122 3.88613H32.5335L32.8811 4.85766H33.6922L31.9413 0.0511475L31.0787 0.102281V0.115064Z" fill="#14213D"/>
<path id="Vector_4" fill-rule="evenodd" clip-rule="evenodd" d="M36.2542 4.85764H38.9063V4.23126H37.0009V2.7484H38.6745V2.10924H37.0009V0.741431H38.9063V0.115051H36.2542V4.85764Z" fill="#14213D"/>
<path id="Vector_5" fill-rule="evenodd" clip-rule="evenodd" d="M42.3566 3.83498L40.6958 0.115051H39.8333V4.85764H40.6315V1.59791L42.1249 4.85764H42.6527L44.1462 1.59791V4.85764H44.8929V0.115051H44.0947L42.3566 3.83498Z" fill="#14213D"/>
<path id="Vector_6" fill-rule="evenodd" clip-rule="evenodd" d="M48.2917 2.10924C48.1244 2.22429 47.9441 2.33934 47.5965 2.33934H46.7339V0.741431H47.5965C48.1759 0.741431 48.4591 1.02266 48.4591 1.54678C48.5106 1.77688 48.4076 1.94306 48.2917 2.12202V2.10924ZM48.5235 0.281234C48.2917 0.166184 47.9441 0.115051 47.5965 0.115051H45.9229V4.85764H46.7339V2.91459H47.5965C47.9956 2.91459 48.2917 2.86345 48.575 2.68449C48.8067 2.56944 49.0384 2.40326 49.1543 2.17316C49.2702 1.94306 49.3217 1.71296 49.3217 1.48286C49.3217 1.20163 49.2702 0.97153 49.1543 0.741431C49.0384 0.511332 48.8067 0.396283 48.5235 0.281234Z" fill="#14213D"/>
<path id="Vector_7" fill-rule="evenodd" clip-rule="evenodd" d="M50.8279 2.33934V0.741431H51.6905C51.9738 0.741431 52.2055 0.792564 52.3857 0.97153C52.5531 1.13771 52.6175 1.31668 52.6175 1.54678C52.6175 1.77688 52.566 2.00697 52.3857 2.12202C52.2184 2.28821 51.9866 2.35212 51.6905 2.35212H50.8279V2.33934ZM53.1325 2.39047C53.2998 2.16037 53.4157 1.87914 53.4157 1.53399C53.4157 1.25276 53.3642 1.02266 53.2483 0.792564C53.1325 0.562466 52.9651 0.396283 52.669 0.281234C52.4372 0.166184 52.0896 0.115051 51.742 0.115051H50.0684V4.85764H50.8794V2.96572H51.4588L52.5531 4.85764H53.4801L52.2699 2.85067C52.669 2.79954 52.9651 2.62057 53.1325 2.39047Z" fill="#14213D"/>
<path id="Vector_8" fill-rule="evenodd" clip-rule="evenodd" d="M54.394 4.85764H57.0977V4.23126H55.2051V2.7484H56.8659V2.10924H55.2051V0.741431H57.0977V0.115051H54.394V4.85764Z" fill="#14213D"/>
<path id="Vector_9" fill-rule="evenodd" clip-rule="evenodd" d="M60.5609 2.40323C60.3935 2.35209 60.0974 2.23704 59.8141 2.122C59.5824 2.07086 59.415 2.00695 59.2348 1.95581C59.1189 1.90468 59.0031 1.84076 58.8872 1.72571C58.7713 1.61066 58.7713 1.49562 58.7713 1.38057C58.7713 1.15047 58.8228 0.984285 59.0031 0.869235C59.1704 0.754186 59.3507 0.703053 59.5824 0.703053C59.8141 0.703053 60.0459 0.754186 60.1617 0.869235C60.3291 0.984285 60.3935 1.15047 60.3935 1.32943H61.2561C61.2046 0.933151 61.0887 0.588003 60.7411 0.357905C60.4579 0.127806 60.0459 0.0127563 59.5953 0.0127563C59.2477 0.0127563 58.9644 0.0638894 58.7327 0.178939C58.501 0.293988 58.2692 0.460171 58.1533 0.639136C58.0375 0.869235 57.9216 1.09933 57.9216 1.38057C57.9216 1.6618 57.9731 1.8919 58.1533 2.07086C58.3207 2.23704 58.4366 2.35209 58.6683 2.46714C58.8357 2.51828 59.1318 2.63333 59.415 2.69724C59.6468 2.74838 59.8785 2.81229 59.9944 2.86342C60.1102 2.91456 60.2261 2.97847 60.342 3.09352C60.4579 3.20857 60.4579 3.32362 60.4579 3.4898C60.4579 3.7199 60.4064 3.83495 60.2261 4.00114C60.0588 4.16732 59.8785 4.16732 59.5953 4.16732C59.312 4.16732 59.1318 4.11618 58.9644 3.93722C58.7971 3.77104 58.7327 3.65599 58.7327 3.42589H57.8701C57.8701 3.70712 57.9216 3.93722 58.1019 4.16732C58.2692 4.39742 58.4495 4.51247 58.7327 4.62752C58.9644 4.74256 59.2477 4.7937 59.5953 4.7937C59.9429 4.7937 60.2261 4.74256 60.4579 4.62752C60.6896 4.51247 60.9213 4.34628 61.0372 4.11618C61.1531 3.88609 61.2046 3.65599 61.2046 3.42589C61.2046 3.14466 61.1531 2.91456 60.9728 2.68446C60.9728 2.56941 60.8055 2.45436 60.5737 2.40323H60.5609Z" fill="#14213D"/>
<path id="Vector_10" fill-rule="evenodd" clip-rule="evenodd" d="M63.316 3.25975L64.1271 1.03546L64.9382 3.25975H63.3289H63.316ZM63.6636 0.115064L61.9385 4.85766H62.7496L63.0972 3.88613H65.1184L65.466 4.85766H66.3286L64.5906 0.0511475L63.6636 0.102281V0.115064Z" fill="#14213D"/>
<path id="Vector_11" fill-rule="evenodd" clip-rule="evenodd" d="M71.6715 3.77107C71.3882 4.0523 70.9248 4.23126 70.4098 4.23126H69.5987V0.741431H70.4098C70.9891 0.741431 71.3882 0.907614 71.6715 1.20163C71.9547 1.48286 72.1349 1.94306 72.1349 2.51831C72.1349 3.09355 72.0191 3.48983 71.6715 3.77107ZM71.723 0.396283C71.3239 0.230101 70.9119 0.115051 70.3969 0.115051H68.8391V4.85764H70.3969C70.9119 4.85764 71.3754 4.74259 71.723 4.57641C72.0706 4.41023 72.4182 4.11621 72.6499 3.77107C72.8817 3.42592 72.9975 2.96572 72.9975 2.51831C72.9975 2.07089 72.8302 1.59791 72.6499 1.20163C72.4182 0.856481 72.1349 0.575249 71.723 0.396283Z" fill="#14213D"/>
<path id="Vector_12" fill-rule="evenodd" clip-rule="evenodd" d="M73.7441 4.85764H76.3834V4.23126H74.4909V2.7484H76.1516V2.10924H74.4909V0.741431H76.3834V0.115051H73.7441V4.85764Z" fill="#14213D"/>
<path id="Vector_13" fill-rule="evenodd" clip-rule="evenodd" d="M31.9026 19.4945H29.1346V11.4282H31.9026C34.2586 11.4282 35.8807 13.2051 35.8807 15.4933C35.8807 17.7815 34.2714 19.4945 31.9026 19.4945ZM31.9026 9.89423H27.3579V21.0412H31.9026C35.237 21.0412 37.6574 18.7019 37.6574 15.4422C37.6574 12.1824 35.237 9.89423 31.9026 9.89423Z" fill="#14213D"/>
<path id="Vector_14" fill-rule="evenodd" clip-rule="evenodd" d="M41.5714 16.1197H46.8627V14.509H41.5714V11.4794H47.7253V9.88147H39.8462V21.0285H47.9055V19.4945H41.5714V16.1197Z" fill="#14213D"/>
<path id="Vector_15" fill-rule="evenodd" clip-rule="evenodd" d="M51.8192 9.88147H50.094V21.0285H58.2048V19.4945H51.8192V9.88147Z" fill="#14213D"/>
<path id="Vector_16" fill-rule="evenodd" clip-rule="evenodd" d="M63.625 14.6241C62.0157 14.1128 61.0888 13.8187 61.0888 12.8472C61.0888 11.8757 62.1187 11.3004 63.1616 11.3004C64.4233 11.3004 65.3502 12.1058 65.8652 12.9623L67.1912 12.0419C66.5604 10.8402 65.2343 9.75366 63.1616 9.75366C61.3205 9.75366 59.3636 10.8402 59.3636 12.8344C59.3636 14.8286 61.0373 15.5189 63.1616 16.2092C64.8352 16.7205 65.6978 17.1296 65.6978 18.1011C65.6978 19.0727 64.655 19.699 63.3933 19.699C61.8999 19.699 60.8571 18.8937 60.2777 17.8071L58.9517 18.7275C59.5825 20.1592 61.1918 21.2458 63.3804 21.2458C65.3373 21.2458 67.4101 20.2104 67.4101 18.1011C67.4101 15.9919 65.6849 15.3016 63.6122 14.6113L63.625 14.6241Z" fill="#14213D"/>
<path id="Vector_17" fill-rule="evenodd" clip-rule="evenodd" d="M77.2588 16.9122C77.2588 18.5741 76.113 19.5967 74.2591 19.5967C72.4052 19.5967 71.2593 18.5741 71.2593 16.9122V9.88144H69.5342V17.0273C69.5342 19.5967 71.3752 21.1946 74.2591 21.1946C77.1429 21.1946 78.9839 19.5328 78.9839 16.9634V9.86865H77.2588V16.8994V16.9122Z" fill="#14213D"/>
<path id="Vector_18" fill-rule="evenodd" clip-rule="evenodd" d="M86.2451 19.4945H83.4771V11.4282H86.2451C88.6655 11.4282 90.2233 13.2051 90.2233 15.4933C90.2233 17.7815 88.614 19.4945 86.2451 19.4945ZM86.2451 9.89423H81.7004V21.0412H86.2451C89.5795 21.0412 91.9999 18.7019 91.9999 15.4422C91.9999 12.1824 89.5795 9.89423 86.2451 9.89423Z" fill="#14213D"/>
<path id="Vector_19" fill-rule="evenodd" clip-rule="evenodd" d="M12.5525 12.86C12.5525 12.86 12.7199 13.0261 12.7842 13.0901L13.5309 12.3998C13.4151 12.2847 13.3636 12.2336 13.2477 12.1185L12.5525 12.86Z" fill="#14213D"/>
<path id="Vector_20" fill-rule="evenodd" clip-rule="evenodd" d="M6.6817 14.0616C6.6302 13.9465 6.6302 13.8315 6.6302 13.7164L0.296028 13.6653C0.244531 13.8954 0.180159 14.1255 0.128662 14.3556V14.4067L6.69457 14.0616H6.6817Z" fill="#14213D"/>
<path id="Vector_21" fill-rule="evenodd" clip-rule="evenodd" d="M6.56599 13.2051V12.86L0.927034 11.8884C0.811165 12.1185 0.695296 12.3486 0.643799 12.5148V12.5659L6.57887 13.1923L6.56599 13.2051Z" fill="#14213D"/>
<path id="Vector_22" fill-rule="evenodd" clip-rule="evenodd" d="M6.61739 12.3998C6.61739 12.2847 6.66889 12.2336 6.73326 12.1185V12.0674L1.95688 10.2905C1.78952 10.4567 1.67365 10.6357 1.49341 10.8019V10.853L6.61739 12.3998Z" fill="#14213D"/>
<path id="Vector_23" fill-rule="evenodd" clip-rule="evenodd" d="M6.91352 11.8245C6.91352 11.8245 7.02939 11.7095 7.08089 11.5944L3.33446 9.30621C3.16709 9.42126 2.93535 9.53631 2.75511 9.65136H2.70361L6.90065 11.8245H6.91352Z" fill="#14213D"/>
<path id="Vector_24" fill-rule="evenodd" clip-rule="evenodd" d="M7.89202 16.4648C7.84052 16.3498 7.72465 16.2347 7.66028 16.1197L0.347656 19.3155C0.399154 19.5456 0.515023 19.8268 0.579394 20.0058L7.89202 16.4648Z" fill="#14213D"/>
<path id="Vector_25" fill-rule="evenodd" clip-rule="evenodd" d="M7.36422 11.4283C7.36422 11.4283 7.48009 11.3132 7.53159 11.3132H7.58309L5.04684 8.85883C4.93097 8.85883 4.87948 8.85883 4.76361 8.90996C4.64774 8.90996 4.53187 8.96109 4.416 8.96109H4.3645L7.36422 11.4155V11.4283Z" fill="#14213D"/>
<path id="Vector_26" fill-rule="evenodd" clip-rule="evenodd" d="M6.96502 14.8542C6.91352 14.7391 6.91352 14.6241 6.84915 14.509L0 15.4806V16.2859L6.96502 14.8542Z" fill="#14213D"/>
<path id="Vector_27" fill-rule="evenodd" clip-rule="evenodd" d="M7.36412 15.6595C7.31262 15.5445 7.24825 15.4294 7.19675 15.3783L0 17.4364V17.4875C0 17.7176 0.0514973 17.9477 0.115869 18.1778V18.229L7.36412 15.6595Z" fill="#14213D"/>
<path id="Vector_28" fill-rule="evenodd" clip-rule="evenodd" d="M11.2263 11.8884C11.2263 11.8884 11.3937 12.0035 11.4581 12.0546L12.0374 11.1981C11.9215 11.147 11.87 11.0831 11.7542 10.968L11.2392 11.8884H11.2263Z" fill="#14213D"/>
<path id="Vector_29" fill-rule="evenodd" clip-rule="evenodd" d="M10.1322 11.3771L10.4798 10.2394C10.3639 10.1883 10.2481 10.1244 10.1966 10.0732H10.1451L9.91333 11.2749C9.91333 11.2749 10.0807 11.326 10.1451 11.3899" fill="#14213D"/>
<path id="Vector_30" fill-rule="evenodd" clip-rule="evenodd" d="M10.763 11.6583L11.2265 10.6868C11.1106 10.6357 10.9948 10.5718 10.9433 10.5206H10.8918L10.4927 11.6072C10.66 11.5561 10.7244 11.6072 10.7759 11.6583H10.763Z" fill="#14213D"/>
<path id="Vector_31" fill-rule="evenodd" clip-rule="evenodd" d="M11.8572 12.3486C11.8572 12.3486 12.0245 12.4637 12.0889 12.5148L12.7198 11.7734C12.6039 11.7222 12.5524 11.6072 12.4365 11.5433L11.8572 12.3486Z" fill="#14213D"/>
<path id="Vector_32" fill-rule="evenodd" clip-rule="evenodd" d="M8.80592 11.0831H9.03766L8.8703 9.42126C8.75443 9.37013 8.63856 9.30621 8.52269 9.30621H8.47119L8.8188 11.0831H8.80592Z" fill="#14213D"/>
<path id="Vector_33" fill-rule="evenodd" clip-rule="evenodd" d="M8.29111 11.0831H8.52285L7.89201 9.14001C7.77614 9.08888 7.60877 9.08888 7.4929 9.02496H7.44141L8.30399 11.0831H8.29111Z" fill="#14213D"/>
<path id="Vector_34" fill-rule="evenodd" clip-rule="evenodd" d="M9.55277 11.1981L9.66864 9.83031C9.55277 9.71526 9.4369 9.71526 9.32103 9.66412H9.26953V11.147C9.3854 11.147 9.4369 11.147 9.55277 11.1981Z" fill="#14213D"/>
<path id="Vector_35" fill-rule="evenodd" clip-rule="evenodd" d="M7.82762 11.1981C7.82762 11.1981 7.94349 11.147 8.05936 11.147H8.11085L6.66893 8.92272C6.55306 8.92272 6.38569 8.87158 6.26982 8.87158H6.03809L7.82762 11.2109V11.1981Z" fill="#14213D"/>
<path id="Vector_36" fill-rule="evenodd" clip-rule="evenodd" d="M9.10223 17.7176C9.10223 17.7176 8.93486 17.5514 8.87049 17.4875L8.12378 18.1778C8.23965 18.2289 8.29115 18.344 8.40702 18.459L9.10223 17.7176Z" fill="#14213D"/>
<path id="Vector_37" fill-rule="evenodd" clip-rule="evenodd" d="M14.9728 16.516C15.0243 16.631 15.0243 16.7461 15.0243 16.8611L21.3585 16.9123C21.41 16.6822 21.4744 16.4521 21.5259 16.222V16.1708L14.96 16.516H14.9728Z" fill="#14213D"/>
<path id="Vector_38" fill-rule="evenodd" clip-rule="evenodd" d="M15.0888 17.3724V17.6537L20.7278 18.6252C20.8436 18.3951 20.9595 18.165 21.011 17.9988V17.9477L15.0759 17.3724H15.0888Z" fill="#14213D"/>
<path id="Vector_39" fill-rule="evenodd" clip-rule="evenodd" d="M14.9728 18.1139C14.9213 18.2289 14.9213 18.344 14.8569 18.3951L19.6333 20.172C19.8007 20.0058 19.9165 19.8268 20.0968 19.5968V19.5456L14.9728 18.1139Z" fill="#14213D"/>
<path id="Vector_40" fill-rule="evenodd" clip-rule="evenodd" d="M14.6766 18.7403C14.6766 18.7403 14.5608 18.8553 14.5093 18.9704L18.2557 21.2586C18.4874 21.1435 18.6548 21.0285 18.8351 20.9135H18.8866L14.6895 18.7403H14.6766Z" fill="#14213D"/>
<path id="Vector_41" fill-rule="evenodd" clip-rule="evenodd" d="M13.6982 14.1127C13.7497 14.2278 13.8656 14.3428 13.93 14.4579L21.2426 11.2621C21.1911 11.032 21.0752 10.8019 21.0109 10.5718L13.6982 14.1127Z" fill="#14213D"/>
<path id="Vector_42" fill-rule="evenodd" clip-rule="evenodd" d="M14.2777 19.1494C14.2777 19.1494 14.1618 19.2005 14.1103 19.2644H14.0588L16.5951 21.7188C16.711 21.7188 16.7624 21.7188 16.8783 21.6677C16.9942 21.6677 17.1101 21.6165 17.2259 21.6165H17.2774L14.2777 19.1621V19.1494Z" fill="#14213D"/>
<path id="Vector_43" fill-rule="evenodd" clip-rule="evenodd" d="M14.6768 15.6595C14.7283 15.7745 14.7926 15.8896 14.7926 16.0046L21.6418 15.0331V14.2917L14.6768 15.6595Z" fill="#14213D"/>
<path id="Vector_44" fill-rule="evenodd" clip-rule="evenodd" d="M14.2776 14.9181C14.3291 15.0331 14.3935 15.1482 14.445 15.1993L21.6417 13.1412V13.0901C21.6417 12.86 21.5902 12.6299 21.5258 12.3998V12.3486L14.2776 14.9181Z" fill="#14213D"/>
<path id="Vector_45" fill-rule="evenodd" clip-rule="evenodd" d="M10.4153 18.6891C10.4153 18.6891 10.248 18.5741 10.1836 18.5229L9.60425 19.3794C9.72012 19.4306 9.77161 19.4945 9.88748 19.6095L10.4025 18.6891H10.4153Z" fill="#14213D"/>
<path id="Vector_46" fill-rule="evenodd" clip-rule="evenodd" d="M11.5097 19.2004L11.1621 20.3381C11.278 20.3893 11.3938 20.4532 11.4453 20.5043H11.4968L11.7286 19.2516C11.6127 19.2516 11.5612 19.2516 11.4968 19.2004" fill="#14213D"/>
<path id="Vector_47" fill-rule="evenodd" clip-rule="evenodd" d="M10.8272 18.9193L10.3638 19.8908C10.4796 19.9419 10.5955 20.0058 10.647 20.057H10.6985L11.0976 18.9704C10.9817 19.0215 10.9302 18.9704 10.8144 18.9193H10.8272Z" fill="#14213D"/>
<path id="Vector_48" fill-rule="evenodd" clip-rule="evenodd" d="M9.73294 18.2928C9.73294 18.2928 9.56558 18.1778 9.5012 18.1266L8.87036 18.8681C8.98623 18.9192 9.03773 19.0343 9.1536 19.0982L9.73294 18.2928Z" fill="#14213D"/>
<path id="Vector_49" fill-rule="evenodd" clip-rule="evenodd" d="M12.8357 19.4945H12.604L12.7714 21.1563C12.8872 21.2075 13.0031 21.2714 13.119 21.2714H13.1705L12.8229 19.4945H12.8357Z" fill="#14213D"/>
<path id="Vector_50" fill-rule="evenodd" clip-rule="evenodd" d="M13.2991 19.4945H13.0674L13.7626 21.4376C13.8785 21.4887 14.0458 21.4887 14.1617 21.5526H14.2132L13.2862 19.4945H13.2991Z" fill="#14213D"/>
<path id="Vector_51" fill-rule="evenodd" clip-rule="evenodd" d="M12.089 19.4305L11.9731 20.7984C12.089 20.8495 12.2049 20.9134 12.3208 20.9134H12.3722V19.4305H12.089Z" fill="#14213D"/>
<path id="Vector_52" fill-rule="evenodd" clip-rule="evenodd" d="M13.8142 19.4306C13.8142 19.4306 13.6984 19.4817 13.5825 19.4817H13.531L14.9729 21.706C15.0888 21.706 15.2562 21.7571 15.372 21.7571H15.6038L13.8142 19.4178V19.4306Z" fill="#14213D"/>
<path id="Vector_53" fill-rule="evenodd" clip-rule="evenodd" d="M12.9002 14.0616L13.3637 13.7675L20.3802 9.42124L20.496 9.31897L20.8951 8.56476H20.0969L13.1834 13.4863L8.52291 16.631L1.14591 21.2074L0.695312 22H1.55789L8.80614 16.746L12.9002 14.0616Z" fill="#14213D"/>
</g>
<defs>
<clipPath id="clip0_91_317">
<rect width="92" height="22" fill="white"/>
</clipPath>
</defs>
</svg>
