<svg width="60" height="60" viewBox="0 0 60 60" fill="none" xmlns="http://www.w3.org/2000/svg">
<path d="M55 23.125H5C3.975 23.125 3.125 22.275 3.125 21.25C3.125 20.225 3.975 19.375 5 19.375H55C56.025 19.375 56.875 20.225 56.875 21.25C56.875 22.275 56.025 23.125 55 23.125Z" fill="#7065F0"/>
<path d="M45.25 30.75H35.25C34.225 30.75 33.375 29.9 33.375 28.875C33.375 27.85 34.225 27 35.25 27H45.25C46.275 27 47.125 27.85 47.125 28.875C47.125 29.9 46.275 30.75 45.25 30.75Z" fill="#7065F0"/>
<path d="M45.25 38.625H35.25C34.225 38.625 33.375 37.775 33.375 36.75C33.375 35.725 34.225 34.875 35.25 34.875H45.25C46.275 34.875 47.125 35.725 47.125 36.75C47.125 37.775 46.275 38.625 45.25 38.625Z" fill="#7065F0"/>
<path d="M43.9 53.125H16.1C6.15 53.125 3.125 50.125 3.125 40.275V19.725C3.125 9.875 6.15 6.875 16.1 6.875H43.875C53.825 6.875 56.85 9.875 56.85 19.725V40.25C56.875 50.125 53.85 53.125 43.9 53.125ZM16.1 10.625C8.25 10.625 6.875 11.975 6.875 19.725V40.25C6.875 48 8.25 49.35 16.1 49.35H43.875C51.725 49.35 53.1 48 53.1 40.25V19.725C53.1 11.975 51.725 10.625 43.875 10.625H16.1Z" fill="#7065F0"/>
</svg>
