<svg width="702" height="148" viewBox="0 0 702 148" fill="none" xmlns="http://www.w3.org/2000/svg">
<g clip-path="url(#clip0_5_547)">
<mask id="mask0_5_547" style="mask-type:luminance" maskUnits="userSpaceOnUse" x="0" y="0" width="702" height="148">
<path d="M702 0H0V148H702V0Z" fill="white"/>
</mask>
<g mask="url(#mask0_5_547)">
<path d="M152.652 30.3748H8.80095C5.93312 30.4834 3.52411 28.0216 3.42578 24.8538C3.42578 24.8176 3.42578 24.7814 3.42578 24.7632V5.62968C3.62243 2.49808 5.96586 0.0543468 8.80095 4.16965e-05H152.652C155.52 -0.108569 157.929 2.35327 158.027 5.52108C158.027 5.55728 158.027 5.59348 158.027 5.6116V24.727C157.978 27.8948 155.602 30.411 152.734 30.3567C152.701 30.3567 152.668 30.3567 152.652 30.3567V30.3748Z" fill="#004993"/>
<path d="M79.2345 113.39H79.0051V49.3452L0 91.8664V140.252C0.0819385 144.579 3.31032 148.036 7.22696 148H8.32495C9.71792 148 11.0781 147.602 12.258 146.823L79.0217 113.462" fill="#004993"/>
<path opacity="0.5" d="M155.617 145.882L155.83 145.647C157.19 144.253 157.977 142.298 158.01 140.234V91.8484L78.9883 49.3452V113.39H79.2176L107.191 127.454L145.768 146.588L145.981 146.823L147.292 147.529C147.997 147.819 148.734 147.982 149.472 148H150.341C152.045 147.964 153.716 147.384 155.142 146.353C155.355 146.117 155.355 145.882 155.585 145.882H155.617Z" fill="#004993"/>
<path d="M260.27 66.6328H242.67V98.5824C242.67 105.262 246.045 107.506 251.47 107.506C253.076 107.687 254.698 107.434 256.206 106.764V116.43C254.223 117.082 252.158 117.336 250.11 117.173C239.966 117.173 232.525 111.235 232.525 99.3424V65.8904H221.021V56.9664H231.837V45.0732L242.653 39.1179V56.9664H262.269L260.286 66.6328H260.27Z" fill="#004993"/>
<path d="M299.5 68.8592C298.828 68.8592 296.796 68.1168 295.436 68.1168C287.996 68.1168 280.556 71.8276 280.556 85.9652V116.43H269.74V56.9664H281.245V68.8592C283.276 59.9348 289.357 56.224 296.796 56.224C298.14 56.224 300.861 56.9664 302.204 56.9664L299.484 68.8592H299.5Z" fill="#004993"/>
<path d="M348.223 116.412V108.973C345.519 114.186 340.782 117.897 331.311 117.897C319.134 117.897 310.334 109.733 310.334 96.3376V56.948H321.15V95.5956C321.15 101.551 324.526 108.23 333.998 108.23C342.798 108.23 346.846 101.551 346.846 95.5956V56.948H357.662V116.412H348.223Z" fill="#004993"/>
<path d="M386.092 117.155C380.833 117.48 375.606 115.924 371.214 112.702L369.182 100.809C373.967 105.099 379.932 107.47 386.092 107.506C390.83 107.506 394.207 104.538 394.207 100.809C394.207 96.3555 391.502 94.1291 386.765 92.6267C375.948 88.1555 369.854 82.9603 369.854 73.2939C369.854 63.6275 377.293 56.2059 388.11 56.2059C393.042 56.1699 397.909 57.4551 402.319 59.9167L400.287 70.3251C396.6 67.8995 392.403 66.6143 388.11 66.6143C383.372 66.6143 380.671 69.5831 380.671 73.3119C380.671 77.0231 383.372 78.5255 388.11 80.7519C398.927 85.2051 405.02 90.4183 405.02 100.827C405.693 109.751 398.941 117.173 386.077 117.173L386.092 117.155Z" fill="#004993"/>
<path d="M449.662 66.6328H432.079V98.5824C432.079 105.262 435.453 107.506 440.863 107.506C442.469 107.687 444.105 107.434 445.597 106.764V116.43C443.616 117.082 441.55 117.336 439.503 117.173C429.359 117.173 421.917 111.235 421.917 99.3424V65.8904H411.104V56.9664H421.917V45.0732L432.733 39.1179V56.9664H452.349L449.662 66.6328Z" fill="#004993"/>
<path d="M523.423 34.6648C520.916 33.2348 518.13 32.4745 515.311 32.4383C506.509 32.4383 502.462 38.3757 502.462 48.7843V56.2239H520.045L518.013 66.6327H502.462V116.43H491.645V65.9083H482.174V56.9843H491.645V48.8023C491.645 31.7142 500.448 22.7901 514.653 22.7901C518.358 22.6634 522.044 23.4236 525.47 25.0166L523.437 34.6829L523.423 34.6648Z" fill="#004993"/>
<path d="M566.048 116.412V108.973C563.343 114.186 558.609 117.897 549.137 117.897C536.961 117.897 528.158 109.733 528.158 96.3376V56.948H538.975V95.5956C538.975 101.551 542.367 108.23 551.824 108.23C560.608 108.23 564.673 101.551 564.673 95.5956V56.948H575.486V116.412H566.048Z" fill="#004993"/>
<path d="M626.257 116.43V77.7831C626.257 71.8279 622.88 65.1483 613.408 65.1483C604.624 65.1483 600.559 71.8279 600.559 77.7831V116.43H589.746V56.9663H599.218V64.4059C601.919 59.1927 606.657 55.4819 616.128 55.4819C628.305 55.4819 637.104 63.6639 637.104 77.0411V116.43H626.272H626.257Z" fill="#004993"/>
<path d="M691.201 116.43V109.751C687.298 115.2 681.252 118.259 674.96 117.933C662.783 117.933 648.574 107.524 648.574 86.7255C647.934 70.1987 659.556 56.2239 674.519 55.5179C675.107 55.4819 675.698 55.4819 676.305 55.4999C681.63 55.4999 686.824 57.3099 691.183 60.7131V22.772H701.999V116.412H691.201V116.43ZM690.529 71.8459C687.055 67.7187 682.09 65.5283 676.992 65.9083C667.521 65.9083 659.391 74.0903 659.391 86.7255C659.391 99.3787 667.502 107.542 676.992 107.542C682.285 107.47 687.269 104.737 690.529 100.103V71.8279V71.8459Z" fill="#004993"/>
</g>
</g>
<defs>
<clipPath id="clip0_5_547">
<rect width="702" height="148" fill="white"/>
</clipPath>
</defs>
</svg>
