<svg width="88" height="92" viewBox="0 0 88 92" fill="none" xmlns="http://www.w3.org/2000/svg">
<path d="M84.8686 20.7175H5.01508C3.42309 20.7808 2.08583 19.344 2.03125 17.495C2.03125 17.4739 2.03125 17.4527 2.03125 17.4422V6.27444C2.14041 4.44664 3.44129 3.02029 5.01508 2.98859H84.8686C86.4607 2.9252 87.7979 4.36212 87.8525 6.21108C87.8525 6.2322 87.8525 6.25332 87.8525 6.26388V17.421C87.825 19.27 86.5061 20.7386 84.9141 20.7069C84.8961 20.7069 84.8778 20.7069 84.8686 20.7069V20.7175Z" fill="white"/>
<path d="M44.1149 69.1712H43.9877V31.7905L0.130859 56.6088V84.8504C0.176345 87.3756 1.96846 89.3936 4.14265 89.3724H4.75213C5.52539 89.3724 6.28043 89.14 6.93544 88.6856L43.9965 69.2136" fill="white"/>
<path opacity="0.5" d="M86.5162 88.136L86.6347 87.9988C87.3896 87.1852 87.8263 86.044 87.8443 84.8396V56.598L43.9785 31.7903V69.1708H44.1061L59.6345 77.3804L81.0489 88.548L81.1673 88.6852L81.8951 89.0976C82.286 89.2664 82.6956 89.3616 83.1048 89.372H83.5869C84.5333 89.3508 85.461 89.0128 86.2526 88.4108C86.3707 88.2732 86.3707 88.136 86.4983 88.136H86.5162Z" fill="#F5F3ED"/>
</svg>
