<svg width="722" height="317" viewBox="0 0 722 317" fill="none" xmlns="http://www.w3.org/2000/svg">
<path d="M158.5 317C246.037 317 317 246.037 317 158.5C317 70.9629 246.037 0 158.5 0C70.9629 0 0 70.9629 0 158.5C0 246.037 70.9629 317 158.5 317Z" fill="#E82323"/>
<path d="M430.25 132.3L408.155 147.8C403.987 142.3 399.898 138.4 395.809 136.3C391.72 134.2 387.002 133.1 381.498 133.1C371.59 133.1 363.491 136.9 357.358 144.4C351.224 151.9 348.158 161.6 348.158 173.4C348.158 185.2 351.146 194.2 357.043 201.5C362.941 208.8 370.725 212.4 380.319 212.4C389.912 212.4 401.471 207.2 408.076 196.9L429.071 215.1C417.748 233.9 401.707 243.3 380.948 243.3C360.188 243.3 347.764 236.3 337.149 222.3C326.612 208.3 321.344 191.8 321.344 173C321.344 154.2 323.939 148 329.05 137C334.161 126 341.317 117.4 350.517 111.1C359.717 104.8 369.939 101.7 381.341 101.7C392.743 101.7 401.314 104.4 409.649 109.7C417.984 115 424.903 122.6 430.172 132.4L430.25 132.3Z" fill="#E82323"/>
<path d="M437.249 105H460.052V122C462.49 115.3 465.792 110.2 469.881 106.8C473.97 103.3 478.452 101.6 483.327 101.6C488.203 101.6 490.404 102.8 494.1 105.1L485.844 134.2C482.698 132.2 480.182 131.2 478.138 131.2C474.049 131.2 470.589 134.4 467.758 140.9C464.927 147.3 463.512 160 463.512 178.8V185.4C463.591 185.4 463.591 239.9 463.591 239.9H437.17V105.2L437.249 105Z" fill="#E82323"/>
<path d="M605.209 182.2H519.814C521.072 191.8 524.374 199.4 529.721 205C535.068 210.7 541.909 213.5 550.244 213.5C558.58 213.5 568.723 209.1 575.879 200.2L598.289 213.6C592.706 223.7 586.023 231.1 578.238 235.9C570.453 240.7 561.175 243.1 550.48 243.1C533.889 243.1 520.364 236.4 509.906 223.1C499.448 209.8 494.258 193.1 494.258 173C494.258 152.9 499.448 135.4 509.906 121.8C520.285 108.2 533.417 101.4 549.065 101.4C564.713 101.4 579.339 108.2 589.797 121.8C600.255 135.4 605.445 153.3 605.445 175.6V182L605.209 182.2ZM578.631 155.6C576.901 148.1 573.441 142 568.251 137.3C563.062 132.6 557.086 130.2 550.244 130.2C543.403 130.2 536.326 132.8 530.744 138.1C527.205 141.4 523.981 147.2 520.993 155.6H578.631Z" fill="#E82323"/>
<path d="M694.693 53H721.271V239.7H694.693V225.5C689.503 231.8 684.313 236.3 679.045 239.1C673.855 241.9 668.193 243.2 662.06 243.2C648.378 243.2 636.583 236.5 626.597 223C616.61 209.5 611.656 192.7 611.656 172.7C611.656 152.7 616.453 134.9 626.125 121.6C635.797 108.3 647.513 101.7 661.352 101.7C675.192 101.7 673.698 103.2 679.281 106.3C684.864 109.4 689.975 113.9 694.771 120V53.1L694.693 53ZM666.699 132.8C658.522 132.8 651.68 136.5 646.255 143.9C640.829 151.3 638.077 160.8 638.077 172.3C638.077 183.8 640.829 193.5 646.333 201C651.838 208.5 658.679 212.3 666.778 212.3C674.877 212.3 682.033 208.6 687.537 201.2C693.041 193.8 695.794 184.1 695.794 172.2C695.794 160.3 693.041 151 687.537 143.7C682.033 136.4 675.113 132.8 666.699 132.8Z" fill="#E82323"/>
<path d="M218.114 148L275.752 84.1C276.46 83.4 276.067 81.9 275.123 81.9L224.719 82.3L182.493 120.6L94.1097 202.1L66.9028 154.5L83.8874 139L98.9849 165.5L182.415 88.8V53H148.052V101.2C136.178 86.9 120.137 78.1 102.445 78.1C65.7233 78.1 36 115.9 36 162.6C36 209.3 65.7233 247.1 102.445 247.1C139.167 247.1 136.178 238.3 148.052 224V247.6H182.415V179.1L192.401 170.4L240.603 247.5H288.962L218.035 147.8L218.114 148Z" fill="white"/>
</svg>
