<svg width="663" height="334" viewBox="0 0 663 334" fill="none" xmlns="http://www.w3.org/2000/svg">
<path d="M131.375 333.8C59.1901 333.8 0.451172 259.1 0.451172 167.3C0.451172 75.5 59.1901 0.800049 131.375 0.800049C203.56 0.800049 262.299 75.5 262.299 167.3C262.299 259.1 203.56 333.8 131.375 333.8ZM131.375 16.8C66.1098 16.8 13.0325 84.3 13.0325 167.3C13.0325 250.3 66.1098 317.8 131.375 317.8C196.641 317.8 249.718 250.3 249.718 167.3C249.718 84.3 196.641 16.8 131.375 16.8Z" fill="white"/>
<path d="M371.915 144.3L349.819 159.8C345.651 154.3 341.562 150.4 337.473 148.3C333.384 146.2 328.666 145.1 323.162 145.1C313.254 145.1 305.155 148.9 299.022 156.4C292.888 163.9 289.822 173.6 289.822 185.4C289.822 197.2 292.81 206.2 298.707 213.5C304.605 220.8 312.389 224.4 321.983 224.4C331.576 224.4 343.135 219.2 349.74 208.9L370.735 227.1C359.412 245.9 343.371 255.3 322.612 255.3C301.853 255.3 289.429 248.3 278.813 234.3C268.276 220.3 263.008 203.8 263.008 185C263.008 166.2 265.603 160 270.714 149C275.825 138 282.981 129.4 292.181 123.1C301.381 116.8 311.603 113.7 323.005 113.7C334.407 113.7 342.978 116.4 351.313 121.7C359.648 127 366.568 134.6 371.836 144.4L371.915 144.3Z" fill="white"/>
<path d="M378.993 117H401.796V134C404.234 127.3 407.536 122.2 411.625 118.8C415.714 115.3 420.196 113.6 425.072 113.6C429.947 113.6 432.149 114.8 435.844 117.1L427.588 146.2C424.443 144.2 421.926 143.2 419.882 143.2C415.793 143.2 412.333 146.4 409.502 152.9C406.672 159.3 405.256 172 405.256 190.8V197.4C405.335 197.4 405.335 251.9 405.335 251.9H378.914V117.2L378.993 117Z" fill="white"/>
<path d="M546.951 194.2H461.556C462.814 203.8 466.116 211.4 471.463 217C476.811 222.7 483.652 225.5 491.987 225.5C500.322 225.5 510.465 221.1 517.621 212.2L540.031 225.6C534.449 235.7 527.765 243.1 519.98 247.9C512.195 252.7 502.917 255.1 492.223 255.1C475.631 255.1 462.106 248.4 451.648 235.1C441.19 221.8 436 205.1 436 185C436 164.9 441.19 147.4 451.648 133.8C462.028 120.2 475.159 113.4 490.807 113.4C506.455 113.4 521.081 120.2 531.539 133.8C541.997 147.4 547.187 165.3 547.187 187.6V194L546.951 194.2ZM520.373 167.6C518.643 160.1 515.183 154 509.994 149.3C504.804 144.6 498.828 142.2 491.987 142.2C485.146 142.2 478.069 144.8 472.486 150.1C468.947 153.4 465.723 159.2 462.735 167.6H520.373Z" fill="white"/>
<path d="M636.357 65H662.935V251.7H636.357V237.5C631.167 243.8 625.977 248.3 620.709 251.1C615.519 253.9 609.857 255.2 603.724 255.2C590.042 255.2 578.247 248.5 568.261 235C558.274 221.5 553.32 204.7 553.32 184.7C553.32 164.7 558.117 146.9 567.789 133.6C577.461 120.3 589.177 113.7 603.016 113.7C616.856 113.7 615.362 115.2 620.945 118.3C626.528 121.4 631.639 125.9 636.435 132V65.1L636.357 65ZM608.442 144.8C600.264 144.8 593.423 148.5 587.997 155.9C582.572 163.3 579.82 172.8 579.82 184.3C579.82 195.8 582.572 205.5 588.076 213C593.58 220.5 600.421 224.3 608.521 224.3C616.62 224.3 623.775 220.6 629.28 213.2C634.784 205.8 637.536 196.1 637.536 184.2C637.536 172.3 634.784 163 629.28 155.7C623.775 148.4 616.856 144.8 608.442 144.8Z" fill="white"/>
<path d="M214.884 160.1L272.522 96.2001C273.229 95.5001 272.836 94.0001 271.893 94.0001L221.489 94.4001L179.263 132.7L90.8793 214.2L63.6723 166.6L80.6571 151.1L95.7546 177.6L179.184 100.9V65.1001H144.822V113.3C132.948 99.0001 116.907 90.2001 99.2144 90.2001C62.4928 90.2001 32.7695 128 32.7695 174.7C32.7695 221.4 62.4928 259.2 99.2144 259.2C135.936 259.2 132.948 250.4 144.822 236.1V259.7H179.184V191.2L189.171 182.5L237.373 259.6H285.732L214.805 159.9L214.884 160.1Z" fill="white"/>
</svg>
