<svg width="58" height="58" viewBox="0 0 58 58" fill="none" xmlns="http://www.w3.org/2000/svg">
<rect width="58" height="58" fill="#1E1E1E"/>
<rect width="595" height="842" transform="translate(-498 -743)" fill="white"/>
<g clip-path="url(#clip0_0_1)">
<path d="M20.6899 0H18.3899V2.3H20.6899V0Z" fill="#1A1A1A"/>
<path d="M25.29 0H22.99V2.3H25.29V0Z" fill="#1A1A1A"/>
<path d="M34.4799 0H32.1799V2.3H34.4799V0Z" fill="#1A1A1A"/>
<path d="M39.08 0H36.78V2.3H39.08V0Z" fill="#1A1A1A"/>
<path d="M20.6899 2.29999H18.3899V4.59999H20.6899V2.29999Z" fill="#1A1A1A"/>
<path d="M22.9899 2.29999H20.6899V4.59999H22.9899V2.29999Z" fill="#1A1A1A"/>
<path d="M29.8801 2.29999H27.5801V4.59999H29.8801V2.29999Z" fill="#1A1A1A"/>
<path d="M20.6899 4.59998H18.3899V6.89998H20.6899V4.59998Z" fill="#1A1A1A"/>
<path d="M22.9899 4.59998H20.6899V6.89998H22.9899V4.59998Z" fill="#1A1A1A"/>
<path d="M25.29 4.59998H22.99V6.89998H25.29V4.59998Z" fill="#1A1A1A"/>
<path d="M29.8801 4.59998H27.5801V6.89998H29.8801V4.59998Z" fill="#1A1A1A"/>
<path d="M32.1799 4.59998H29.8799V6.89998H32.1799V4.59998Z" fill="#1A1A1A"/>
<path d="M36.78 4.59998H34.48V6.89998H36.78V4.59998Z" fill="#1A1A1A"/>
<path d="M22.9899 6.90002H20.6899V9.20002H22.9899V6.90002Z" fill="#1A1A1A"/>
<path d="M25.29 6.90002H22.99V9.20002H25.29V6.90002Z" fill="#1A1A1A"/>
<path d="M32.1799 6.90002H29.8799V9.20002H32.1799V6.90002Z" fill="#1A1A1A"/>
<path d="M39.08 6.90002H36.78V9.20002H39.08V6.90002Z" fill="#1A1A1A"/>
<path d="M20.6899 9.19H18.3899V11.49H20.6899V9.19Z" fill="#1A1A1A"/>
<path d="M22.9899 9.19H20.6899V11.49H22.9899V9.19Z" fill="#1A1A1A"/>
<path d="M27.58 9.19H25.28V11.49H27.58V9.19Z" fill="#1A1A1A"/>
<path d="M34.4799 9.19H32.1799V11.49H34.4799V9.19Z" fill="#1A1A1A"/>
<path d="M39.08 9.19H36.78V11.49H39.08V9.19Z" fill="#1A1A1A"/>
<path d="M27.58 11.49H25.28V13.79H27.58V11.49Z" fill="#1A1A1A"/>
<path d="M32.1799 11.49H29.8799V13.79H32.1799V11.49Z" fill="#1A1A1A"/>
<path d="M39.08 11.49H36.78V13.79H39.08V11.49Z" fill="#1A1A1A"/>
<path d="M20.6899 13.79H18.3899V16.09H20.6899V13.79Z" fill="#1A1A1A"/>
<path d="M25.29 13.79H22.99V16.09H25.29V13.79Z" fill="#1A1A1A"/>
<path d="M29.8801 13.79H27.5801V16.09H29.8801V13.79Z" fill="#1A1A1A"/>
<path d="M34.4799 13.79H32.1799V16.09H34.4799V13.79Z" fill="#1A1A1A"/>
<path d="M39.08 13.79H36.78V16.09H39.08V13.79Z" fill="#1A1A1A"/>
<path d="M22.9899 16.09H20.6899V18.39H22.9899V16.09Z" fill="#1A1A1A"/>
<path d="M25.29 16.09H22.99V18.39H25.29V16.09Z" fill="#1A1A1A"/>
<path d="M32.1799 16.09H29.8799V18.39H32.1799V16.09Z" fill="#1A1A1A"/>
<path d="M36.78 16.09H34.48V18.39H36.78V16.09Z" fill="#1A1A1A"/>
<path d="M39.08 16.09H36.78V18.39H39.08V16.09Z" fill="#1A1A1A"/>
<path d="M2.3 18.39H0V20.69H2.3V18.39Z" fill="#1A1A1A"/>
<path d="M9.1999 18.39H6.8999V20.69H9.1999V18.39Z" fill="#1A1A1A"/>
<path d="M11.4899 18.39H9.18994V20.69H11.4899V18.39Z" fill="#1A1A1A"/>
<path d="M13.79 18.39H11.49V20.69H13.79V18.39Z" fill="#1A1A1A"/>
<path d="M16.09 18.39H13.79V20.69H16.09V18.39Z" fill="#1A1A1A"/>
<path d="M18.3901 18.39H16.0901V20.69H18.3901V18.39Z" fill="#1A1A1A"/>
<path d="M20.6899 18.39H18.3899V20.69H20.6899V18.39Z" fill="#1A1A1A"/>
<path d="M22.9899 18.39H20.6899V20.69H22.9899V18.39Z" fill="#1A1A1A"/>
<path d="M27.58 18.39H25.28V20.69H27.58V18.39Z" fill="#1A1A1A"/>
<path d="M34.4799 18.39H32.1799V20.69H34.4799V18.39Z" fill="#1A1A1A"/>
<path d="M39.08 18.39H36.78V20.69H39.08V18.39Z" fill="#1A1A1A"/>
<path d="M41.3701 18.39H39.0701V20.69H41.3701V18.39Z" fill="#1A1A1A"/>
<path d="M48.27 18.39H45.97V20.69H48.27V18.39Z" fill="#1A1A1A"/>
<path d="M52.8701 18.39H50.5701V20.69H52.8701V18.39Z" fill="#1A1A1A"/>
<path d="M55.1701 18.39H52.8701V20.69H55.1701V18.39Z" fill="#1A1A1A"/>
<path d="M57.4599 18.39H55.1599V20.69H57.4599V18.39Z" fill="#1A1A1A"/>
<path d="M4.60005 20.69H2.30005V22.99H4.60005V20.69Z" fill="#1A1A1A"/>
<path d="M6.9001 20.69H4.6001V22.99H6.9001V20.69Z" fill="#1A1A1A"/>
<path d="M9.1999 20.69H6.8999V22.99H9.1999V20.69Z" fill="#1A1A1A"/>
<path d="M11.4899 20.69H9.18994V22.99H11.4899V20.69Z" fill="#1A1A1A"/>
<path d="M13.79 20.69H11.49V22.99H13.79V20.69Z" fill="#1A1A1A"/>
<path d="M20.6899 20.69H18.3899V22.99H20.6899V20.69Z" fill="#1A1A1A"/>
<path d="M22.9899 20.69H20.6899V22.99H22.9899V20.69Z" fill="#1A1A1A"/>
<path d="M25.29 20.69H22.99V22.99H25.29V20.69Z" fill="#1A1A1A"/>
<path d="M32.1799 20.69H29.8799V22.99H32.1799V20.69Z" fill="#1A1A1A"/>
<path d="M34.4799 20.69H32.1799V22.99H34.4799V20.69Z" fill="#1A1A1A"/>
<path d="M36.78 20.69H34.48V22.99H36.78V20.69Z" fill="#1A1A1A"/>
<path d="M41.3701 20.69H39.0701V22.99H41.3701V20.69Z" fill="#1A1A1A"/>
<path d="M45.9699 20.69H43.6699V22.99H45.9699V20.69Z" fill="#1A1A1A"/>
<path d="M48.27 20.69H45.97V22.99H48.27V20.69Z" fill="#1A1A1A"/>
<path d="M50.57 20.69H48.27V22.99H50.57V20.69Z" fill="#1A1A1A"/>
<path d="M52.8701 20.69H50.5701V22.99H52.8701V20.69Z" fill="#1A1A1A"/>
<path d="M55.1701 20.69H52.8701V22.99H55.1701V20.69Z" fill="#1A1A1A"/>
<path d="M2.3 22.98H0V25.28H2.3V22.98Z" fill="#1A1A1A"/>
<path d="M4.60005 22.98H2.30005V25.28H4.60005V22.98Z" fill="#1A1A1A"/>
<path d="M11.4899 22.98H9.18994V25.28H11.4899V22.98Z" fill="#1A1A1A"/>
<path d="M13.79 22.98H11.49V25.28H13.79V22.98Z" fill="#1A1A1A"/>
<path d="M16.09 22.98H13.79V25.28H16.09V22.98Z" fill="#1A1A1A"/>
<path d="M18.3901 22.98H16.0901V25.28H18.3901V22.98Z" fill="#1A1A1A"/>
<path d="M27.58 22.98H25.28V25.28H27.58V22.98Z" fill="#1A1A1A"/>
<path d="M29.8801 22.98H27.5801V25.28H29.8801V22.98Z" fill="#1A1A1A"/>
<path d="M32.1799 22.98H29.8799V25.28H32.1799V22.98Z" fill="#1A1A1A"/>
<path d="M36.78 22.98H34.48V25.28H36.78V22.98Z" fill="#1A1A1A"/>
<path d="M39.08 22.98H36.78V25.28H39.08V22.98Z" fill="#1A1A1A"/>
<path d="M41.3701 22.98H39.0701V25.28H41.3701V22.98Z" fill="#1A1A1A"/>
<path d="M43.6701 22.98H41.3701V25.28H43.6701V22.98Z" fill="#1A1A1A"/>
<path d="M48.27 22.98H45.97V25.28H48.27V22.98Z" fill="#1A1A1A"/>
<path d="M50.57 22.98H48.27V25.28H50.57V22.98Z" fill="#1A1A1A"/>
<path d="M57.4599 22.98H55.1599V25.28H57.4599V22.98Z" fill="#1A1A1A"/>
<path d="M6.9001 25.28H4.6001V27.58H6.9001V25.28Z" fill="#1A1A1A"/>
<path d="M13.79 25.28H11.49V27.58H13.79V25.28Z" fill="#1A1A1A"/>
<path d="M18.3901 25.28H16.0901V27.58H18.3901V25.28Z" fill="#1A1A1A"/>
<path d="M22.9899 25.28H20.6899V27.58H22.9899V25.28Z" fill="#1A1A1A"/>
<path d="M34.4799 25.28H32.1799V27.58H34.4799V25.28Z" fill="#1A1A1A"/>
<path d="M41.3701 25.28H39.0701V27.58H41.3701V25.28Z" fill="#1A1A1A"/>
<path d="M45.9699 25.28H43.6699V27.58H45.9699V25.28Z" fill="#1A1A1A"/>
<path d="M50.57 25.28H48.27V27.58H50.57V25.28Z" fill="#1A1A1A"/>
<path d="M52.8701 25.28H50.5701V27.58H52.8701V25.28Z" fill="#1A1A1A"/>
<path d="M55.1701 25.28H52.8701V27.58H55.1701V25.28Z" fill="#1A1A1A"/>
<path d="M57.4599 25.28H55.1599V27.58H57.4599V25.28Z" fill="#1A1A1A"/>
<path d="M2.3 27.58H0V29.88H2.3V27.58Z" fill="#1A1A1A"/>
<path d="M6.9001 27.58H4.6001V29.88H6.9001V27.58Z" fill="#1A1A1A"/>
<path d="M16.09 27.58H13.79V29.88H16.09V27.58Z" fill="#1A1A1A"/>
<path d="M18.3901 27.58H16.0901V29.88H18.3901V27.58Z" fill="#1A1A1A"/>
<path d="M22.9899 27.58H20.6899V29.88H22.9899V27.58Z" fill="#1A1A1A"/>
<path d="M25.29 27.58H22.99V29.88H25.29V27.58Z" fill="#1A1A1A"/>
<path d="M27.58 27.58H25.28V29.88H27.58V27.58Z" fill="#1A1A1A"/>
<path d="M29.8801 27.58H27.5801V29.88H29.8801V27.58Z" fill="#1A1A1A"/>
<path d="M36.78 27.58H34.48V29.88H36.78V27.58Z" fill="#1A1A1A"/>
<path d="M43.6701 27.58H41.3701V29.88H43.6701V27.58Z" fill="#1A1A1A"/>
<path d="M57.4599 27.58H55.1599V29.88H57.4599V27.58Z" fill="#1A1A1A"/>
<path d="M2.3 29.88H0V32.18H2.3V29.88Z" fill="#1A1A1A"/>
<path d="M6.9001 29.88H4.6001V32.18H6.9001V29.88Z" fill="#1A1A1A"/>
<path d="M18.3901 29.88H16.0901V32.18H18.3901V29.88Z" fill="#1A1A1A"/>
<path d="M22.9899 29.88H20.6899V32.18H22.9899V29.88Z" fill="#1A1A1A"/>
<path d="M25.29 29.88H22.99V32.18H25.29V29.88Z" fill="#1A1A1A"/>
<path d="M34.4799 29.88H32.1799V32.18H34.4799V29.88Z" fill="#1A1A1A"/>
<path d="M36.78 29.88H34.48V32.18H36.78V29.88Z" fill="#1A1A1A"/>
<path d="M39.08 29.88H36.78V32.18H39.08V29.88Z" fill="#1A1A1A"/>
<path d="M41.3701 29.88H39.0701V32.18H41.3701V29.88Z" fill="#1A1A1A"/>
<path d="M48.27 29.88H45.97V32.18H48.27V29.88Z" fill="#1A1A1A"/>
<path d="M55.1701 29.88H52.8701V32.18H55.1701V29.88Z" fill="#1A1A1A"/>
<path d="M2.3 32.18H0V34.48H2.3V32.18Z" fill="#1A1A1A"/>
<path d="M4.60005 32.18H2.30005V34.48H4.60005V32.18Z" fill="#1A1A1A"/>
<path d="M16.09 32.18H13.79V34.48H16.09V32.18Z" fill="#1A1A1A"/>
<path d="M25.29 32.18H22.99V34.48H25.29V32.18Z" fill="#1A1A1A"/>
<path d="M27.58 32.18H25.28V34.48H27.58V32.18Z" fill="#1A1A1A"/>
<path d="M29.8801 32.18H27.5801V34.48H29.8801V32.18Z" fill="#1A1A1A"/>
<path d="M32.1799 32.18H29.8799V34.48H32.1799V32.18Z" fill="#1A1A1A"/>
<path d="M34.4799 32.18H32.1799V34.48H34.4799V32.18Z" fill="#1A1A1A"/>
<path d="M36.78 32.18H34.48V34.48H36.78V32.18Z" fill="#1A1A1A"/>
<path d="M39.08 32.18H36.78V34.48H39.08V32.18Z" fill="#1A1A1A"/>
<path d="M41.3701 32.18H39.0701V34.48H41.3701V32.18Z" fill="#1A1A1A"/>
<path d="M43.6701 32.18H41.3701V34.48H43.6701V32.18Z" fill="#1A1A1A"/>
<path d="M48.27 32.18H45.97V34.48H48.27V32.18Z" fill="#1A1A1A"/>
<path d="M50.57 32.18H48.27V34.48H50.57V32.18Z" fill="#1A1A1A"/>
<path d="M52.8701 32.18H50.5701V34.48H52.8701V32.18Z" fill="#1A1A1A"/>
<path d="M55.1701 32.18H52.8701V34.48H55.1701V32.18Z" fill="#1A1A1A"/>
<path d="M57.4599 32.18H55.1599V34.48H57.4599V32.18Z" fill="#1A1A1A"/>
<path d="M2.3 34.48H0V36.78H2.3V34.48Z" fill="#1A1A1A"/>
<path d="M6.9001 34.48H4.6001V36.78H6.9001V34.48Z" fill="#1A1A1A"/>
<path d="M11.4899 34.48H9.18994V36.78H11.4899V34.48Z" fill="#1A1A1A"/>
<path d="M13.79 34.48H11.49V36.78H13.79V34.48Z" fill="#1A1A1A"/>
<path d="M18.3901 34.48H16.0901V36.78H18.3901V34.48Z" fill="#1A1A1A"/>
<path d="M20.6899 34.48H18.3899V36.78H20.6899V34.48Z" fill="#1A1A1A"/>
<path d="M27.58 34.48H25.28V36.78H27.58V34.48Z" fill="#1A1A1A"/>
<path d="M36.78 34.48H34.48V36.78H36.78V34.48Z" fill="#1A1A1A"/>
<path d="M41.3701 34.48H39.0701V36.78H41.3701V34.48Z" fill="#1A1A1A"/>
<path d="M43.6701 34.48H41.3701V36.78H43.6701V34.48Z" fill="#1A1A1A"/>
<path d="M45.9699 34.48H43.6699V36.78H45.9699V34.48Z" fill="#1A1A1A"/>
<path d="M50.57 34.48H48.27V36.78H50.57V34.48Z" fill="#1A1A1A"/>
<path d="M52.8701 34.48H50.5701V36.78H52.8701V34.48Z" fill="#1A1A1A"/>
<path d="M57.4599 34.48H55.1599V36.78H57.4599V34.48Z" fill="#1A1A1A"/>
<path d="M2.3 36.78H0V39.08H2.3V36.78Z" fill="#1A1A1A"/>
<path d="M11.4899 36.78H9.18994V39.08H11.4899V36.78Z" fill="#1A1A1A"/>
<path d="M16.09 36.78H13.79V39.08H16.09V36.78Z" fill="#1A1A1A"/>
<path d="M18.3901 36.78H16.0901V39.08H18.3901V36.78Z" fill="#1A1A1A"/>
<path d="M20.6899 36.78H18.3899V39.08H20.6899V36.78Z" fill="#1A1A1A"/>
<path d="M22.9899 36.78H20.6899V39.08H22.9899V36.78Z" fill="#1A1A1A"/>
<path d="M25.29 36.78H22.99V39.08H25.29V36.78Z" fill="#1A1A1A"/>
<path d="M29.8801 36.78H27.5801V39.08H29.8801V36.78Z" fill="#1A1A1A"/>
<path d="M32.1799 36.78H29.8799V39.08H32.1799V36.78Z" fill="#1A1A1A"/>
<path d="M34.4799 36.78H32.1799V39.08H34.4799V36.78Z" fill="#1A1A1A"/>
<path d="M36.78 36.78H34.48V39.08H36.78V36.78Z" fill="#1A1A1A"/>
<path d="M39.08 36.78H36.78V39.08H39.08V36.78Z" fill="#1A1A1A"/>
<path d="M41.3701 36.78H39.0701V39.08H41.3701V36.78Z" fill="#1A1A1A"/>
<path d="M43.6701 36.78H41.3701V39.08H43.6701V36.78Z" fill="#1A1A1A"/>
<path d="M45.9699 36.78H43.6699V39.08H45.9699V36.78Z" fill="#1A1A1A"/>
<path d="M48.27 36.78H45.97V39.08H48.27V36.78Z" fill="#1A1A1A"/>
<path d="M52.8701 36.78H50.5701V39.08H52.8701V36.78Z" fill="#1A1A1A"/>
<path d="M55.1701 36.78H52.8701V39.08H55.1701V36.78Z" fill="#1A1A1A"/>
<path d="M20.6899 39.07H18.3899V41.37H20.6899V39.07Z" fill="#1A1A1A"/>
<path d="M27.58 39.07H25.28V41.37H27.58V39.07Z" fill="#1A1A1A"/>
<path d="M29.8801 39.07H27.5801V41.37H29.8801V39.07Z" fill="#1A1A1A"/>
<path d="M32.1799 39.07H29.8799V41.37H32.1799V39.07Z" fill="#1A1A1A"/>
<path d="M39.08 39.07H36.78V41.37H39.08V39.07Z" fill="#1A1A1A"/>
<path d="M48.27 39.07H45.97V41.37H48.27V39.07Z" fill="#1A1A1A"/>
<path d="M52.8701 39.07H50.5701V41.37H52.8701V39.07Z" fill="#1A1A1A"/>
<path d="M55.1701 39.07H52.8701V41.37H55.1701V39.07Z" fill="#1A1A1A"/>
<path d="M20.6899 41.37H18.3899V43.67H20.6899V41.37Z" fill="#1A1A1A"/>
<path d="M25.29 41.37H22.99V43.67H25.29V41.37Z" fill="#1A1A1A"/>
<path d="M27.58 41.37H25.28V43.67H27.58V41.37Z" fill="#1A1A1A"/>
<path d="M39.08 41.37H36.78V43.67H39.08V41.37Z" fill="#1A1A1A"/>
<path d="M43.6701 41.37H41.3701V43.67H43.6701V41.37Z" fill="#1A1A1A"/>
<path d="M48.27 41.37H45.97V43.67H48.27V41.37Z" fill="#1A1A1A"/>
<path d="M57.4599 41.37H55.1599V43.67H57.4599V41.37Z" fill="#1A1A1A"/>
<path d="M20.6899 43.67H18.3899V45.97H20.6899V43.67Z" fill="#1A1A1A"/>
<path d="M22.9899 43.67H20.6899V45.97H22.9899V43.67Z" fill="#1A1A1A"/>
<path d="M27.58 43.67H25.28V45.97H27.58V43.67Z" fill="#1A1A1A"/>
<path d="M32.1799 43.67H29.8799V45.97H32.1799V43.67Z" fill="#1A1A1A"/>
<path d="M34.4799 43.67H32.1799V45.97H34.4799V43.67Z" fill="#1A1A1A"/>
<path d="M36.78 43.67H34.48V45.97H36.78V43.67Z" fill="#1A1A1A"/>
<path d="M39.08 43.67H36.78V45.97H39.08V43.67Z" fill="#1A1A1A"/>
<path d="M48.27 43.67H45.97V45.97H48.27V43.67Z" fill="#1A1A1A"/>
<path d="M55.1701 43.67H52.8701V45.97H55.1701V43.67Z" fill="#1A1A1A"/>
<path d="M57.4599 43.67H55.1599V45.97H57.4599V43.67Z" fill="#1A1A1A"/>
<path d="M20.6899 45.97H18.3899V48.27H20.6899V45.97Z" fill="#1A1A1A"/>
<path d="M25.29 45.97H22.99V48.27H25.29V45.97Z" fill="#1A1A1A"/>
<path d="M27.58 45.97H25.28V48.27H27.58V45.97Z" fill="#1A1A1A"/>
<path d="M29.8801 45.97H27.5801V48.27H29.8801V45.97Z" fill="#1A1A1A"/>
<path d="M34.4799 45.97H32.1799V48.27H34.4799V45.97Z" fill="#1A1A1A"/>
<path d="M36.78 45.97H34.48V48.27H36.78V45.97Z" fill="#1A1A1A"/>
<path d="M39.08 45.97H36.78V48.27H39.08V45.97Z" fill="#1A1A1A"/>
<path d="M41.3701 45.97H39.0701V48.27H41.3701V45.97Z" fill="#1A1A1A"/>
<path d="M43.6701 45.97H41.3701V48.27H43.6701V45.97Z" fill="#1A1A1A"/>
<path d="M45.9699 45.97H43.6699V48.27H45.9699V45.97Z" fill="#1A1A1A"/>
<path d="M48.27 45.97H45.97V48.27H48.27V45.97Z" fill="#1A1A1A"/>
<path d="M20.6899 48.27H18.3899V50.57H20.6899V48.27Z" fill="#1A1A1A"/>
<path d="M22.9899 48.27H20.6899V50.57H22.9899V48.27Z" fill="#1A1A1A"/>
<path d="M27.58 48.27H25.28V50.57H27.58V48.27Z" fill="#1A1A1A"/>
<path d="M29.8801 48.27H27.5801V50.57H29.8801V48.27Z" fill="#1A1A1A"/>
<path d="M34.4799 48.27H32.1799V50.57H34.4799V48.27Z" fill="#1A1A1A"/>
<path d="M39.08 48.27H36.78V50.57H39.08V48.27Z" fill="#1A1A1A"/>
<path d="M41.3701 48.27H39.0701V50.57H41.3701V48.27Z" fill="#1A1A1A"/>
<path d="M43.6701 48.27H41.3701V50.57H43.6701V48.27Z" fill="#1A1A1A"/>
<path d="M55.1701 48.27H52.8701V50.57H55.1701V48.27Z" fill="#1A1A1A"/>
<path d="M57.4599 48.27H55.1599V50.57H57.4599V48.27Z" fill="#1A1A1A"/>
<path d="M27.58 50.57H25.28V52.87H27.58V50.57Z" fill="#1A1A1A"/>
<path d="M29.8801 50.57H27.5801V52.87H29.8801V50.57Z" fill="#1A1A1A"/>
<path d="M34.4799 50.57H32.1799V52.87H34.4799V50.57Z" fill="#1A1A1A"/>
<path d="M48.27 50.57H45.97V52.87H48.27V50.57Z" fill="#1A1A1A"/>
<path d="M50.57 50.57H48.27V52.87H50.57V50.57Z" fill="#1A1A1A"/>
<path d="M52.8701 50.57H50.5701V52.87H52.8701V50.57Z" fill="#1A1A1A"/>
<path d="M55.1701 50.57H52.8701V52.87H55.1701V50.57Z" fill="#1A1A1A"/>
<path d="M57.4599 50.57H55.1599V52.87H57.4599V50.57Z" fill="#1A1A1A"/>
<path d="M22.9899 52.86H20.6899V55.16H22.9899V52.86Z" fill="#1A1A1A"/>
<path d="M25.29 52.86H22.99V55.16H25.29V52.86Z" fill="#1A1A1A"/>
<path d="M29.8801 52.86H27.5801V55.16H29.8801V52.86Z" fill="#1A1A1A"/>
<path d="M34.4799 52.86H32.1799V55.16H34.4799V52.86Z" fill="#1A1A1A"/>
<path d="M36.78 52.86H34.48V55.16H36.78V52.86Z" fill="#1A1A1A"/>
<path d="M41.3701 52.86H39.0701V55.16H41.3701V52.86Z" fill="#1A1A1A"/>
<path d="M43.6701 52.86H41.3701V55.16H43.6701V52.86Z" fill="#1A1A1A"/>
<path d="M45.9699 52.86H43.6699V55.16H45.9699V52.86Z" fill="#1A1A1A"/>
<path d="M48.27 52.86H45.97V55.16H48.27V52.86Z" fill="#1A1A1A"/>
<path d="M52.8701 52.86H50.5701V55.16H52.8701V52.86Z" fill="#1A1A1A"/>
<path d="M55.1701 52.86H52.8701V55.16H55.1701V52.86Z" fill="#1A1A1A"/>
<path d="M57.4599 52.86H55.1599V55.16H57.4599V52.86Z" fill="#1A1A1A"/>
<path d="M20.6899 55.16H18.3899V57.46H20.6899V55.16Z" fill="#1A1A1A"/>
<path d="M22.9899 55.16H20.6899V57.46H22.9899V55.16Z" fill="#1A1A1A"/>
<path d="M25.29 55.16H22.99V57.46H25.29V55.16Z" fill="#1A1A1A"/>
<path d="M27.58 55.16H25.28V57.46H27.58V55.16Z" fill="#1A1A1A"/>
<path d="M39.08 55.16H36.78V57.46H39.08V55.16Z" fill="#1A1A1A"/>
<path d="M50.57 55.16H48.27V57.46H50.57V55.16Z" fill="#1A1A1A"/>
<path d="M57.4599 55.16H55.1599V57.46H57.4599V55.16Z" fill="#1A1A1A"/>
<path d="M13.68 0H0V16.09H16.09V0H13.68ZM13.68 13.68H2.41V2.41H13.67V13.67L13.68 13.68Z" fill="#1A1A1A"/>
<path d="M55.0501 0H41.3701V16.09H57.4601V0H55.0501ZM55.0501 13.68H43.7901V2.41H55.0501V13.67V13.68Z" fill="#1A1A1A"/>
<path d="M13.68 41.37H0V57.46H16.09V41.37H13.68ZM13.68 55.05H2.41V43.79H13.67V55.05H13.68Z" fill="#1A1A1A"/>
<path d="M11.5001 4.59998H4.6001V11.5H11.5001V4.59998Z" fill="#1A1A1A"/>
<path d="M52.87 4.59998H45.97V11.5H52.87V4.59998Z" fill="#1A1A1A"/>
<path d="M11.5001 45.97H4.6001V52.87H11.5001V45.97Z" fill="#1A1A1A"/>
</g>
<defs>
<clipPath id="clip0_0_1">
<rect width="57.46" height="57.46" fill="white"/>
</clipPath>
</defs>
</svg>
