<svg width="191" height="37" viewBox="0 0 191 37" fill="none" xmlns="http://www.w3.org/2000/svg">
<g clip-path="url(#clip0_88_3)">
<path d="M41.5334 7.5937H2.39436C1.61408 7.62085 0.958637 7.00539 0.931885 6.21344C0.931885 6.20439 0.931885 6.19534 0.931885 6.19081V1.40742C0.98539 0.624521 1.62299 0.0135867 2.39436 1.04256e-05H41.5334C42.3137 -0.0271422 42.9691 0.588318 42.9958 1.38027C42.9958 1.38932 42.9958 1.39837 42.9958 1.4029V6.18176C42.9825 6.97371 42.3359 7.60275 41.5557 7.58917C41.5467 7.58917 41.5378 7.58917 41.5334 7.58917V7.5937Z" fill="#004993"/>
<path d="M21.5581 28.3474H21.4957V12.3363L0 22.9666V35.0631C0.0222938 36.1447 0.90067 37.009 1.96631 37H2.26505C2.64405 37 3.01412 36.9004 3.33515 36.7058L21.5002 28.3655" fill="#004993"/>
<path opacity="0.5" d="M42.3404 36.4705L42.3983 36.4117C42.7684 36.0632 42.9824 35.5745 42.9914 35.0586V22.9621L21.4912 12.3363V28.3474H21.5536L29.1647 31.8636L39.6607 36.647L39.7186 36.7058L40.0753 36.8823C40.2671 36.9547 40.4677 36.9955 40.6683 37H40.9047C41.3684 36.9909 41.8232 36.8461 42.2111 36.5882C42.269 36.5293 42.269 36.4705 42.3315 36.4705H42.3404Z" fill="#004993"/>
<!-- <path d="M70.814 16.6582H66.0253V24.6456C66.0253 26.3154 66.9438 26.8766 68.4196 26.8766C68.8566 26.9218 69.298 26.8585 69.7082 26.6911V29.1076C69.1687 29.2706 68.6069 29.3339 68.0496 29.2932C65.2896 29.2932 63.2653 27.8088 63.2653 24.8356V16.4726H60.1353V14.2416H63.078V11.2683L66.0208 9.77948V14.2416H71.358L70.8185 16.6582H70.814Z" fill="#004993"/> -->
<!-- <path d="M81.4882 17.2148C81.3054 17.2148 80.7525 17.0292 80.3825 17.0292C78.3582 17.0292 76.3339 17.9569 76.3339 21.4913V29.1076H73.3911V14.2416H76.5212V17.2148C77.074 14.9837 78.7283 14.056 80.7525 14.056C81.1181 14.056 81.8583 14.2416 82.2239 14.2416L81.4838 17.2148H81.4882Z" fill="#004993"/> -->
<!-- <path d="M94.7442 29.1031V27.2432C94.0085 28.5465 92.7199 29.4742 90.1428 29.4742C86.8299 29.4742 84.4355 27.4332 84.4355 24.0844V14.237H87.3783V23.8989C87.3783 25.3877 88.2968 27.0576 90.874 27.0576C93.2684 27.0576 94.3697 25.3877 94.3697 23.8989V14.237H97.3125V29.1031H94.7442Z" fill="#004993"/> -->
<!-- <path d="M105.048 29.2887C103.617 29.3701 102.195 28.9809 101 28.1754L100.447 25.2022C101.749 26.2747 103.372 26.8675 105.048 26.8766C106.337 26.8766 107.256 26.1344 107.256 25.2022C107.256 24.0889 106.52 23.5323 105.231 23.1567C102.288 22.0389 100.63 20.7401 100.63 18.3235C100.63 15.9069 102.654 14.0515 105.597 14.0515C106.939 14.0425 108.263 14.3638 109.463 14.9792L108.91 17.5813C107.907 16.9749 106.765 16.6536 105.597 16.6536C104.308 16.6536 103.573 17.3958 103.573 18.328C103.573 19.2558 104.308 19.6314 105.597 20.188C108.54 21.3013 110.198 22.6046 110.198 25.2067C110.381 27.4378 108.544 29.2932 105.044 29.2932L105.048 29.2887Z" fill="#004993"/> -->
<!-- <path d="M122.344 16.6582H117.56V24.6456C117.56 26.3154 118.478 26.8766 119.95 26.8766C120.387 26.9218 120.832 26.8585 121.238 26.6911V29.1076C120.699 29.2706 120.137 29.3339 119.58 29.2932C116.82 29.2932 114.795 27.8088 114.795 24.8356V16.4726H111.853V14.2416H114.795V11.2683L117.738 9.77948V14.2416H123.075L122.344 16.6582Z" fill="#004993"/> -->
<!-- <path d="M142.413 8.66623C141.731 8.30872 140.973 8.11865 140.206 8.1096C137.811 8.1096 136.71 9.59394 136.71 12.1961V14.056H141.494L140.941 16.6582H136.71V29.1076H133.767V16.4771H131.19V14.2461H133.767V12.2006C133.767 7.92858 136.162 5.69754 140.027 5.69754C141.035 5.66586 142.038 5.85593 142.97 6.25417L142.417 8.67075L142.413 8.66623Z" fill="#004993"/> -->
<!-- <path d="M154.01 29.1031V27.2432C153.274 28.5465 151.986 29.4742 149.409 29.4742C146.096 29.4742 143.701 27.4332 143.701 24.0844V14.237H146.644V23.8989C146.644 25.3877 147.567 27.0576 150.14 27.0576C152.53 27.0576 153.636 25.3877 153.636 23.8989V14.237H156.578V29.1031H154.01Z" fill="#004993"/> -->
<!-- <path d="M170.392 29.1076V19.4458C170.392 17.957 169.473 16.2871 166.896 16.2871C164.506 16.2871 163.4 17.957 163.4 19.4458V29.1076H160.458V14.2416H163.035V16.1015C163.77 14.7982 165.059 13.8705 167.636 13.8705C170.949 13.8705 173.343 15.916 173.343 19.2603V29.1076H170.396H170.392Z" fill="#004993"/> -->
<!-- <path d="M188.062 29.1076V27.4377C187 28.7999 185.355 29.5647 183.643 29.4832C180.33 29.4832 176.464 26.8811 176.464 21.6814C176.29 17.5497 179.452 14.056 183.523 13.8795C183.683 13.8705 183.844 13.8705 184.009 13.875C185.458 13.875 186.871 14.3275 188.057 15.1783V5.69301H191V29.1031H188.062V29.1076ZM187.879 17.9615C186.934 16.9297 185.583 16.3821 184.196 16.4771C181.619 16.4771 179.407 18.5226 179.407 21.6814C179.407 24.8447 181.614 26.8856 184.196 26.8856C185.636 26.8675 186.992 26.1842 187.879 25.0257V17.957V17.9615Z" fill="#004993"/> -->
</g>
<defs>
<clipPath id="clip0_88_3">
<rect width="191" height="37" fill="white"/>
</clipPath>
</defs>
</svg>
