<svg width="60" height="60" viewBox="0 0 60 60" fill="none" xmlns="http://www.w3.org/2000/svg">
<path d="M44.35 56.8754H19.075C18.275 56.8754 17.575 56.3754 17.3 55.6504C17.025 54.9004 17.25 54.0753 17.85 53.5753C18.45 53.0753 19 52.4254 19.4 51.7254C20.2 50.4504 20.6 49.0004 20.6 47.5254C20.6 43.0504 16.95 39.4004 12.475 39.4004C10.625 39.4004 8.87502 40.0253 7.40002 41.2003C6.85002 41.6503 6.075 41.7254 5.425 41.4254C4.775 41.1254 4.375 40.4504 4.375 39.7254V28.8004C4.375 22.5754 9.42499 17.5254 15.65 17.5254H44.35C50.575 17.5254 55.625 22.5754 55.625 28.8004V32.4004C55.625 33.4254 54.775 34.2754 53.75 34.2754H48.7C47.825 34.2754 47.025 34.6004 46.45 35.2004L46.425 35.2254C45.725 35.9004 45.4 36.8253 45.475 37.7753C45.625 39.4253 47.2 40.7503 49 40.7503H53.75C54.775 40.7503 55.625 41.6003 55.625 42.6253V45.6003C55.625 51.8253 50.575 56.8754 44.35 56.8754ZM22.95 53.1254H44.35C48.5 53.1254 51.875 49.7503 51.875 45.6003V44.5003H49C45.225 44.5003 42.025 41.7003 41.725 38.1003C41.525 36.0503 42.275 34.0254 43.775 32.5504C45.075 31.2254 46.825 30.5004 48.7 30.5004H51.875V28.7754C51.875 24.6254 48.5 21.2504 44.35 21.2504H15.65C11.5 21.2504 8.125 24.6254 8.125 28.7754V36.4754C9.525 35.9254 11 35.6254 12.5 35.6254C19.05 35.6254 24.375 40.9504 24.375 47.5004C24.375 49.4754 23.875 51.4254 22.95 53.1254Z" fill="#7065F0"/>
<path d="M6.25 32.9C5.225 32.9 4.375 32.05 4.375 31.025V19.6002C4.375 15.8752 6.725 12.5 10.2 11.175L30.05 3.67501C32.1 2.90001 34.375 3.17514 36.15 4.42514C37.95 5.67514 39 7.70012 39 9.87512V19.3751C39 20.4001 38.15 21.2501 37.125 21.2501C36.1 21.2501 35.25 20.4001 35.25 19.3751V9.87512C35.25 8.92512 34.8 8.05009 34 7.50009C33.2 6.95009 32.25 6.82507 31.35 7.17507L11.5 14.6751C9.47502 15.4501 8.10001 17.4252 8.10001 19.6002V31.025C8.12501 32.075 7.275 32.9 6.25 32.9Z" fill="#7065F0"/>
<path d="M48.9982 44.4999C45.2232 44.4999 42.0232 41.6999 41.7232 38.0999C41.5232 36.0249 42.2732 34 43.7732 32.525C45.0482 31.225 46.7982 30.5 48.6732 30.5H53.8732C56.3482 30.575 58.2482 32.5249 58.2482 34.9249V40.075C58.2482 42.475 56.3482 44.4249 53.9482 44.4999H48.9982ZM53.8232 34.25H48.6982C47.8232 34.25 47.0232 34.575 46.4482 35.175C45.7232 35.875 45.3732 36.8249 45.4732 37.7749C45.6232 39.4249 47.1982 40.7499 48.9982 40.7499H53.8982C54.2232 40.7499 54.5232 40.45 54.5232 40.075V34.9249C54.5232 34.5499 54.2232 34.275 53.8232 34.25Z" fill="#7065F0"/>
<path d="M35 31.875H17.5C16.475 31.875 15.625 31.025 15.625 30C15.625 28.975 16.475 28.125 17.5 28.125H35C36.025 28.125 36.875 28.975 36.875 30C36.875 31.025 36.025 31.875 35 31.875Z" fill="#7065F0"/>
<path d="M12.5 59.375C8.35 59.375 4.45001 57.175 2.35001 53.6C1.22501 51.8 0.625 49.675 0.625 47.5C0.625 43.85 2.25 40.4749 5.075 38.2249C7.175 36.5499 9.825 35.625 12.5 35.625C19.05 35.625 24.375 40.95 24.375 47.5C24.375 49.675 23.775 51.8 22.65 53.625C22.05 54.675 21.225 55.625 20.275 56.425C18.2 58.325 15.425 59.375 12.5 59.375ZM12.5 39.375C10.65 39.375 8.9 39.9999 7.425 41.1749C5.5 42.6999 4.375 45.025 4.375 47.5C4.375 48.975 4.775 50.425 5.55 51.675C7.025 54.175 9.625 55.625 12.5 55.625C14.475 55.625 16.375 54.9 17.825 53.6C18.475 53.05 19.025 52.4 19.425 51.7C20.225 50.425 20.625 48.975 20.625 47.5C20.625 43.025 16.975 39.375 12.5 39.375Z" fill="#7065F0"/>
<path d="M11.0742 51.8499C10.5992 51.8499 10.1242 51.675 9.74919 51.3L7.27422 48.825C6.54922 48.1 6.54922 46.8998 7.27422 46.1748C7.99922 45.4498 9.19921 45.4498 9.92421 46.1748L11.1242 47.3749L15.1242 43.6748C15.8742 42.9748 17.0742 43.0249 17.7742 43.7749C18.4742 44.5249 18.4242 45.7249 17.6742 46.4249L12.3492 51.3499C11.9742 51.6749 11.5242 51.8499 11.0742 51.8499Z" fill="#7065F0"/>
</svg>
